<svg width="81" height="26" fill="none" xmlns="http://www.w3.org/2000/svg"><g filter="url(#filter0_b_233_1978)"><rect width="81" height="26" rx="13" fill="#CECCBF" fill-opacity=".7"/><rect x=".5" y=".5" width="80" height="25" rx="12.5" stroke="#B3B5A9"/></g><path d="M21.492 7.61h.125v1.226h-.125c-.765 0-1.406.125-1.922.375a3.144 3.144 0 00-1.226.992 4.095 4.095 0 00-.657 1.39 6.39 6.39 0 00-.195 1.571v1.672c0 .505.06.953.18 1.344.12.385.284.71.492.976.208.266.443.466.703.602.266.135.542.203.828.203.334 0 .63-.063.89-.188.261-.13.48-.31.657-.539.182-.234.32-.51.414-.828.094-.317.14-.666.14-1.047 0-.338-.04-.664-.124-.976a2.606 2.606 0 00-.383-.844 1.84 1.84 0 00-.648-.586 1.813 1.813 0 00-.914-.219c-.401 0-.776.1-1.125.297a2.56 2.56 0 00-.852.766 2.058 2.058 0 00-.375 1.023l-.766-.008c.073-.583.209-1.08.407-1.492a3.18 3.18 0 01.75-1.015 2.84 2.84 0 011.007-.578 3.73 3.73 0 011.188-.188c.568 0 1.057.107 1.469.32.411.214.75.5 1.015.86.266.354.461.755.586 1.203.13.443.196.898.196 1.367A4.89 4.89 0 0123 16.797c-.151.469-.378.88-.68 1.234-.297.354-.664.63-1.101.828-.438.198-.946.297-1.524.297-.614 0-1.15-.125-1.61-.375a3.447 3.447 0 01-1.14-1.015 4.633 4.633 0 01-.68-1.407 5.56 5.56 0 01-.226-1.57v-.68c0-.802.08-1.588.242-2.359a6.3 6.3 0 01.836-2.094c.401-.625.956-1.122 1.664-1.492.709-.37 1.612-.555 2.711-.555zm10.805.015v.813L27.586 19h-1.523l4.703-10.188h-6.157V7.625h7.688zm3.476 5.96l-1.156-.296.57-5.664h5.836v1.336h-4.609l-.344 3.094a4.26 4.26 0 01.79-.336 3.61 3.61 0 011.109-.156c.526 0 .997.09 1.414.273.416.177.77.432 1.062.766.297.333.524.734.68 1.203.156.468.234.992.234 1.57 0 .547-.075 1.05-.226 1.508a3.39 3.39 0 01-.664 1.203 2.988 2.988 0 01-1.125.789c-.448.188-.977.281-1.586.281-.459 0-.893-.062-1.305-.187a3.36 3.36 0 01-1.094-.586 3.173 3.173 0 01-.78-.985c-.199-.395-.324-.859-.376-1.39h1.375c.063.427.188.786.375 1.078.188.292.432.513.734.664.308.146.665.219 1.07.219.345 0 .65-.06.915-.18.266-.12.49-.292.672-.516.182-.224.32-.494.414-.812a3.59 3.59 0 00.148-1.07c0-.36-.05-.693-.148-1a2.288 2.288 0 00-.446-.805 1.95 1.95 0 00-.71-.531 2.282 2.282 0 00-.97-.196c-.484 0-.85.066-1.1.196a4.22 4.22 0 00-.759.53zm14.125-.925v.897h-2.93V19h-1.083v-6.34h4.013zm2.028 1.219v7.559h-1.09V12.66h.996l.094 1.219zm4.271 1.898v.123c0 .461-.054.89-.164 1.284-.11.39-.27.73-.48 1.02a2.19 2.19 0 01-.768.673 2.22 2.22 0 01-1.049.24 2.67 2.67 0 01-1.066-.199 2.103 2.103 0 01-.785-.58 2.962 2.962 0 01-.516-.914 5.29 5.29 0 01-.258-1.201v-.657c.047-.468.135-.888.264-1.26.129-.37.299-.687.51-.949.215-.265.474-.466.78-.603.304-.14.655-.211 1.054-.211.398 0 .752.078 1.06.234.309.153.569.371.78.657a3 3 0 01.474 1.025c.11.395.164.834.164 1.318zm-1.09.123v-.123a3.78 3.78 0 00-.1-.89 2.252 2.252 0 00-.31-.739 1.48 1.48 0 00-.527-.503 1.5 1.5 0 00-.768-.188 1.69 1.69 0 00-.715.14 1.548 1.548 0 00-.51.382c-.14.156-.255.336-.345.539-.086.199-.15.406-.193.62v1.518c.078.274.187.532.328.774a1.7 1.7 0 00.562.58c.235.144.53.217.885.217.293 0 .545-.061.756-.182a1.53 1.53 0 00.527-.51c.14-.215.244-.46.31-.738.067-.281.1-.58.1-.897zm6.774-.492v.88h-3.352v-.88h3.352zm-3.123-2.748V19h-1.084v-6.34h1.084zm4.002 0V19h-1.09v-6.34h1.09zm1.763 5.766c0-.184.057-.338.17-.463.118-.129.285-.194.504-.194.219 0 .385.065.498.194a.65.65 0 01.176.463.64.64 0 01-.176.457c-.113.125-.279.187-.498.187-.219 0-.386-.062-.504-.187a.656.656 0 01-.17-.457z" fill="#FBE0D8"/><defs><filter id="filter0_b_233_1978" x="-2" y="-2" width="85" height="30" filterUnits="userSpaceOnUse" color-interpolation-filters="sRGB"><feFlood flood-opacity="0" result="BackgroundImageFix"/><feGaussianBlur in="BackgroundImage" stdDeviation="1"/><feComposite in2="SourceAlpha" operator="in" result="effect1_backgroundBlur_233_1978"/><feBlend in="SourceGraphic" in2="effect1_backgroundBlur_233_1978" result="shape"/></filter></defs></svg>