<svg width="81" height="26" viewBox="0 0 81 26" fill="none" xmlns="http://www.w3.org/2000/svg">
<g filter="url(#filter0_b_233_1978)">
<rect width="81" height="26" rx="13" fill="#CECCBF" fill-opacity="0.7"/>
<rect x="0.5" y="0.5" width="80" height="25" rx="12.5" stroke="#B3B5A9"/>
</g>
<path d="M21.4922 7.60938H21.6172V8.83594H21.4922C20.7266 8.83594 20.0859 8.96094 19.5703 9.21094C19.0547 9.45573 18.6458 9.78646 18.3438 10.2031C18.0417 10.6146 17.8229 11.0781 17.6875 11.5938C17.5573 12.1094 17.4922 12.6328 17.4922 13.1641V14.8359C17.4922 15.3411 17.5521 15.7891 17.6719 16.1797C17.7917 16.5651 17.9557 16.8906 18.1641 17.1562C18.3724 17.4219 18.6068 17.6224 18.8672 17.7578C19.1328 17.8932 19.4089 17.9609 19.6953 17.9609C20.0286 17.9609 20.3255 17.8984 20.5859 17.7734C20.8464 17.6432 21.0651 17.4635 21.2422 17.2344C21.4245 17 21.5625 16.724 21.6562 16.4062C21.75 16.0885 21.7969 15.7396 21.7969 15.3594C21.7969 15.0208 21.7552 14.6953 21.6719 14.3828C21.5885 14.0651 21.4609 13.7839 21.2891 13.5391C21.1172 13.2891 20.901 13.0938 20.6406 12.9531C20.3854 12.8073 20.0807 12.7344 19.7266 12.7344C19.3255 12.7344 18.9505 12.8333 18.6016 13.0312C18.2578 13.224 17.974 13.4792 17.75 13.7969C17.5312 14.1094 17.4062 14.4505 17.375 14.8203L16.6094 14.8125C16.6823 14.2292 16.8177 13.7318 17.0156 13.3203C17.2188 12.9036 17.4688 12.5651 17.7656 12.3047C18.0677 12.0391 18.4036 11.8464 18.7734 11.7266C19.1484 11.6016 19.5443 11.5391 19.9609 11.5391C20.5286 11.5391 21.0182 11.6458 21.4297 11.8594C21.8411 12.0729 22.1797 12.3594 22.4453 12.7188C22.7109 13.0729 22.9062 13.474 23.0312 13.9219C23.1615 14.3646 23.2266 14.8203 23.2266 15.2891C23.2266 15.8255 23.151 16.3281 23 16.7969C22.849 17.2656 22.6224 17.6771 22.3203 18.0312C22.0234 18.3854 21.6562 18.6615 21.2188 18.8594C20.7812 19.0573 20.2734 19.1562 19.6953 19.1562C19.0807 19.1562 18.5443 19.0312 18.0859 18.7812C17.6276 18.526 17.2474 18.1875 16.9453 17.7656C16.6432 17.3438 16.4167 16.875 16.2656 16.3594C16.1146 15.8438 16.0391 15.3203 16.0391 14.7891V14.1094C16.0391 13.3073 16.1198 12.5208 16.2812 11.75C16.4427 10.9792 16.7214 10.2812 17.1172 9.65625C17.5182 9.03125 18.0729 8.53385 18.7812 8.16406C19.4896 7.79427 20.3932 7.60938 21.4922 7.60938ZM32.2969 7.625V8.4375L27.5859 19H26.0625L30.7656 8.8125H24.6094V7.625H32.2969ZM35.7734 13.5859L34.6172 13.2891L35.1875 7.625H41.0234V8.96094H36.4141L36.0703 12.0547C36.2786 11.9349 36.5417 11.8229 36.8594 11.7188C37.1823 11.6146 37.5521 11.5625 37.9688 11.5625C38.4948 11.5625 38.9661 11.6536 39.3828 11.8359C39.7995 12.013 40.1536 12.2682 40.4453 12.6016C40.7422 12.9349 40.9688 13.3359 41.125 13.8047C41.2812 14.2734 41.3594 14.7969 41.3594 15.375C41.3594 15.9219 41.2839 16.4245 41.1328 16.8828C40.987 17.3411 40.7656 17.7422 40.4688 18.0859C40.1719 18.4245 39.7969 18.6875 39.3438 18.875C38.8958 19.0625 38.3672 19.1562 37.7578 19.1562C37.2995 19.1562 36.8646 19.0938 36.4531 18.9688C36.0469 18.8385 35.6823 18.6432 35.3594 18.3828C35.0417 18.1172 34.7812 17.7891 34.5781 17.3984C34.3802 17.0026 34.2552 16.5391 34.2031 16.0078H35.5781C35.6406 16.4349 35.7656 16.7943 35.9531 17.0859C36.1406 17.3776 36.3854 17.599 36.6875 17.75C36.9948 17.8958 37.3516 17.9688 37.7578 17.9688C38.1016 17.9688 38.4062 17.9089 38.6719 17.7891C38.9375 17.6693 39.1615 17.4974 39.3438 17.2734C39.526 17.0495 39.6641 16.7786 39.7578 16.4609C39.8568 16.1432 39.9062 15.7865 39.9062 15.3906C39.9062 15.0312 39.8568 14.6979 39.7578 14.3906C39.6589 14.0833 39.5104 13.8151 39.3125 13.5859C39.1198 13.3568 38.8828 13.1797 38.6016 13.0547C38.3203 12.9245 37.9974 12.8594 37.6328 12.8594C37.1484 12.8594 36.7812 12.9245 36.5312 13.0547C36.2865 13.1849 36.0339 13.362 35.7734 13.5859ZM49.8984 12.6602V13.5566H46.9688V19H45.8848V12.6602H49.8984ZM51.9258 13.8789V21.4375H50.8359V12.6602H51.832L51.9258 13.8789ZM56.1973 15.7773V15.9004C56.1973 16.3613 56.1426 16.7891 56.0332 17.1836C55.9238 17.5742 55.7637 17.9141 55.5527 18.2031C55.3457 18.4922 55.0898 18.7168 54.7852 18.877C54.4805 19.0371 54.1309 19.1172 53.7363 19.1172C53.334 19.1172 52.9785 19.0508 52.6699 18.918C52.3613 18.7852 52.0996 18.5918 51.8848 18.3379C51.6699 18.084 51.498 17.7793 51.3691 17.4238C51.2441 17.0684 51.1582 16.668 51.1113 16.2227V15.5664C51.1582 15.0977 51.2461 14.6777 51.375 14.3066C51.5039 13.9355 51.6738 13.6191 51.8848 13.3574C52.0996 13.0918 52.3594 12.8906 52.6641 12.7539C52.9688 12.6133 53.3203 12.543 53.7188 12.543C54.1172 12.543 54.4707 12.6211 54.7793 12.7773C55.0879 12.9297 55.3477 13.1484 55.5586 13.4336C55.7695 13.7188 55.9277 14.0605 56.0332 14.459C56.1426 14.8535 56.1973 15.293 56.1973 15.7773ZM55.1074 15.9004V15.7773C55.1074 15.4609 55.0742 15.1641 55.0078 14.8867C54.9414 14.6055 54.8379 14.3594 54.6973 14.1484C54.5605 13.9336 54.3848 13.7656 54.1699 13.6445C53.9551 13.5195 53.6992 13.457 53.4023 13.457C53.1289 13.457 52.8906 13.5039 52.6875 13.5977C52.4883 13.6914 52.3184 13.8184 52.1777 13.9785C52.0371 14.1348 51.9219 14.3145 51.832 14.5176C51.7461 14.7168 51.6816 14.9238 51.6387 15.1387V16.6562C51.7168 16.9297 51.8262 17.1875 51.9668 17.4297C52.1074 17.668 52.2949 17.8613 52.5293 18.0098C52.7637 18.1543 53.0586 18.2266 53.4141 18.2266C53.707 18.2266 53.959 18.166 54.1699 18.0449C54.3848 17.9199 54.5605 17.75 54.6973 17.5352C54.8379 17.3203 54.9414 17.0742 55.0078 16.7969C55.0742 16.5156 55.1074 16.2168 55.1074 15.9004ZM61.8809 15.4082V16.2871H58.5293V15.4082H61.8809ZM58.7578 12.6602V19H57.6738V12.6602H58.7578ZM62.7598 12.6602V19H61.6699V12.6602H62.7598ZM64.5234 18.4258C64.5234 18.2422 64.5801 18.0879 64.6934 17.9629C64.8105 17.834 64.9785 17.7695 65.1973 17.7695C65.416 17.7695 65.582 17.834 65.6953 17.9629C65.8125 18.0879 65.8711 18.2422 65.8711 18.4258C65.8711 18.6055 65.8125 18.7578 65.6953 18.8828C65.582 19.0078 65.416 19.0703 65.1973 19.0703C64.9785 19.0703 64.8105 19.0078 64.6934 18.8828C64.5801 18.7578 64.5234 18.6055 64.5234 18.4258Z" fill="#FBE0D8"/>
<defs>
<filter id="filter0_b_233_1978" x="-2" y="-2" width="85" height="30" filterUnits="userSpaceOnUse" color-interpolation-filters="sRGB">
<feFlood flood-opacity="0" result="BackgroundImageFix"/>
<feGaussianBlur in="BackgroundImage" stdDeviation="1"/>
<feComposite in2="SourceAlpha" operator="in" result="effect1_backgroundBlur_233_1978"/>
<feBlend mode="normal" in="SourceGraphic" in2="effect1_backgroundBlur_233_1978" result="shape"/>
</filter>
</defs>
</svg>
