<svg xmlns="http://www.w3.org/2000/svg" width="100" height="100"><defs><filter id="a" width="74" height="69" x="13" y="10" filterUnits="userSpaceOnUse"><feOffset dy="2" in="SourceGraphic" result="FeOffset1937Out"/><feGaussianBlur in="FeOffset1937Out" result="FeGaussianBlur1938Out" stdDeviation="1.6 1.6"/></filter><filter id="c" width="200%" height="200%" x="-50%" y="-50%"><feGaussianBlur in="SourceGraphic" result="FeGaussianBlur1943Out" stdDeviation="2.5 2.5"/></filter><mask id="b" width="2" height="2" x="-1" y="-1"><path fill="#fff" d="M27 24h46v39H27z"/><path d="M50 24l22.517 39H27.483z"/></mask><mask id="d"><path fill="#fff" d="M50 24l22.517 39H27.483z"/></mask><clipPath id="e"><path fill="#fff" d="M50 24l22.517 39H27.483z"/></clipPath></defs><path fill="#ffc85e" d="M0 50C0 22.386 22.386 0 50 0s50 22.386 50 50-22.386 50-50 50S0 77.614 0 50z"/><g filter="url(#a)"><path fill="none" d="M50 24l22.517 39H27.483z" mask="url(&quot;#b&quot;)"/><path fill-opacity=".25" d="M50 24l22.517 39H27.483z"/></g><path fill="#886b32" d="M50 24l22.517 39H27.483z"/><path fill-opacity=".2" d="M22 69V18h56v51zm5.483-5h45.034L50 25z" filter="url(#c)" mask="url(&quot;#d&quot;)"/><path fill="none" stroke="#695224" stroke-miterlimit="20" stroke-width="2" d="M50 24v0l22.517 39v0H27.483v0z" clip-path="url(&quot;#e&quot;)"/></svg>