<svg xmlns="http://www.w3.org/2000/svg" width="526" height="564"><defs><radialGradient id="a" cx="10.56" cy="263.55" r="359.4" gradientUnits="userSpaceOnUse"><stop offset="0" stop-color="#ffed44"/><stop offset="1" stop-color="#ffae00"/></radialGradient><radialGradient id="b" cx="82.51" cy=".33" r="640.87" gradientUnits="userSpaceOnUse"><stop offset="0" stop-color="#fc0"/><stop offset="1" stop-color="#ed8e00"/></radialGradient><radialGradient id="c" cx="23.05" cy="222.12" r="426.96" gradientUnits="userSpaceOnUse"><stop offset="0" stop-color="#fff"/><stop offset="1" stop-color="#ffecba"/></radialGradient><radialGradient id="d" cx="199.67" cy="289.9" r="370.66" gradientUnits="userSpaceOnUse"><stop offset="0" stop-color="#fff"/><stop offset="1" stop-color="#ffecba"/></radialGradient><radialGradient id="e" cx="-35" cy="512.03" r="331.6" gradientUnits="userSpaceOnUse"><stop offset=".54" stop-color="#fff"/><stop offset=".58" stop-color="#fef7f5"/><stop offset=".66" stop-color="#fbe2da"/><stop offset=".75" stop-color="#f7c0ad"/><stop offset=".86" stop-color="#f19070"/><stop offset=".99" stop-color="#ea5422"/><stop offset="1" stop-color="#e94e1b"/></radialGradient><radialGradient id="f" cx="390.73" cy="505.18" r="301" gradientUnits="userSpaceOnUse"><stop offset=".54" stop-color="#fff"/><stop offset=".6" stop-color="#fbf6f5"/><stop offset=".7" stop-color="#f0dfda"/><stop offset=".83" stop-color="#dfb9ad"/><stop offset=".98" stop-color="#c78671"/><stop offset="1" stop-color="#c4806a"/></radialGradient><radialGradient id="g" cx="45.22" cy="132.56" r="398.1" gradientUnits="userSpaceOnUse"><stop offset="0" stop-color="#ffed44"/><stop offset="1" stop-color="#ffae00"/></radialGradient><radialGradient id="h" cx="256.5" cy="-161.91" r="514.73" gradientUnits="userSpaceOnUse"><stop offset="0" stop-color="#fc0"/><stop offset="1" stop-color="#ed8e00"/></radialGradient><radialGradient id="i" cx="136.7" cy="291.3" r="553.61" gradientUnits="userSpaceOnUse"><stop offset="0" stop-color="#ffec70"/><stop offset="1" stop-color="#fc9c0d"/></radialGradient><radialGradient id="j" cx="503.48" cy="309.03" r="471.28" gradientUnits="userSpaceOnUse"><stop offset="0"/><stop offset="1" stop-color="#ffed44"/></radialGradient><radialGradient id="k" cx="126.84" cy="451.96" r="552.73" gradientUnits="userSpaceOnUse"><stop offset="0"/><stop offset="1" stop-color="#fcea10"/></radialGradient><radialGradient id="l" cx="323.17" cy="-111" r="439.09" gradientUnits="userSpaceOnUse"><stop offset="0"/><stop offset="1" stop-color="#ca9e67"/></radialGradient><radialGradient id="m" cx="174.34" cy="223.87" r="394.23" gradientUnits="userSpaceOnUse"><stop offset="0" stop-color="#fff"/><stop offset="1" stop-color="#ffecba"/></radialGradient><radialGradient id="n" cx="228.69" cy="182.43" r="303.81" gradientUnits="userSpaceOnUse"><stop offset="0" stop-color="#fff"/><stop offset="1" stop-color="#ffecba"/></radialGradient><radialGradient id="o" cx="20.42" cy="97.97" r="311.73" gradientUnits="userSpaceOnUse"><stop offset="0" stop-color="#fff"/><stop offset="1" stop-color="#ffecba"/></radialGradient><radialGradient id="p" cx="291.15" cy="232.29" r="161.67" gradientUnits="userSpaceOnUse"><stop offset="0" stop-color="#fff"/><stop offset="1" stop-color="#ffecba"/></radialGradient><radialGradient id="q" cx="173.63" cy="366.8" r="210.05" gradientUnits="userSpaceOnUse"><stop offset=".54" stop-color="#fff"/><stop offset=".58" stop-color="#fef7f5"/><stop offset=".66" stop-color="#fbe2da"/><stop offset=".75" stop-color="#f7c0ad"/><stop offset=".86" stop-color="#f19070"/><stop offset=".99" stop-color="#ea5422"/><stop offset="1" stop-color="#e94e1b"/></radialGradient><radialGradient id="r" cx="232.22" cy="240.37" r="427.66" gradientUnits="userSpaceOnUse"><stop offset=".54" stop-color="#fff"/><stop offset=".6" stop-color="#fbf6f5"/><stop offset=".7" stop-color="#f0dfda"/><stop offset=".83" stop-color="#dfb9ad"/><stop offset=".98" stop-color="#c78671"/><stop offset="1" stop-color="#c4806a"/></radialGradient><filter id="s" width="245" height="452" x="143" y="-10" filterUnits="userSpaceOnUse"><feOffset in="SourceGraphic" result="FeOffset1199Out"/><feGaussianBlur in="FeOffset1199Out" result="FeGaussianBlur1200Out" stdDeviation="2.4 2.4"/></filter><mask id="t" width="2" height="2" x="-1" y="-1"><path fill="#fff" d="M159 6h213v420H159z"/><path d="M311.617 383.265a30.153 30.153 0 010 4.272 27.832 27.832 0 01-2.108 7.978c-1.945 4.971-4.911 9.659-8.78 13.878a47.374 47.374 0 01-7.024 6.148 60.461 60.461 0 01-7.764 4.563 44.553 44.553 0 01-8.799 3.415 46.117 46.117 0 01-5.453 1.148 56.64 56.64 0 01-5.637.407h-3.697l-1.017.087a43.372 43.372 0 01-5.99 0 54.935 54.935 0 01-5.138-.712c-3-.561-5.896-1.426-8.614-2.572l-.536-.233-1.257-.276a38.42 38.42 0 01-8.3-3.037c-2.717-1.377-5.122-3.101-7.116-5.101-1.87-1.856-3.452-3.881-4.714-6.031a36.528 36.528 0 01-3.124-7.397 38.144 38.144 0 01-1.552-7.397 46.188 46.188 0 011.016-16.232 32.369 32.369 0 012.865-8.022 32.913 32.913 0 014.843-6.51c3.941-4.047 8.707-7.553 14.104-10.376 5.291-3.057 11.213-5.372 17.505-6.845a35.11 35.11 0 019.15-.465l1.128.087c3.241.274 6.454.73 9.612 1.366 3.167.639 6.26 1.49 9.242 2.543 2.904.972 5.603 2.285 8.004 3.895 2.572 1.732 4.846 3.721 6.766 5.914a79.678 79.678 0 014.917 6.453 46.578 46.578 0 014.27 7.193 37.905 37.905 0 012.551 7.601c.277 1.409.48 2.819.647 4.258zm-48.19 29.558c.462-.189.684-.232 1.368-.596.684-.363 1.441-.537 1.996-1.133.555-.596 1.072-1.206 1.59-1.817a38.321 38.321 0 01-3.18 0 30.561 30.561 0 01-2.569-.16l-.222.102-1.368.596v.421c.167 1.003.259 2.02.444 3.023l1.053-.247zm.24-51.27a36.181 36.181 0 00-4.64 1.831l-.221.117a27.73 27.73 0 0110.499.334 44.835 44.835 0 00-1.96-.872c-1.201-.494-2.421-.988-3.678-1.41zm-12.237 52.215c.666.087 1.257.232 1.849.232-.056-.785-.24-1.569-.24-2.354a18.577 18.577 0 01-5.805-.799c-2.17-.618-4.134-1.611-5.749-2.907-3.736-3.591-5.838-8.062-5.97-12.701a26.554 26.554 0 01.443-7.353c-.277.814-.536 1.497-.757 2.267a33.491 33.491 0 00-.906 4.839 30.58 30.58 0 001.552 5.624 27.676 27.676 0 003.143 5.275 29.189 29.189 0 004.233 3.982 35.88 35.88 0 005.342 2.906c.932.37 1.888.7 2.865.989zm23.272-29.908a17.503 17.503 0 00-.924-4.083 27.208 27.208 0 00-1.386-2.616h-.093l-.184-.102c-.696.417-1.351.873-1.96 1.366a30.733 30.733 0 00-4.603 4.999c-1.626 2.521-2.867 5.185-3.696 7.935a42.78 42.78 0 00-1.424 8.865 28.384 28.384 0 003.161-.465 30.702 30.702 0 012.2-1.933 36.892 36.892 0 013.438-2.384c.61-.77 1.201-1.54 1.738-2.325a32.921 32.921 0 003.475-6.597c.191-.878.278-1.769.258-2.66zm-20.111 3.953c-.81.24-1.704.24-2.514 0a3.195 3.195 0 01-.665-.276v.945c.135 1.503.457 2.992.96 4.446.186.393.407.785.63 1.178.36-2.122.89-4.224 1.589-6.293zm-2.828 18.093c-2.252-.669-4.34-1.637-6.174-2.863-.369-.237-.72-.489-1.054-.756.13.189.26.393.407.581.455.516.961 1.002 1.516 1.454.495.328 1.027.62 1.59.872.819.296 1.665.543 2.532.741.501.069 1.007.117 1.516.145zm-23.291-31.928c1.405-2.296 2.92-4.577 4.621-6.786a50.79 50.79 0 015.324-6.569l.758-.741a57.045 57.045 0 00-5.546 4.011 35.103 35.103 0 00-5.212 5.653 26.817 26.817 0 00-2.866 6.452 44.42 44.42 0 00-1.46 8.72c.24-1.105.555-2.209.906-3.299a33.343 33.343 0 013.475-7.484zm53.772-7.513c5.012 2.018 9.368 4.911 12.736 8.458-.628-.857-1.22-1.686-1.848-2.5a41.968 41.968 0 00-6.488-6.089 46.853 46.853 0 00-7.117-4.083 29.3 29.3 0 00-3.364-1.075 6.292 6.292 0 01-1.183.29 5.828 5.828 0 01-1.516 0l5.841 2.79c.302.159.547.376.712.63.165.255.245.538.231.824.665.218 1.349.45 1.996.712zm88.875-291.153c-.088 3.717-.555 7.416-.906 11.117-.564 5.956-1.66 12.51-3.475 18.05-1.202 3.666-2.9 7.167-4.732 10.564-1.71 3.172-4.112 5.932-5.86 9.083-2.313 4.171-3.719 8.837-6.303 12.846-3.245 5.035-6.93 9.83-11.091 14.14-5.484 5.68-14.855 11.07-21.535 15.157-.602.368-1.296.592-1.848 1.032-.792.631-1.405 1.459-2.144 2.151a934.254 934.254 0 01-9.243 8.516c-1.532 1.397-3.115 2.737-4.639 4.142-1.735 1.599-3.431 3.24-5.139 4.868-1.158 1.104-2.35 2.173-3.457 3.328-1.942 2.027-11.44 12.819-11.885 13.355-3.524 4.246-7.455 8.229-10.315 12.948-2.93 4.834-6.716 13.607-8.115 20.243-.517 2.452-1.007 4.919-1.257 7.412-.238 2.367-.543 4.78-.203 7.135.838 5.812 2.239 11.537 3.715 17.221.513 1.974 1.48 3.802 2.237 5.696 1.03 2.582 2.102 5.147 3.124 7.732.679 1.717 1.288 3.46 1.978 5.173.864 2.146 1.637 2.989 1.774 5.479.03.554-.116 1.165-.462 1.598-.94 1.18-1.924 2.468-3.291 3.107-1.542.72-3.413.306-5.045.788-.939.277-1.586 1.29-2.551 1.453-5.078.853-9.579 1.133-12.94-3.677-2.775-3.971-3.887-8.901-6.34-13.079-.588-1.002-1.796-1.477-2.662-2.252-.07-.062-.055-.303-.13-.247-.412.31-.795.686-1.053 1.133-.077.133.116.286.148.436.018.085-.027.18 0 .262 1.01 3.056 1.92 6.149 3.105 9.141.499 1.259 2.407 3.68 2.5 5.417.096 1.792-.986 3.36-2.452 4.313-1.921 1.25-4.463 1.524-6.64.897-1.043-.3-2.123-.77-2.853-1.574-4.894-5.387-6.226-8.642-8.78-15.157-.673-1.717-1.216-3.483-1.757-5.246a91.128 91.128 0 01-1.478-5.304c-.868-3.592-1.71-8.025-2.255-11.742a581.048 581.048 0 01-1.516-11.059c-.172-1.348-.179-2.716-.407-4.055-.017-.1-.21-.019-.296-.072-1.343-.826-2.994-1.326-3.98-2.556-.856-1.069-1.287-2.558-1.214-3.926.181-3.372 1.185-6.653 1.96-9.94.496-2.105 1.218-4.15 1.848-6.22.233-.765.635-1.489.74-2.281.242-1.837.157-3.703.295-5.551.047-.625.169-1.241.259-1.861.181-1.245.324-2.497.554-3.734.907-4.876 2.79-12.316 4.492-16.146 2.38-5.355 5.098-10.601 8.392-15.447 2.853-4.196 6.491-7.807 9.945-11.524 1.362-1.466 7.428-6.838 9.464-8.604 6.714-5.824 7.557-6.426 15.749-13.064 3.215-2.605 6.477-5.154 9.668-7.789 4.098-3.384 9.798-8.735 13.217-12.004 5.006-4.786 8.844-8.537 13.346-13.239 2.918-3.047 6.346-6.68 8.965-9.882 2.464-3.012 5.204-5.855 7.172-9.213 4.751-8.108 8.59-14.498 9.593-23.252.599-5.231-.318-10.76-1.719-15.738-.675-2.397-2.59-5.213-4.27-7.179a68.581 68.581 0 00-3.179-3.473c-.315-.321-.657-.63-1.054-.843-4.983-2.664-9.953-5.366-15.065-7.775-2.526-1.19-5.163-2.146-7.819-3.008-1.476-.479-3.013-.768-4.547-1.003-2.34-.357-4.697-.644-7.061-.77-4.873-.26-9.536.072-14.381.494-5.228.455-15.192 1.973-18.43 2.892-3.852 1.093-16.37 5.944-21.645 9.054-5.718 3.37-11.638 6.49-16.877 10.565-1.353 1.052-4.52 9.708-4.677 10.55-.983 5.273-1.848 10.621-1.848 15.986 0 4.595 2.98 16.651 4.787 21.071 1.334 3.26 3.101 6.337 4.936 9.344.445.729 1.177 1.245 1.848 1.773.716.563 2.217 1.034 3.013 1.25.125.034.261-.022.389 0 .914.16 1.521.257 2.22.916.26.245.48.55.611.882.124.313.174.666.135 1-.085.74-.56 1.348-1.164 1.745-.34.223-.728.384-1.123.481-1.365.335-3.173-.16-4.34-.504-3.114-.92-4.172-2.05-6.802-4.52-.497-.467-.61-1.362-1.238-1.627-.608-.257-1.3.286-1.96.276a4.053 4.053 0 01-1.467-.326c-.433-.178-.805-.48-1.176-.764-.136-.104-.415-.544-.333-.393.017.031 1.625 2.071 1.421 2.96-.06.266-.33.439-.441.688-.195.44-.208.96-.468 1.365-.284.441-.736.75-1.122 1.105-.057.053-.244.05-.203.117 1.35 2.217 2.907 4.304 4.251 6.525.191.315.314.685.337 1.052.05.79-.328 1.5-.91 2.006-.323.28-.708.498-1.109.647a4.43 4.43 0 01-2.705.107c-.822-.23-1.548-.696-2.008-1.429-2.87-4.566-5.474-9.297-8.41-13.82-.791-1.217-1.987-2.14-2.755-3.372-5.15-8.258-7.403-13.783-8.91-24.196-.78-5.395-.513-10.898-.425-16.349.03-1.81 1.789-6.878.776-5.377a48.313 48.313 0 00-6.34 13.632c-2.342 8.185-2.059 17.587 1.054 25.547 1.438 3.68 3.908 6.874 6.081 10.173 1.46 2.217 3.11 4.308 4.806 6.35 2.288 2.755 4.49 4.91 7.357 6.976 1.635 1.178 3.49 2.047 5.047 3.328 1.46 1.202 2.502 2.252 1.988 4.063-.15.526-.367 1.103-.805 1.43-.965.72-2.049 1.43-3.242 1.59-3.27.436-6.673-2.319-8.847-4.031-7.882-6.205-11.396-9.632-17.284-18.18-2.374-3.448-4.658-7.02-6.266-10.885-1.409-3.386-2.689-6.999-2.699-10.667-.021-7.799.031-15.89 2.607-23.251 2.991-8.552 8.986-15.739 13.734-23.455.946-1.537 2.164-2.892 3.327-4.273 1.796-2.132 3.433-4.442 5.545-6.263 11.06-9.535 18.998-14.969 32.977-19.894 13.792-4.86 21-5.286 34.715-5.813 3.257-.126 6.533.306 9.778 0 6.05-.572 12.004-1.934 18.041-2.63 2.948-.341 5.925-.368 8.891-.48 2.578-.098 13.74-.623 18.097-.073 4.854.612 9.8.937 14.492 2.325 6.178 1.829 12.29 4.119 17.912 7.266 5.422 3.036 10.502 6.796 14.954 11.132 3.426 3.337 5.814 7.609 8.411 11.626 2.793 4.321 5.676 11.42 7.005 16.203 1.794 6.456 1.687 15.51 1.59 19.633zm-80.372 79.026c1.461-1.119 2.902-2.238 4.4-3.313l1.367-.974 4.77-4.999c1.423-1.496 2.809-3.08 4.214-4.534 1.072-1.162 2.2-2.296 3.198-3.487l5.157-6.075a104.074 104.074 0 006.1-7.978c.351-.523.684-1.061 1.017-1.599a105.476 105.476 0 006.192-13.529l-.647.291c-1.238.639-2.477 1.366-3.697 2.092a92.392 92.392 0 01-2.107 3.284l-8.096 11.626c-1.941 2.819-4.048 5.566-6.1 8.342-2.255 3.066-4.437 6.19-6.784 9.228zm-19.353 2.762a85.425 85.425 0 00-1.516 1.976l-7.69 10.478-.406.61-4.27 6.728c-.721 1.134-1.572 2.384-2.145 3.386a169.873 169.873 0 01-1.756 2.98l7.302-4.084c2.575-3.507 5.169-7.004 7.782-10.492l14.788-19.648 3.808-5.101c-1.609 1.439-3.254 2.791-4.917 4.244a3986.07 3986.07 0 01-10.648 8.719zm30.241-142.3c5.295 2.173 10.257 4.816 14.788 7.877 7.126 3.454 13.582 7.697 19.168 12.599a57.72 57.72 0 016.026 6.176 69.052 69.052 0 015.065 6.67c2.923 4.442 5.003 9.196 6.174 14.111a42.036 42.036 0 00-1.017-6.03 58.39 58.39 0 00-2.181-6.918l-2.162-4.825c-1.674-3.715-3.842-7.28-6.47-10.637a46.23 46.23 0 00-4.067-4.258 48.994 48.994 0 00-4.048-3.27c-3.992-2.842-8.369-5.332-13.05-7.426a61.679 61.679 0 00-10.888-3.182c-2.421-.393-4.861-.669-7.338-.887zm-64.124 178.238a65.201 65.201 0 012.514-1.686l2.44-4.752 2.884-5.493a75.613 75.613 0 00-4.012 5.217 70.592 70.592 0 00-3.826 6.714z"/></mask></defs><path fill="#ab5500" d="M6.51 206.66h514.208l-5.453 286.574L188.409 564 10.029 444.769z"/><path fill="url(#a)" d="M188.409 564V206.66H6.51l3.518 238.109z"/><path fill="url(#b)" d="M188.41 206.66V564l326.856-70.766 5.453-286.574z"/><path fill="url(#c)" d="M22.167 266.016a22.302 22.302 0 015.762 7.93 22.264 22.264 0 011.802 9.63c0 7.375-3.166 11.238-7.212 8.78a21.952 21.952 0 01-5.798-7.915 21.914 21.914 0 01-1.767-9.645c0-7.2 3.167-11.063 7.213-8.78zm35.986 25.504a22.617 22.617 0 011.836 9.615c0 7.375-3.167 11.414-7.389 8.956a22.654 22.654 0 01-5.728-7.945 22.616 22.616 0 01-1.836-9.615c0-7.2 3.167-11.238 7.389-8.955a22.652 22.652 0 015.728 7.944zm24.53 9.615a22.828 22.828 0 015.616 7.974c1.275 3.03 1.88 6.3 1.772 9.586 0 7.375-3.166 11.414-7.213 8.956a21.958 21.958 0 01-5.797-7.915 21.917 21.917 0 01-1.767-9.645c0-7.375 3.167-11.414 7.388-9.131zm30.081 17.56a22.127 22.127 0 015.78 7.922 22.087 22.087 0 011.785 9.638c0 7.55-3.342 11.589-7.389 9.131a22.97 22.97 0 01-7.564-17.56c0-7.551 3.342-11.765 7.388-9.307zm30.258 17.56a22.977 22.977 0 017.389 17.559c0 7.551-3.167 11.765-7.389 9.483a23.703 23.703 0 01-7.388-17.56c0-7.551 3.166-11.765 7.388-9.307zm30.258 17.559a23.329 23.329 0 017.389 17.56c0 7.726-3.343 12.116-7.389 9.658a23.19 23.19 0 01-5.68-7.965 23.14 23.14 0 01-1.884-9.595c0-7.726 3.342-11.94 7.564-9.658zM38 328.704a23.36 23.36 0 015.664 7.972 23.317 23.317 0 011.9 9.588c0 7.199-3.167 11.238-7.389 8.604a23.181 23.181 0 01-5.68-7.965 23.144 23.144 0 01-1.884-9.595c0-7.199 3.166-11.238 7.388-8.78zm30.081 17.56a22.645 22.645 0 015.633 7.967 22.613 22.613 0 011.756 9.592c0 7.376-3.167 11.414-7.213 8.78a23.704 23.704 0 01-5.634-7.985 23.667 23.667 0 01-1.93-9.574c0-7.375 3.166-11.239 7.388-8.78zm30.082 17.559a23.008 23.008 0 015.6 7.981 22.967 22.967 0 011.789 9.579c0 7.551-3.167 11.59-7.213 8.956a22.658 22.658 0 01-5.728-7.945 22.615 22.615 0 01-1.836-9.615c0-7.375 3.166-11.414 7.388-8.956zm29.906 17.56a22.653 22.653 0 015.729 7.945 22.617 22.617 0 011.836 9.615c0 7.551-3.343 11.765-7.389 9.131a23.175 23.175 0 01-5.584-7.987 23.136 23.136 0 01-1.804-9.573c0-7.55 3.166-11.589 7.212-9.131zm30.258 17.56a23.712 23.712 0 015.539 8.006 23.665 23.665 0 011.85 9.554c0 7.726-3.343 11.94-7.389 9.482a24.414 24.414 0 01-5.657-8.435 24.36 24.36 0 01-1.731-10.003c0-7.551 3.166-11.765 7.388-9.306zM23.574 370.321a23.342 23.342 0 017.564 17.559c0 7.2-3.166 10.887-7.212 8.253a23.703 23.703 0 01-5.634-7.985 23.668 23.668 0 01-1.93-9.574c0-7.2 3.166-10.887 7.212-8.429zm29.906 18.964a22.655 22.655 0 015.729 7.944 22.62 22.62 0 011.836 9.616c0 7.375-3.167 11.062-7.213 8.428a24.024 24.024 0 01-7.565-17.559c0-7.2 3.167-11.063 7.213-8.429zm30.258 21.072a23.174 23.174 0 015.585 7.987 23.141 23.141 0 011.804 9.572c0 7.375-3.167 11.239-7.213 8.605a23.88 23.88 0 01-5.62-7.992 23.84 23.84 0 01-1.945-9.568c0-7.375 3.167-11.238 7.389-8.604zm29.906 17.559a23.85 23.85 0 017.389 17.56c0 7.551-3.167 11.414-7.213 8.78a24.218 24.218 0 01-7.564-17.56c0-7.55 3.342-11.589 7.388-8.955zm29.906 18.789a24.024 24.024 0 017.389 17.56c0 7.551-3.167 11.765-7.213 9.131a24.554 24.554 0 01-7.564-18.613c0-7.551 3.342-11.59 7.388-8.956zm29.906 18.789a23.501 23.501 0 017.389 18.613c0 7.727-3.167 11.765-7.389 9.131a24.747 24.747 0 01-7.388-17.559c0-7.726 3.342-11.941 7.388-9.307zM39.759 434.765a24.396 24.396 0 017.564 17.559c0 7.375-3.166 11.063-7.213 8.429a25.089 25.089 0 01-7.564-17.56c0-7.199 3.166-10.887 7.213-8.253zm29.906 19.491a24.4 24.4 0 015.48 8.031 24.368 24.368 0 011.908 9.529c0 7.375-3.166 11.238-7.212 8.428a24.397 24.397 0 01-7.565-17.559c0-7.376 3.166-11.063 7.388-8.429zm29.73 19.491a24.4 24.4 0 015.48 8.031 24.36 24.36 0 011.908 9.529c0 7.375-3.166 11.238-7.213 8.604a24.912 24.912 0 01-7.388-17.56c0-7.375 3.167-11.238 7.213-8.604zm29.73 19.491a24.377 24.377 0 017.564 18.438c0 7.726-3.342 11.59-7.388 8.956a25.103 25.103 0 01-7.389-18.614c0-7.55 3.167-11.413 7.213-8.78zm29.906 19.492a24.743 24.743 0 017.388 18.613c0 7.726-3.342 11.765-7.388 9.131a26.13 26.13 0 01-7.389-18.789c0-7.55 3.343-11.589 7.389-8.955zM6.686 217.2v.098l-.176-.098zm0 .098l7.388 4.116c0 7.2-3.166 11.063-7.388 8.78v-12.896zm22.87 12.72l14.952 8.43c0 7.374-3.166 11.237-7.388 8.955a21.602 21.602 0 01-5.834-7.9 21.565 21.565 0 01-1.73-9.66zm45.21 25.813c0 7.375-3.166 11.59-7.388 9.131a22.127 22.127 0 01-5.78-7.922 22.09 22.09 0 01-1.785-9.637c4.926 2.985 10.028 5.619 14.953 8.428zm30.258 17.384c.176 7.551-3.167 11.765-7.389 9.307a22.127 22.127 0 01-5.78-7.922 22.09 22.09 0 01-1.784-9.638zm15.481 8.956l14.777 8.253c.176 7.726-3.167 11.94-7.389 9.658a22.831 22.831 0 01-5.616-7.974 22.788 22.788 0 01-1.772-9.586zm30.258 17.384l14.953 8.429c0 7.55-3.343 11.94-7.565 9.657a23.178 23.178 0 01-5.584-7.987 23.133 23.133 0 01-1.804-9.572zm30.258 17.384l7.388 4.214v14.048a22.995 22.995 0 01-7.388-17.56zm7.388 104.48v28.096a24.406 24.406 0 01-5.694-8.516 24.357 24.357 0 01-1.694-10.098c0-7.726 3.342-11.94 7.564-9.482zm0 113.612v28.095a25.632 25.632 0 01-7.213-18.964c0-7.727 3.167-11.765 7.389-9.131zM9.676 418.083v.51a23.25 23.25 0 00-.351-.334zm0 .51a23.173 23.173 0 015.233 7.653 23.14 23.14 0 011.804 9.572c.176 7.2-2.99 10.887-7.037 8.253v-25.478zm-1.583-79.88v-25.988a23.179 23.179 0 015.68 7.965 23.142 23.142 0 011.885 9.594c0 7.2-3.167 10.887-7.213 8.429z"/><path fill="url(#d)" d="M215.677 356.624a11.102 11.102 0 019.557 2.277 11.048 11.048 0 013.99 8.962 17.537 17.537 0 01-3.648 11.182 17.596 17.596 0 01-9.899 6.377 11.108 11.108 0 01-9.63-2.328 11.045 11.045 0 01-3.916-9.086 17.54 17.54 0 013.974-10.542 17.597 17.597 0 019.572-5.964zm55.063-10.536a11.103 11.103 0 019.63 2.329 11.063 11.063 0 013.915 9.085 17.54 17.54 0 01-4.094 10.481 17.595 17.595 0 01-9.627 5.85 10.92 10.92 0 01-9.632-2.186 10.89 10.89 0 01-3.914-9.052 17.542 17.542 0 014.043-10.588 17.597 17.597 0 019.679-5.919zm55.062-10.36a11.104 11.104 0 019.556 2.276 11.06 11.06 0 013.99 8.962 17.542 17.542 0 01-4.095 10.481 17.595 17.595 0 01-9.627 5.85 10.921 10.921 0 01-9.632-2.186 10.881 10.881 0 01-3.914-9.052 17.548 17.548 0 014.095-10.481 17.598 17.598 0 019.627-5.85zm55.062-10.36a10.752 10.752 0 019.509 2.13 10.704 10.704 0 013.861 8.933 17.536 17.536 0 01-4.095 10.48 17.595 17.595 0 01-9.627 5.85 10.748 10.748 0 01-9.585-2.18 10.696 10.696 0 01-3.784-9.058 17.54 17.54 0 014.146-10.375 17.594 17.594 0 019.575-5.78zm55.063-10.536a10.75 10.75 0 019.509 2.13 10.715 10.715 0 013.005 4.004c.671 1.552.964 3.241.855 4.929a17.533 17.533 0 01-4.146 10.375 17.594 17.594 0 01-9.575 5.78 10.575 10.575 0 01-9.513-1.984 10.53 10.53 0 01-3.857-8.903 17.542 17.542 0 014.095-10.481 17.595 17.595 0 019.627-5.85zm60.027-10.44a10.74 10.74 0 017.486 6.096c.684 1.53.998 3.198.919 4.871a17.543 17.543 0 01-4.216 10.42 17.597 17.597 0 01-9.682 5.735 10.571 10.571 0 01-9.387-2.075 10.528 10.528 0 01-3.807-8.812 17.54 17.54 0 014.147-10.375 17.595 17.595 0 019.575-5.78 10.752 10.752 0 014.965-.08zm-253.01 103.331a11.095 11.095 0 019.556 2.276 11.067 11.067 0 013.99 8.962 17.543 17.543 0 01-3.92 10.649 17.602 17.602 0 01-9.625 6.033 10.922 10.922 0 01-9.632-2.186 10.886 10.886 0 01-3.914-9.052c.09-3.885 1.47-7.63 3.92-10.649a17.601 17.601 0 019.626-6.033zm55.063-10.711a10.923 10.923 0 019.433 2.222 10.874 10.874 0 013.937 8.84 17.538 17.538 0 01-3.974 10.542 17.587 17.587 0 01-9.572 5.964 10.914 10.914 0 01-12.612-6.126 10.871 10.871 0 01-.934-4.936 17.545 17.545 0 014.043-10.588 17.597 17.597 0 019.679-5.918zm54.886-10.887a10.927 10.927 0 019.434 2.221 10.867 10.867 0 013.936 8.841 17.539 17.539 0 01-4.042 10.587 17.597 17.597 0 01-9.679 5.919 10.744 10.744 0 01-9.51-2.13 10.71 10.71 0 01-3.86-8.932 17.544 17.544 0 014.042-10.588 17.6 17.6 0 019.679-5.918zm59.866-10.893a10.384 10.384 0 017.456 6.153c.649 1.552.909 3.239.759 4.915a17.545 17.545 0 01-4.025 10.436 17.604 17.604 0 01-9.521 5.895 10.581 10.581 0 01-4.999.166 10.552 10.552 0 01-7.53-6.132 10.518 10.518 0 01-.841-4.921 17.54 17.54 0 014.095-10.481 17.594 17.594 0 019.627-5.85 10.398 10.398 0 014.979-.181zm49.907-10.706a10.568 10.568 0 0112.354 6.023c.662 1.532.95 3.199.84 4.864a17.54 17.54 0 01-4.146 10.375 17.595 17.595 0 01-9.576 5.78 10.39 10.39 0 01-9.39-1.927 10.354 10.354 0 01-3.803-8.784 17.54 17.54 0 014.094-10.481 17.597 17.597 0 019.627-5.85zM215.501 469.884a10.744 10.744 0 019.635 2.04 10.71 10.71 0 013.911 9.023 17.537 17.537 0 01-3.647 11.182 17.592 17.592 0 01-9.899 6.378 10.919 10.919 0 01-9.632-2.186 10.888 10.888 0 01-3.913-9.053 17.537 17.537 0 013.647-11.182 17.597 17.597 0 019.898-6.377zm54.711-11.238a10.573 10.573 0 019.591 2.032 10.52 10.52 0 013.779 9.031 17.54 17.54 0 01-3.921 10.648 17.59 17.59 0 01-9.625 6.033 10.743 10.743 0 01-9.51-2.13 10.696 10.696 0 01-3.86-8.932 17.537 17.537 0 013.647-11.182 17.592 17.592 0 019.899-6.378zm54.711-11.238a10.753 10.753 0 019.509 2.13 10.71 10.71 0 013.86 8.933 17.545 17.545 0 01-3.973 10.542 17.597 17.597 0 01-9.573 5.964 10.572 10.572 0 01-9.591-2.032 10.521 10.521 0 01-3.778-9.031 17.543 17.543 0 013.973-10.542 17.597 17.597 0 019.573-5.964zm54.71-11.238a10.75 10.75 0 019.434 2.079 10.71 10.71 0 013.936 8.808 17.54 17.54 0 01-4.043 10.587 17.595 17.595 0 01-9.679 5.919 10.75 10.75 0 01-9.434-2.08 10.71 10.71 0 01-3.936-8.807 17.546 17.546 0 014.043-10.587 17.593 17.593 0 019.679-5.919zm54.71-11.063a10.388 10.388 0 0112.547 5.795c.671 1.548.954 3.235.823 4.917a17.542 17.542 0 01-4.094 10.481 17.605 17.605 0 01-9.627 5.849 10.57 10.57 0 01-9.437-1.934 10.537 10.537 0 01-3.933-8.777 17.534 17.534 0 014.095-10.481 17.594 17.594 0 019.626-5.85zm54.711-11.238a10.401 10.401 0 019.391 1.927 10.352 10.352 0 013.803 8.784 17.54 17.54 0 01-4.095 10.481 17.594 17.594 0 01-9.627 5.85 10.568 10.568 0 01-12.29-5.906 10.52 10.52 0 01-.904-4.806 17.55 17.55 0 014.095-10.481 17.601 17.601 0 019.627-5.849zM242.769 520.632a10.743 10.743 0 019.635 2.039 10.713 10.713 0 013.91 9.023 17.539 17.539 0 01-3.647 11.183 17.597 17.597 0 01-9.898 6.377 10.748 10.748 0 01-9.51-2.13 10.71 10.71 0 01-3.86-8.932 17.538 17.538 0 013.578-11.137 17.591 17.591 0 019.792-6.423zm54.71-11.59a10.399 10.399 0 019.469 1.976 10.353 10.353 0 013.725 8.911 17.54 17.54 0 01-3.851 10.604 17.595 17.595 0 01-9.519 6.078 10.395 10.395 0 01-9.598-1.879 10.352 10.352 0 01-3.771-9.008 17.537 17.537 0 013.646-11.182 17.597 17.597 0 019.899-6.378zm59.514-11.77a10.384 10.384 0 017.456 6.153c.649 1.552.909 3.239.759 4.915a17.538 17.538 0 01-3.974 10.542 17.592 17.592 0 01-9.572 5.964 10.39 10.39 0 01-12.547-5.795 10.35 10.35 0 01-.823-4.916 17.544 17.544 0 013.99-10.694 17.6 17.6 0 019.732-5.988 10.398 10.398 0 014.979-.181zm49.555-11.408a10.566 10.566 0 019.312 2.024 10.538 10.538 0 013.882 8.687 17.537 17.537 0 01-3.973 10.542 17.592 17.592 0 01-9.572 5.964 10.389 10.389 0 01-12.547-5.795 10.34 10.34 0 01-.823-4.916 17.539 17.539 0 014.042-10.587 17.597 17.597 0 019.679-5.919zm59.466-11.773a10.37 10.37 0 017.438 6.038c.662 1.529.945 3.195.825 4.857a17.543 17.543 0 01-4.095 10.481 17.592 17.592 0 01-9.627 5.849 10.404 10.404 0 01-9.314-1.877 10.374 10.374 0 01-2.991-3.86 10.364 10.364 0 01-.889-4.799 17.54 17.54 0 014.043-10.587 17.595 17.595 0 019.679-5.919 10.39 10.39 0 014.931-.183zM188.41 318.169l13.546-2.634a17.538 17.538 0 01-3.647 11.182 17.594 17.594 0 01-9.899 6.377zm68.608-11.765a17.542 17.542 0 01-4.025 10.436 17.597 17.597 0 01-9.52 5.894 11.103 11.103 0 01-9.63-2.328 11.064 11.064 0 01-3.916-9.086zm55.238-10.185a17.533 17.533 0 01-4.025 10.436 17.595 17.595 0 01-9.52 5.895 10.927 10.927 0 01-9.709-2.236 10.869 10.869 0 01-3.837-9.178zm55.239-10.185a17.548 17.548 0 01-4.095 10.481 17.598 17.598 0 01-9.627 5.85 10.925 10.925 0 01-9.632-2.186 10.886 10.886 0 01-3.914-9.052zm55.238-10.009a17.546 17.546 0 01-4.146 10.375 17.6 17.6 0 01-9.576 5.78 10.925 10.925 0 01-9.631-2.185 10.89 10.89 0 01-3.043-4.06 10.86 10.86 0 01-.871-4.993zm55.238-10.184a17.543 17.543 0 01-4.216 10.42 17.594 17.594 0 01-9.682 5.735 10.923 10.923 0 01-9.433-2.222 10.866 10.866 0 01-3.936-8.84zm27.795-5.093l13.546-2.458v13.521a10.75 10.75 0 01-9.509-2.13 10.7 10.7 0 01-3.861-8.932zm11.963 93.067c-.177.037-.353.078-.528.12v-.12zm-.528.12v26.746a10.575 10.575 0 01-9.437-1.934 10.537 10.537 0 01-3.933-8.777 17.54 17.54 0 014.216-10.42 17.594 17.594 0 019.154-5.614zm-1.583 108.75c-.177.04-.353.082-.528.127v-.127zm-.528.127v26.739a10.404 10.404 0 01-9.314-1.877 10.364 10.364 0 01-2.991-3.86 10.338 10.338 0 01-.889-4.799 17.537 17.537 0 014.095-10.481 17.59 17.59 0 019.099-5.722zm-326.68 69.585a10.747 10.747 0 019.51 2.13 10.71 10.71 0 013.86 8.932 17.538 17.538 0 01-3.578 11.137 17.592 17.592 0 01-9.792 6.423zm0-113.963a10.744 10.744 0 019.586 2.181 10.704 10.704 0 013.784 9.058 17.537 17.537 0 01-3.578 11.136 17.592 17.592 0 01-9.792 6.423z" opacity=".75"/><path fill="url(#e)" d="M7.04 241.426V217.72l181.723 101.144v43.372C176.625 321.147 42.048 231.592 7.392 241.426z" opacity=".4"/><path fill="url(#f)" d="M188.418 362.235c31.137-55.313 262.645-96.403 331.078-83.935v-32.31L187.89 312.892v49.343z" opacity=".75"/><path fill="#ab5500" d="M2.471 215.438L186.13 319.391l338.29-61.985 1.583-92.189L1.24 124.83z"/><path fill="url(#g)" d="M1.24 124.83l184.89 99.564v94.997L2.471 215.438z"/><path fill="url(#h)" d="M186.13 224.396l339.874-59.176-1.584 92.188-338.29 61.986z"/><path fill="url(#i)" d="M1.24 124.837L186.13 224.4l339.873-59.176L326.688 72.86z"/><path fill="url(#j)" d="M225.182 304.995a43.492 43.492 0 01-7.732-25.515 43.497 43.497 0 018.612-25.232c25.156-28.447 244.35-81.653 280.061-66.903 15.833 6.497 18.999 37.402 17.592 52.68a34.043 34.043 0 01-8.444 19.14l9.5-1.757 1.583-92.188-339.874 59.176v94.998l49.257-9.131a21.829 21.829 0 01-10.203-4.741z" opacity=".2"/><path fill="url(#k)" d="M11.963 215.092c-4.574-12.116-9.148-43.02 0-53.732 15.657-17.56 57.877 5.443 72.654 12.818 25.684 12.819 70.367 39.685 83.913 65.147a89.948 89.948 0 018.444 25.988c1.759 9.834 0 35.12-10.907 38.983-1.86.355-3.77.355-5.629 0l25.332 14.399v-94.296L.88 124.66l1.232 90.608 14.073 8.077a31.766 31.766 0 01-4.574-8.253z" opacity=".5"/><path fill="url(#l)" d="M51.904 127.82a52.805 52.805 0 0130.082-15.98L1.24 124.659l184.89 99.739 339.873-59.879-48.025-22.3c4.75 9.833-2.463 17.559-20.582 23.705a1180.625 1180.625 0 01-237.666 39.334c-11.049.53-22.124 0-33.072-1.58a296.168 296.168 0 01-121.032-52.68c-12.842-9.306-17.592-17.56-13.722-23.53z" opacity=".3"/><path fill="url(#m)" d="M51.728 132.737a41.765 41.765 0 0121.11 1.932c4.223 2.283 1.584 5.092-5.805 6.321a39.825 39.825 0 01-21.11-1.931c-4.222-2.283-1.583-5.092 5.805-6.322zm54.535-8.78a41.764 41.764 0 0121.11 1.932c4.398 2.107 1.935 4.917-5.629 6.146a42.823 42.823 0 01-21.286-1.756c-4.222-2.283-1.584-5.092 5.805-6.322zm54.535-8.78a42.82 42.82 0 0121.286 1.757c4.398 2.282 1.759 5.092-5.63 6.146a40.707 40.707 0 01-21.286-1.756c-4.398-2.108-1.935-4.917 5.63-6.146zm54.534-8.78a42.822 42.822 0 0121.286 1.757c4.398 2.107 1.936 4.917-5.453 6.146a43.527 43.527 0 01-21.462-1.756c-4.398-2.107-1.935-4.917 5.629-6.146zm54.359-8.779a42.118 42.118 0 0121.638 1.756c4.398 2.107 2.111 4.741-5.454 5.97a41.412 41.412 0 01-21.462-1.756c-4.397-2.107-2.11-4.74 5.278-5.97zm54.535-8.78a44.405 44.405 0 0121.637 1.58c4.574 2.108 2.112 4.742-5.277 5.97a44.761 44.761 0 01-21.638-1.58c-4.398-2.107-2.111-4.74 5.278-5.97zm-214.093 56.016a40.535 40.535 0 0121.287 1.755c4.397 2.283 1.759 5.093-5.806 6.322a42.47 42.47 0 01-21.286-1.756c-4.222-2.283-1.583-5.092 5.805-6.322zm55.063-8.956a40.884 40.884 0 0121.286 1.756c4.222 2.107 1.759 4.917-5.806 6.146a40.531 40.531 0 01-21.286-1.756c-4.398-2.283-1.759-4.917 5.806-6.146zm54.886-9.13a43.526 43.526 0 0121.462 1.755c4.398 2.107 1.759 4.917-5.629 6.146a44.407 44.407 0 01-21.638-1.58c-4.222-2.283-1.759-5.093 5.805-6.322zm54.886-8.956a43.88 43.88 0 0121.462 1.58c4.574 2.283 1.936 4.917-5.453 6.146a44.41 44.41 0 01-21.638-1.58c-4.398-2.108-1.935-4.917 5.629-6.146zm54.887-8.956a44.408 44.408 0 0121.638 1.58c4.574 2.108 2.111 4.742-5.454 6.146a44.41 44.41 0 01-21.638-1.755c-4.574-2.108-1.935-4.742 5.454-5.97zM113.828 165.75a40.53 40.53 0 0121.286 1.931c4.222 2.107 1.583 5.092-6.157 6.322a42.475 42.475 0 01-21.287-1.756c-4.222-2.283-1.407-5.093 6.158-6.497zm61.923 33.89a40.881 40.881 0 0121.462 1.756c4.398 2.283 1.583 5.092-6.157 6.497a41.232 41.232 0 01-21.462-1.756c-4.222-2.283-1.408-5.092 6.157-6.497zm-6.685-42.143a41.413 41.413 0 0121.462 1.755c4.222 2.283 1.583 5.093-5.981 6.322a41.235 41.235 0 01-21.462-1.756c-4.223-2.283-1.584-5.092 5.981-6.322zm62.803 32.661a40.168 40.168 0 0121.637 1.58c4.398 2.283 1.584 5.092-6.157 6.321a40.522 40.522 0 01-21.637-1.58c-4.222-2.283-1.408-5.092 6.157-6.321zm-7.565-43.197a42.293 42.293 0 0121.638 1.58c4.398 2.283 1.759 5.092-5.805 6.322a42.117 42.117 0 01-21.638-1.756c-4.222-2.108-1.583-4.917 5.805-6.146zm63.682 32.134a42.825 42.825 0 0121.814 1.58c4.398 2.108 1.583 5.093-5.981 6.322a41.053 41.053 0 01-21.814-1.581c-4.222-2.107-1.583-5.092 5.981-6.321zm-8.268-41.44a42.118 42.118 0 0121.638 1.755c4.398 2.107 1.935 4.917-5.805 6.146a42.117 42.117 0 01-21.638-1.756c-4.222-2.107-1.759-4.917 5.805-6.146zm64.562 31.782a44.057 44.057 0 0121.638 1.58c4.574 2.108 1.759 4.917-5.805 6.322a44.936 44.936 0 01-21.814-1.58c-4.398-2.108-1.759-4.917 5.981-6.322zm-9.323-40.036a45.11 45.11 0 0121.813 1.58c4.398 2.108 1.935 4.917-5.629 6.146a45.29 45.29 0 01-21.814-1.58c-4.398-2.107-1.935-4.917 5.63-6.146zm65.265 31.432a43.704 43.704 0 0121.99 1.405c4.574 2.107 1.759 4.916-5.805 6.321a45.82 45.82 0 01-21.99-1.58c-4.398-2.107-1.759-4.917 5.805-6.146zm-9.851-40.739a45.292 45.292 0 0121.814 1.58c4.573 2.108 2.111 4.917-5.454 6.147a45.996 45.996 0 01-21.99-1.58c-4.398-2.108-1.935-4.917 5.63-6.147zm65.969 31.081a44.586 44.586 0 0122.166 1.405c4.398 2.107 1.935 4.916-5.806 6.146a43.876 43.876 0 01-21.989-1.405c-4.398-2.107-1.936-4.917 5.629-6.146zm-283.756 26.866a41.417 41.417 0 0121.462 1.581c4.222 2.283 1.583 5.092-5.981 6.497a41.066 41.066 0 01-21.462-1.756c-4.222-2.283-1.583-5.092 5.981-6.322zm55.766-9.482a44.408 44.408 0 0121.638 1.58c4.222 2.283 1.583 5.093-5.981 6.322a40.181 40.181 0 01-21.638-1.58c-4.222-2.283-1.583-5.093 5.981-6.322zm55.766-9.482a42.117 42.117 0 0121.638 1.756c4.398 2.107 1.759 4.917-5.805 6.146a41.061 41.061 0 01-21.814-1.58c-4.222-2.108-1.759-4.917 5.981-6.322zm55.59-9.307a44.938 44.938 0 0121.814 1.58c4.398 2.108 1.935 4.917-5.805 6.146a40.531 40.531 0 01-21.638-1.58c-4.398-2.107-1.935-4.916 5.629-6.146zm55.766-9.482a45.996 45.996 0 0121.99 1.58c4.398 2.108 1.935 4.917-5.805 6.146a43.175 43.175 0 01-21.814-1.053c-4.398-2.283-1.935-4.917 5.629-6.322zm-216.907 80.248a42.29 42.29 0 0121.638 1.58l-14.073 2.459zm78.108-8.253l-27.971 4.917c-4.222-2.283-1.407-5.093 6.333-6.498a43.883 43.883 0 0121.638 1.581zm56.646-9.834l-27.971 4.917c-4.222-2.283-1.408-5.092 6.157-6.497a44.588 44.588 0 0121.814 1.58zm56.645-9.833l-27.971 4.917c-4.222-2.108-1.583-5.093 6.157-6.322a43 43 0 0121.814 1.405zm34.832-11.941a43.707 43.707 0 0121.99 1.405l-28.147 5.619c-4.398-2.107-1.759-5.092 5.981-6.321zm78.46-7.726l-27.796 4.917c-4.573-2.107-1.935-4.917 5.806-6.322a43.88 43.88 0 0121.99 1.405zm42.747-7.375l-14.073 2.458c-4.574-2.107-1.935-4.916 5.805-6.321zM14.61 122.904c4.222 2.283 1.583 5.092-5.63 6.321l-7.74-4.214zm54.183-8.604c4.221 2.282 1.759 4.916-5.63 6.146a39.825 39.825 0 01-21.11-1.932zm54.182-8.605c4.398 2.108 1.935 4.917-5.453 6.146a41.765 41.765 0 01-21.11-1.931zm54.359-8.78c4.398 2.283 1.759 4.917-5.454 6.146a42.465 42.465 0 01-21.285-1.756zm54.183-8.604c4.398 2.107 1.935 4.917-5.454 5.97a40.883 40.883 0 01-21.286-1.755zm54.182-8.604c4.398 2.107 2.111 4.741-5.277 5.97a43.527 43.527 0 01-21.462-1.756zm40.814-6.497l8.268 3.688a44.585 44.585 0 01-21.638-1.58zm74.589 34.593a44.584 44.584 0 01-21.638-1.58c-4.574-2.108-2.111-4.917 5.453-6.147zm66.497 30.73a46.172 46.172 0 01-21.99-1.406c-4.398-2.107-1.935-4.916 5.629-6.146zm-350.605 48.815a40.532 40.532 0 0121.286 1.756c4.222 2.283 1.408 5.092-6.157 6.497zM55.247 154.16a40.354 40.354 0 0121.286 1.932c4.046 2.282 1.407 5.092-5.981 6.321z"/><path fill="url(#n)" d="M214.445 261.625a11.456 11.456 0 019.731 2.332 11.413 11.413 0 014.166 9.082 17.54 17.54 0 01-4.233 10.572 17.597 17.597 0 01-9.84 5.758 11.272 11.272 0 01-9.73-2.191 11.242 11.242 0 01-4.167-9.047 17.543 17.543 0 014.18-10.679 17.598 17.598 0 019.893-5.827zm56.47-10.009a11.28 11.28 0 019.73 2.192 11.24 11.24 0 014.167 9.046 17.543 17.543 0 01-4.233 10.573 17.597 17.597 0 01-9.84 5.758 11.286 11.286 0 01-9.73-2.192 11.222 11.222 0 01-4.167-9.046 17.543 17.543 0 014.233-10.573 17.598 17.598 0 019.84-5.758zm56.469-10.009a11.28 11.28 0 019.731 2.192 11.235 11.235 0 014.167 9.046 17.547 17.547 0 01-4.285 10.466 17.596 17.596 0 01-9.789 5.689 11.27 11.27 0 01-12.872-6.229 11.221 11.221 0 01-1.025-5.009 17.541 17.541 0 014.285-10.466 17.6 17.6 0 019.788-5.689zm56.47-10.009a11.102 11.102 0 019.731 2.05 11.062 11.062 0 014.167 9.014 17.543 17.543 0 01-4.286 10.465 17.596 17.596 0 01-9.788 5.689 11.275 11.275 0 01-9.659-2.139 11.232 11.232 0 01-4.239-8.924 17.543 17.543 0 014.286-10.466 17.597 17.597 0 019.788-5.689zm56.646-10.185a11.101 11.101 0 019.607 2.138 11.045 11.045 0 014.114 8.925 17.537 17.537 0 01-4.354 10.512 17.6 17.6 0 01-9.895 5.643 11.102 11.102 0 01-9.607-2.137 11.059 11.059 0 01-4.115-8.925 17.55 17.55 0 014.354-10.513 17.6 17.6 0 019.896-5.643zm56.469-10.009a10.928 10.928 0 019.682 2.046 10.887 10.887 0 014.04 9.017 17.541 17.541 0 01-4.406 10.406 17.598 17.598 0 01-9.843 5.573 10.927 10.927 0 01-9.682-2.045 10.865 10.865 0 01-4.04-9.018 17.541 17.541 0 014.406-10.405 17.598 17.598 0 019.843-5.574zm29.027-46.884l-.352.057v-.057zm-.352.057v13.464a11.101 11.101 0 01-9.68-2.19 11.057 11.057 0 01-4.042-9.048zm-61.556 23.434a10.913 10.913 0 01-7.699-6.207 10.865 10.865 0 01-.936-4.992l27.795-4.917a17.547 17.547 0 01-4.336 10.36 17.602 17.602 0 01-9.738 5.62 10.924 10.924 0 01-5.086.136zm-51.383 10.224a11.105 11.105 0 01-9.68-2.19 11.057 11.057 0 01-4.042-9.049l27.795-4.916a17.54 17.54 0 01-4.456 10.299 17.602 17.602 0 01-9.793 5.504zm-61.416 10.223a11.277 11.277 0 01-4.609-2.23 11.233 11.233 0 01-4.167-9.047l27.971-4.917a17.541 17.541 0 01-4.285 10.466 17.596 17.596 0 01-9.788 5.69 11.28 11.28 0 01-5.122.038zm-56.636 9.931a11.264 11.264 0 01-7.649-6.363 11.22 11.22 0 01-.96-5.012l27.795-4.916a17.541 17.541 0 01-4.234 10.572 17.596 17.596 0 01-9.84 5.758 11.28 11.28 0 01-5.112-.039zm-56.524 9.904a11.266 11.266 0 01-7.767-6.379 11.22 11.22 0 01-.964-5.066l27.795-4.917a17.541 17.541 0 01-4.164 10.527 17.598 17.598 0 01-9.733 5.804 11.28 11.28 0 01-5.167.03zm-51.479-4.07l14.073-2.458a17.541 17.541 0 01-4.18 10.679 17.597 17.597 0 01-9.893 5.827z" opacity=".75"/><path fill="url(#o)" d="M24.813 164.517c0-7.2 3.167-11.413 7.389-9.13a21.601 21.601 0 015.93 7.874 21.565 21.565 0 011.81 9.685c0 7.375-3.167 11.414-7.389 9.131a21.601 21.601 0 01-5.93-7.875 21.564 21.564 0 01-1.81-9.685zm30.962 44.075c0-7.375 3.342-11.59 7.564-9.307a22.127 22.127 0 015.78 7.923 22.091 22.091 0 011.785 9.637c0 7.375-3.167 11.59-7.389 9.307a22.307 22.307 0 01-5.859-7.907 22.265 22.265 0 01-1.881-9.653zm30.61-10.36c0-7.55 3.166-11.765 7.388-9.482a21.776 21.776 0 015.912 7.883 21.737 21.737 0 011.828 9.676c0 7.551-3.342 11.765-7.564 9.483a21.95 21.95 0 01-5.798-7.915 21.915 21.915 0 01-1.767-9.645zm61.395 33.715c0-7.727 3.342-11.941 7.564-9.658a22.125 22.125 0 017.741 17.559c0 7.551-3.519 11.941-7.565 9.658a22.121 22.121 0 01-5.876-7.899 22.081 22.081 0 01-1.864-9.66zm-23.045 1.229a22.127 22.127 0 015.779 7.922 22.097 22.097 0 011.785 9.637c0 7.551-3.343 11.765-7.389 9.483a22.141 22.141 0 01-5.876-7.899 22.088 22.088 0 01-1.864-9.661c0-7.551 3.342-11.765 7.565-9.482zm61.395 61.107a22.118 22.118 0 01-7.565-17.559c0-7.551 3.343-11.941 7.565-9.658zm-7.565-74.277l7.565 4.039v14.047a22.118 22.118 0 01-7.565-17.56zM9.156 181.9c.176 7.375-3.166 11.414-7.388 9.131v-26.515a21.251 21.251 0 015.969 7.858 21.213 21.213 0 011.771 9.702zM1.24 137.475V124.13l7.74 4.214c0 7.2-3.342 11.414-7.564 9.131zM163.085 296.04a13.505 13.505 0 01-2.639 8.956l-9.852-5.619a29.627 29.627 0 01-2.638-11.941c0-7.551 3.342-11.94 7.564-9.482a22.118 22.118 0 017.565 17.56zm-61.22-35.295a12.8 12.8 0 01-2.639 8.78l-9.85-5.619a28.225 28.225 0 01-2.64-11.765c-.176-7.375 3.167-11.589 7.389-9.306a22.474 22.474 0 015.841 7.914 22.44 22.44 0 011.899 9.645zm-61.74-30.832a11.768 11.768 0 01-2.118 4.142l-9.852-5.619a31.213 31.213 0 01-2.814-11.59c0-7.375 3.342-11.414 7.564-9.13a22.128 22.128 0 015.78 7.921 22.09 22.09 0 011.785 9.638c.195 1.553.078 3.13-.345 4.638zm30.427-69.258c0 7.375-3.343 11.59-7.565 9.307a22.655 22.655 0 01-5.824-7.922 22.616 22.616 0 01-1.916-9.638zm46.442 24.76l15.129 8.252c0 7.551-3.342 11.765-7.564 9.483a21.58 21.58 0 01-7.565-17.56z"/><path fill="url(#p)" d="M73.19 163.46c19.527 11.414 102.56 58.825 107.134 63.917 4.574 5.093 4.75 25.462 5.806 73.575a576.354 576.354 0 016.332-72.17c4.75-3.687 277.423-52.679 316.653-60.58-58.229 9.306-313.134 50.571-321.93 50.747-13.546-2.283-86.728-41.968-113.995-55.489z" opacity=".5"/><path fill="url(#q)" d="M41.17 459.695a64.52 64.52 0 01-20.607-18.577A64.383 64.383 0 019.68 415.62v28.974l178.381 119.405v-33.012c-3.518 9.131-16.36 10.009-26.739 5.444a834.763 834.763 0 01-120.504-76.736z" opacity=".5"/><path fill="url(#r)" d="M188.412 530.985v33.012l326.856-70.239V445.82c-4.926 19.14-14.426 30.203-42.045 42.67a957.716 957.716 0 01-222.36 54.786c-28.675 2.985-58.405 2.459-62.803-12.291z"/><g filter="url(#s)"><path fill="none" d="M311.617 383.265a30.153 30.153 0 010 4.272 27.832 27.832 0 01-2.108 7.978c-1.945 4.971-4.911 9.659-8.78 13.878a47.374 47.374 0 01-7.024 6.148 60.461 60.461 0 01-7.764 4.563 44.553 44.553 0 01-8.799 3.415 46.117 46.117 0 01-5.453 1.148 56.64 56.64 0 01-5.637.407h-3.697l-1.017.087a43.372 43.372 0 01-5.99 0 54.935 54.935 0 01-5.138-.712c-3-.561-5.896-1.426-8.614-2.572l-.536-.233-1.257-.276a38.42 38.42 0 01-8.3-3.037c-2.717-1.377-5.122-3.101-7.116-5.101-1.87-1.856-3.452-3.881-4.714-6.031a36.528 36.528 0 01-3.124-7.397 38.144 38.144 0 01-1.552-7.397 46.188 46.188 0 011.016-16.232 32.369 32.369 0 012.865-8.022 32.913 32.913 0 014.843-6.51c3.941-4.047 8.707-7.553 14.104-10.376 5.291-3.057 11.213-5.372 17.505-6.845a35.11 35.11 0 019.15-.465l1.128.087c3.241.274 6.454.73 9.612 1.366 3.167.639 6.26 1.49 9.242 2.543 2.904.972 5.603 2.285 8.004 3.895 2.572 1.732 4.846 3.721 6.766 5.914a79.678 79.678 0 014.917 6.453 46.578 46.578 0 014.27 7.193 37.905 37.905 0 012.551 7.601c.277 1.409.48 2.819.647 4.258zm-48.19 29.558c.462-.189.684-.232 1.368-.596.684-.363 1.441-.537 1.996-1.133.555-.596 1.072-1.206 1.59-1.817a38.321 38.321 0 01-3.18 0 30.561 30.561 0 01-2.569-.16l-.222.102-1.368.596v.421c.167 1.003.259 2.02.444 3.023l1.053-.247zm.24-51.27a36.181 36.181 0 00-4.64 1.831l-.221.117a27.73 27.73 0 0110.499.334 44.835 44.835 0 00-1.96-.872c-1.201-.494-2.421-.988-3.678-1.41zm-12.237 52.215c.666.087 1.257.232 1.849.232-.056-.785-.24-1.569-.24-2.354a18.577 18.577 0 01-5.805-.799c-2.17-.618-4.134-1.611-5.749-2.907-3.736-3.591-5.838-8.062-5.97-12.701a26.554 26.554 0 01.443-7.353c-.277.814-.536 1.497-.757 2.267a33.491 33.491 0 00-.906 4.839 30.58 30.58 0 001.552 5.624 27.676 27.676 0 003.143 5.275 29.189 29.189 0 004.233 3.982 35.88 35.88 0 005.342 2.906c.932.37 1.888.7 2.865.989zm23.272-29.908a17.503 17.503 0 00-.924-4.083 27.208 27.208 0 00-1.386-2.616h-.093l-.184-.102c-.696.417-1.351.873-1.96 1.366a30.733 30.733 0 00-4.603 4.999c-1.626 2.521-2.867 5.185-3.696 7.935a42.78 42.78 0 00-1.424 8.865 28.384 28.384 0 003.161-.465 30.702 30.702 0 012.2-1.933 36.892 36.892 0 013.438-2.384c.61-.77 1.201-1.54 1.738-2.325a32.921 32.921 0 003.475-6.597c.191-.878.278-1.769.258-2.66zm-20.111 3.953c-.81.24-1.704.24-2.514 0a3.195 3.195 0 01-.665-.276v.945c.135 1.503.457 2.992.96 4.446.186.393.407.785.63 1.178.36-2.122.89-4.224 1.589-6.293zm-2.828 18.093c-2.252-.669-4.34-1.637-6.174-2.863-.369-.237-.72-.489-1.054-.756.13.189.26.393.407.581.455.516.961 1.002 1.516 1.454.495.328 1.027.62 1.59.872.819.296 1.665.543 2.532.741.501.069 1.007.117 1.516.145zm-23.291-31.928c1.405-2.296 2.92-4.577 4.621-6.786a50.79 50.79 0 015.324-6.569l.758-.741a57.045 57.045 0 00-5.546 4.011 35.103 35.103 0 00-5.212 5.653 26.817 26.817 0 00-2.866 6.452 44.42 44.42 0 00-1.46 8.72c.24-1.105.555-2.209.906-3.299a33.343 33.343 0 013.475-7.484zm53.772-7.513c5.012 2.018 9.368 4.911 12.736 8.458-.628-.857-1.22-1.686-1.848-2.5a41.968 41.968 0 00-6.488-6.089 46.853 46.853 0 00-7.117-4.083 29.3 29.3 0 00-3.364-1.075 6.292 6.292 0 01-1.183.29 5.828 5.828 0 01-1.516 0l5.841 2.79c.302.159.547.376.712.63.165.255.245.538.231.824.665.218 1.349.45 1.996.712zm88.875-291.153c-.088 3.717-.555 7.416-.906 11.117-.564 5.956-1.66 12.51-3.475 18.05-1.202 3.666-2.9 7.167-4.732 10.564-1.71 3.172-4.112 5.932-5.86 9.083-2.313 4.171-3.719 8.837-6.303 12.846-3.245 5.035-6.93 9.83-11.091 14.14-5.484 5.68-14.855 11.07-21.535 15.157-.602.368-1.296.592-1.848 1.032-.792.631-1.405 1.459-2.144 2.151a934.254 934.254 0 01-9.243 8.516c-1.532 1.397-3.115 2.737-4.639 4.142-1.735 1.599-3.431 3.24-5.139 4.868-1.158 1.104-2.35 2.173-3.457 3.328-1.942 2.027-11.44 12.819-11.885 13.355-3.524 4.246-7.455 8.229-10.315 12.948-2.93 4.834-6.716 13.607-8.115 20.243-.517 2.452-1.007 4.919-1.257 7.412-.238 2.367-.543 4.78-.203 7.135.838 5.812 2.239 11.537 3.715 17.221.513 1.974 1.48 3.802 2.237 5.696 1.03 2.582 2.102 5.147 3.124 7.732.679 1.717 1.288 3.46 1.978 5.173.864 2.146 1.637 2.989 1.774 5.479.03.554-.116 1.165-.462 1.598-.94 1.18-1.924 2.468-3.291 3.107-1.542.72-3.413.306-5.045.788-.939.277-1.586 1.29-2.551 1.453-5.078.853-9.579 1.133-12.94-3.677-2.775-3.971-3.887-8.901-6.34-13.079-.588-1.002-1.796-1.477-2.662-2.252-.07-.062-.055-.303-.13-.247-.412.31-.795.686-1.053 1.133-.077.133.116.286.148.436.018.085-.027.18 0 .262 1.01 3.056 1.92 6.149 3.105 9.141.499 1.259 2.407 3.68 2.5 5.417.096 1.792-.986 3.36-2.452 4.313-1.921 1.25-4.463 1.524-6.64.897-1.043-.3-2.123-.77-2.853-1.574-4.894-5.387-6.226-8.642-8.78-15.157-.673-1.717-1.216-3.483-1.757-5.246a91.128 91.128 0 01-1.478-5.304c-.868-3.592-1.71-8.025-2.255-11.742a581.048 581.048 0 01-1.516-11.059c-.172-1.348-.179-2.716-.407-4.055-.017-.1-.21-.019-.296-.072-1.343-.826-2.994-1.326-3.98-2.556-.856-1.069-1.287-2.558-1.214-3.926.181-3.372 1.185-6.653 1.96-9.94.496-2.105 1.218-4.15 1.848-6.22.233-.765.635-1.489.74-2.281.242-1.837.157-3.703.295-5.551.047-.625.169-1.241.259-1.861.181-1.245.324-2.497.554-3.734.907-4.876 2.79-12.316 4.492-16.146 2.38-5.355 5.098-10.601 8.392-15.447 2.853-4.196 6.491-7.807 9.945-11.524 1.362-1.466 7.428-6.838 9.464-8.604 6.714-5.824 7.557-6.426 15.749-13.064 3.215-2.605 6.477-5.154 9.668-7.789 4.098-3.384 9.798-8.735 13.217-12.004 5.006-4.786 8.844-8.537 13.346-13.239 2.918-3.047 6.346-6.68 8.965-9.882 2.464-3.012 5.204-5.855 7.172-9.213 4.751-8.108 8.59-14.498 9.593-23.252.599-5.231-.318-10.76-1.719-15.738-.675-2.397-2.59-5.213-4.27-7.179a68.581 68.581 0 00-3.179-3.473c-.315-.321-.657-.63-1.054-.843-4.983-2.664-9.953-5.366-15.065-7.775-2.526-1.19-5.163-2.146-7.819-3.008-1.476-.479-3.013-.768-4.547-1.003-2.34-.357-4.697-.644-7.061-.77-4.873-.26-9.536.072-14.381.494-5.228.455-15.192 1.973-18.43 2.892-3.852 1.093-16.37 5.944-21.645 9.054-5.718 3.37-11.638 6.49-16.877 10.565-1.353 1.052-4.52 9.708-4.677 10.55-.983 5.273-1.848 10.621-1.848 15.986 0 4.595 2.98 16.651 4.787 21.071 1.334 3.26 3.101 6.337 4.936 9.344.445.729 1.177 1.245 1.848 1.773.716.563 2.217 1.034 3.013 1.25.125.034.261-.022.389 0 .914.16 1.521.257 2.22.916.26.245.48.55.611.882.124.313.174.666.135 1-.085.74-.56 1.348-1.164 1.745-.34.223-.728.384-1.123.481-1.365.335-3.173-.16-4.34-.504-3.114-.92-4.172-2.05-6.802-4.52-.497-.467-.61-1.362-1.238-1.627-.608-.257-1.3.286-1.96.276a4.053 4.053 0 01-1.467-.326c-.433-.178-.805-.48-1.176-.764-.136-.104-.415-.544-.333-.393.017.031 1.625 2.071 1.421 2.96-.06.266-.33.439-.441.688-.195.44-.208.96-.468 1.365-.284.441-.736.75-1.122 1.105-.057.053-.244.05-.203.117 1.35 2.217 2.907 4.304 4.251 6.525.191.315.314.685.337 1.052.05.79-.328 1.5-.91 2.006-.323.28-.708.498-1.109.647a4.43 4.43 0 01-2.705.107c-.822-.23-1.548-.696-2.008-1.429-2.87-4.566-5.474-9.297-8.41-13.82-.791-1.217-1.987-2.14-2.755-3.372-5.15-8.258-7.403-13.783-8.91-24.196-.78-5.395-.513-10.898-.425-16.349.03-1.81 1.789-6.878.776-5.377a48.313 48.313 0 00-6.34 13.632c-2.342 8.185-2.059 17.587 1.054 25.547 1.438 3.68 3.908 6.874 6.081 10.173 1.46 2.217 3.11 4.308 4.806 6.35 2.288 2.755 4.49 4.91 7.357 6.976 1.635 1.178 3.49 2.047 5.047 3.328 1.46 1.202 2.502 2.252 1.988 4.063-.15.526-.367 1.103-.805 1.43-.965.72-2.049 1.43-3.242 1.59-3.27.436-6.673-2.319-8.847-4.031-7.882-6.205-11.396-9.632-17.284-18.18-2.374-3.448-4.658-7.02-6.266-10.885-1.409-3.386-2.689-6.999-2.699-10.667-.021-7.799.031-15.89 2.607-23.251 2.991-8.552 8.986-15.739 13.734-23.455.946-1.537 2.164-2.892 3.327-4.273 1.796-2.132 3.433-4.442 5.545-6.263 11.06-9.535 18.998-14.969 32.977-19.894 13.792-4.86 21-5.286 34.715-5.813 3.257-.126 6.533.306 9.778 0 6.05-.572 12.004-1.934 18.041-2.63 2.948-.341 5.925-.368 8.891-.48 2.578-.098 13.74-.623 18.097-.073 4.854.612 9.8.937 14.492 2.325 6.178 1.829 12.29 4.119 17.912 7.266 5.422 3.036 10.502 6.796 14.954 11.132 3.426 3.337 5.814 7.609 8.411 11.626 2.793 4.321 5.676 11.42 7.005 16.203 1.794 6.456 1.687 15.51 1.59 19.633zm-80.372 79.026c1.461-1.119 2.902-2.238 4.4-3.313l1.367-.974 4.77-4.999c1.423-1.496 2.809-3.08 4.214-4.534 1.072-1.162 2.2-2.296 3.198-3.487l5.157-6.075a104.074 104.074 0 006.1-7.978c.351-.523.684-1.061 1.017-1.599a105.476 105.476 0 006.192-13.529l-.647.291c-1.238.639-2.477 1.366-3.697 2.092a92.392 92.392 0 01-2.107 3.284l-8.096 11.626c-1.941 2.819-4.048 5.566-6.1 8.342-2.255 3.066-4.437 6.19-6.784 9.228zm-19.353 2.762a85.425 85.425 0 00-1.516 1.976l-7.69 10.478-.406.61-4.27 6.728c-.721 1.134-1.572 2.384-2.145 3.386a169.873 169.873 0 01-1.756 2.98l7.302-4.084c2.575-3.507 5.169-7.004 7.782-10.492l14.788-19.648 3.808-5.101c-1.609 1.439-3.254 2.791-4.917 4.244a3986.07 3986.07 0 01-10.648 8.719zm30.241-142.3c5.295 2.173 10.257 4.816 14.788 7.877 7.126 3.454 13.582 7.697 19.168 12.599a57.72 57.72 0 016.026 6.176 69.052 69.052 0 015.065 6.67c2.923 4.442 5.003 9.196 6.174 14.111a42.036 42.036 0 00-1.017-6.03 58.39 58.39 0 00-2.181-6.918l-2.162-4.825c-1.674-3.715-3.842-7.28-6.47-10.637a46.23 46.23 0 00-4.067-4.258 48.994 48.994 0 00-4.048-3.27c-3.992-2.842-8.369-5.332-13.05-7.426a61.679 61.679 0 00-10.888-3.182c-2.421-.393-4.861-.669-7.338-.887zm-64.124 178.238a65.201 65.201 0 012.514-1.686l2.44-4.752 2.884-5.493a75.613 75.613 0 00-4.012 5.217 70.592 70.592 0 00-3.826 6.714z" mask="url(&quot;#t&quot;)"/><path fill="#fff" d="M311.617 383.265a30.153 30.153 0 010 4.272 27.832 27.832 0 01-2.108 7.978c-1.945 4.971-4.911 9.659-8.78 13.878a47.374 47.374 0 01-7.024 6.148 60.461 60.461 0 01-7.764 4.563 44.553 44.553 0 01-8.799 3.415 46.117 46.117 0 01-5.453 1.148 56.64 56.64 0 01-5.637.407h-3.697l-1.017.087a43.372 43.372 0 01-5.99 0 54.935 54.935 0 01-5.138-.712c-3-.561-5.896-1.426-8.614-2.572l-.536-.233-1.257-.276a38.42 38.42 0 01-8.3-3.037c-2.717-1.377-5.122-3.101-7.116-5.101-1.87-1.856-3.452-3.881-4.714-6.031a36.528 36.528 0 01-3.124-7.397 38.144 38.144 0 01-1.552-7.397 46.188 46.188 0 011.016-16.232 32.369 32.369 0 012.865-8.022 32.913 32.913 0 014.843-6.51c3.941-4.047 8.707-7.553 14.104-10.376 5.291-3.057 11.213-5.372 17.505-6.845a35.11 35.11 0 019.15-.465l1.128.087c3.241.274 6.454.73 9.612 1.366 3.167.639 6.26 1.49 9.242 2.543 2.904.972 5.603 2.285 8.004 3.895 2.572 1.732 4.846 3.721 6.766 5.914a79.678 79.678 0 014.917 6.453 46.578 46.578 0 014.27 7.193 37.905 37.905 0 012.551 7.601c.277 1.409.48 2.819.647 4.258zm-48.19 29.558c.462-.189.684-.232 1.368-.596.684-.363 1.441-.537 1.996-1.133.555-.596 1.072-1.206 1.59-1.817a38.321 38.321 0 01-3.18 0 30.561 30.561 0 01-2.569-.16l-.222.102-1.368.596v.421c.167 1.003.259 2.02.444 3.023l1.053-.247zm.24-51.27a36.181 36.181 0 00-4.64 1.831l-.221.117a27.73 27.73 0 0110.499.334 44.835 44.835 0 00-1.96-.872c-1.201-.494-2.421-.988-3.678-1.41zm-12.237 52.215c.666.087 1.257.232 1.849.232-.056-.785-.24-1.569-.24-2.354a18.577 18.577 0 01-5.805-.799c-2.17-.618-4.134-1.611-5.749-2.907-3.736-3.591-5.838-8.062-5.97-12.701a26.554 26.554 0 01.443-7.353c-.277.814-.536 1.497-.757 2.267a33.491 33.491 0 00-.906 4.839 30.58 30.58 0 001.552 5.624 27.676 27.676 0 003.143 5.275 29.189 29.189 0 004.233 3.982 35.88 35.88 0 005.342 2.906c.932.37 1.888.7 2.865.989zm23.272-29.908a17.503 17.503 0 00-.924-4.083 27.208 27.208 0 00-1.386-2.616h-.093l-.184-.102c-.696.417-1.351.873-1.96 1.366a30.733 30.733 0 00-4.603 4.999c-1.626 2.521-2.867 5.185-3.696 7.935a42.78 42.78 0 00-1.424 8.865 28.384 28.384 0 003.161-.465 30.702 30.702 0 012.2-1.933 36.892 36.892 0 013.438-2.384c.61-.77 1.201-1.54 1.738-2.325a32.921 32.921 0 003.475-6.597c.191-.878.278-1.769.258-2.66zm-20.111 3.953c-.81.24-1.704.24-2.514 0a3.195 3.195 0 01-.665-.276v.945c.135 1.503.457 2.992.96 4.446.186.393.407.785.63 1.178.36-2.122.89-4.224 1.589-6.293zm-2.828 18.093c-2.252-.669-4.34-1.637-6.174-2.863-.369-.237-.72-.489-1.054-.756.13.189.26.393.407.581.455.516.961 1.002 1.516 1.454.495.328 1.027.62 1.59.872.819.296 1.665.543 2.532.741.501.069 1.007.117 1.516.145zm-23.291-31.928c1.405-2.296 2.92-4.577 4.621-6.786a50.79 50.79 0 015.324-6.569l.758-.741a57.045 57.045 0 00-5.546 4.011 35.103 35.103 0 00-5.212 5.653 26.817 26.817 0 00-2.866 6.452 44.42 44.42 0 00-1.46 8.72c.24-1.105.555-2.209.906-3.299a33.343 33.343 0 013.475-7.484zm53.772-7.513c5.012 2.018 9.368 4.911 12.736 8.458-.628-.857-1.22-1.686-1.848-2.5a41.968 41.968 0 00-6.488-6.089 46.853 46.853 0 00-7.117-4.083 29.3 29.3 0 00-3.364-1.075 6.292 6.292 0 01-1.183.29 5.828 5.828 0 01-1.516 0l5.841 2.79c.302.159.547.376.712.63.165.255.245.538.231.824.665.218 1.349.45 1.996.712zm88.875-291.153c-.088 3.717-.555 7.416-.906 11.117-.564 5.956-1.66 12.51-3.475 18.05-1.202 3.666-2.9 7.167-4.732 10.564-1.71 3.172-4.112 5.932-5.86 9.083-2.313 4.171-3.719 8.837-6.303 12.846-3.245 5.035-6.93 9.83-11.091 14.14-5.484 5.68-14.855 11.07-21.535 15.157-.602.368-1.296.592-1.848 1.032-.792.631-1.405 1.459-2.144 2.151a934.254 934.254 0 01-9.243 8.516c-1.532 1.397-3.115 2.737-4.639 4.142-1.735 1.599-3.431 3.24-5.139 4.868-1.158 1.104-2.35 2.173-3.457 3.328-1.942 2.027-11.44 12.819-11.885 13.355-3.524 4.246-7.455 8.229-10.315 12.948-2.93 4.834-6.716 13.607-8.115 20.243-.517 2.452-1.007 4.919-1.257 7.412-.238 2.367-.543 4.78-.203 7.135.838 5.812 2.239 11.537 3.715 17.221.513 1.974 1.48 3.802 2.237 5.696 1.03 2.582 2.102 5.147 3.124 7.732.679 1.717 1.288 3.46 1.978 5.173.864 2.146 1.637 2.989 1.774 5.479.03.554-.116 1.165-.462 1.598-.94 1.18-1.924 2.468-3.291 3.107-1.542.72-3.413.306-5.045.788-.939.277-1.586 1.29-2.551 1.453-5.078.853-9.579 1.133-12.94-3.677-2.775-3.971-3.887-8.901-6.34-13.079-.588-1.002-1.796-1.477-2.662-2.252-.07-.062-.055-.303-.13-.247-.412.31-.795.686-1.053 1.133-.077.133.116.286.148.436.018.085-.027.18 0 .262 1.01 3.056 1.92 6.149 3.105 9.141.499 1.259 2.407 3.68 2.5 5.417.096 1.792-.986 3.36-2.452 4.313-1.921 1.25-4.463 1.524-6.64.897-1.043-.3-2.123-.77-2.853-1.574-4.894-5.387-6.226-8.642-8.78-15.157-.673-1.717-1.216-3.483-1.757-5.246a91.128 91.128 0 01-1.478-5.304c-.868-3.592-1.71-8.025-2.255-11.742a581.048 581.048 0 01-1.516-11.059c-.172-1.348-.179-2.716-.407-4.055-.017-.1-.21-.019-.296-.072-1.343-.826-2.994-1.326-3.98-2.556-.856-1.069-1.287-2.558-1.214-3.926.181-3.372 1.185-6.653 1.96-9.94.496-2.105 1.218-4.15 1.848-6.22.233-.765.635-1.489.74-2.281.242-1.837.157-3.703.295-5.551.047-.625.169-1.241.259-1.861.181-1.245.324-2.497.554-3.734.907-4.876 2.79-12.316 4.492-16.146 2.38-5.355 5.098-10.601 8.392-15.447 2.853-4.196 6.491-7.807 9.945-11.524 1.362-1.466 7.428-6.838 9.464-8.604 6.714-5.824 7.557-6.426 15.749-13.064 3.215-2.605 6.477-5.154 9.668-7.789 4.098-3.384 9.798-8.735 13.217-12.004 5.006-4.786 8.844-8.537 13.346-13.239 2.918-3.047 6.346-6.68 8.965-9.882 2.464-3.012 5.204-5.855 7.172-9.213 4.751-8.108 8.59-14.498 9.593-23.252.599-5.231-.318-10.76-1.719-15.738-.675-2.397-2.59-5.213-4.27-7.179a68.581 68.581 0 00-3.179-3.473c-.315-.321-.657-.63-1.054-.843-4.983-2.664-9.953-5.366-15.065-7.775-2.526-1.19-5.163-2.146-7.819-3.008-1.476-.479-3.013-.768-4.547-1.003-2.34-.357-4.697-.644-7.061-.77-4.873-.26-9.536.072-14.381.494-5.228.455-15.192 1.973-18.43 2.892-3.852 1.093-16.37 5.944-21.645 9.054-5.718 3.37-11.638 6.49-16.877 10.565-1.353 1.052-4.52 9.708-4.677 10.55-.983 5.273-1.848 10.621-1.848 15.986 0 4.595 2.98 16.651 4.787 21.071 1.334 3.26 3.101 6.337 4.936 9.344.445.729 1.177 1.245 1.848 1.773.716.563 2.217 1.034 3.013 1.25.125.034.261-.022.389 0 .914.16 1.521.257 2.22.916.26.245.48.55.611.882.124.313.174.666.135 1-.085.74-.56 1.348-1.164 1.745-.34.223-.728.384-1.123.481-1.365.335-3.173-.16-4.34-.504-3.114-.92-4.172-2.05-6.802-4.52-.497-.467-.61-1.362-1.238-1.627-.608-.257-1.3.286-1.96.276a4.053 4.053 0 01-1.467-.326c-.433-.178-.805-.48-1.176-.764-.136-.104-.415-.544-.333-.393.017.031 1.625 2.071 1.421 2.96-.06.266-.33.439-.441.688-.195.44-.208.96-.468 1.365-.284.441-.736.75-1.122 1.105-.057.053-.244.05-.203.117 1.35 2.217 2.907 4.304 4.251 6.525.191.315.314.685.337 1.052.05.79-.328 1.5-.91 2.006-.323.28-.708.498-1.109.647a4.43 4.43 0 01-2.705.107c-.822-.23-1.548-.696-2.008-1.429-2.87-4.566-5.474-9.297-8.41-13.82-.791-1.217-1.987-2.14-2.755-3.372-5.15-8.258-7.403-13.783-8.91-24.196-.78-5.395-.513-10.898-.425-16.349.03-1.81 1.789-6.878.776-5.377a48.313 48.313 0 00-6.34 13.632c-2.342 8.185-2.059 17.587 1.054 25.547 1.438 3.68 3.908 6.874 6.081 10.173 1.46 2.217 3.11 4.308 4.806 6.35 2.288 2.755 4.49 4.91 7.357 6.976 1.635 1.178 3.49 2.047 5.047 3.328 1.46 1.202 2.502 2.252 1.988 4.063-.15.526-.367 1.103-.805 1.43-.965.72-2.049 1.43-3.242 1.59-3.27.436-6.673-2.319-8.847-4.031-7.882-6.205-11.396-9.632-17.284-18.18-2.374-3.448-4.658-7.02-6.266-10.885-1.409-3.386-2.689-6.999-2.699-10.667-.021-7.799.031-15.89 2.607-23.251 2.991-8.552 8.986-15.739 13.734-23.455.946-1.537 2.164-2.892 3.327-4.273 1.796-2.132 3.433-4.442 5.545-6.263 11.06-9.535 18.998-14.969 32.977-19.894 13.792-4.86 21-5.286 34.715-5.813 3.257-.126 6.533.306 9.778 0 6.05-.572 12.004-1.934 18.041-2.63 2.948-.341 5.925-.368 8.891-.48 2.578-.098 13.74-.623 18.097-.073 4.854.612 9.8.937 14.492 2.325 6.178 1.829 12.29 4.119 17.912 7.266 5.422 3.036 10.502 6.796 14.954 11.132 3.426 3.337 5.814 7.609 8.411 11.626 2.793 4.321 5.676 11.42 7.005 16.203 1.794 6.456 1.687 15.51 1.59 19.633zm-80.372 79.026c1.461-1.119 2.902-2.238 4.4-3.313l1.367-.974 4.77-4.999c1.423-1.496 2.809-3.08 4.214-4.534 1.072-1.162 2.2-2.296 3.198-3.487l5.157-6.075a104.074 104.074 0 006.1-7.978c.351-.523.684-1.061 1.017-1.599a105.476 105.476 0 006.192-13.529l-.647.291c-1.238.639-2.477 1.366-3.697 2.092a92.392 92.392 0 01-2.107 3.284l-8.096 11.626c-1.941 2.819-4.048 5.566-6.1 8.342-2.255 3.066-4.437 6.19-6.784 9.228zm-19.353 2.762a85.425 85.425 0 00-1.516 1.976l-7.69 10.478-.406.61-4.27 6.728c-.721 1.134-1.572 2.384-2.145 3.386a169.873 169.873 0 01-1.756 2.98l7.302-4.084c2.575-3.507 5.169-7.004 7.782-10.492l14.788-19.648 3.808-5.101c-1.609 1.439-3.254 2.791-4.917 4.244a3986.07 3986.07 0 01-10.648 8.719zm30.241-142.3c5.295 2.173 10.257 4.816 14.788 7.877 7.126 3.454 13.582 7.697 19.168 12.599a57.72 57.72 0 016.026 6.176 69.052 69.052 0 015.065 6.67c2.923 4.442 5.003 9.196 6.174 14.111a42.036 42.036 0 00-1.017-6.03 58.39 58.39 0 00-2.181-6.918l-2.162-4.825c-1.674-3.715-3.842-7.28-6.47-10.637a46.23 46.23 0 00-4.067-4.258 48.994 48.994 0 00-4.048-3.27c-3.992-2.842-8.369-5.332-13.05-7.426a61.679 61.679 0 00-10.888-3.182c-2.421-.393-4.861-.669-7.338-.887zm-64.124 178.238a65.201 65.201 0 012.514-1.686l2.44-4.752 2.884-5.493a75.613 75.613 0 00-4.012 5.217 70.592 70.592 0 00-3.826 6.714z"/></g><path fill="#104455" d="M311.617 383.265a30.153 30.153 0 010 4.272 27.832 27.832 0 01-2.108 7.978c-1.945 4.971-4.911 9.659-8.78 13.878a47.374 47.374 0 01-7.024 6.148 60.461 60.461 0 01-7.764 4.563 44.553 44.553 0 01-8.799 3.415 46.117 46.117 0 01-5.453 1.148 56.64 56.64 0 01-5.637.407h-3.697l-1.017.087a43.372 43.372 0 01-5.99 0 54.935 54.935 0 01-5.138-.712c-3-.561-5.896-1.426-8.614-2.572l-.536-.233-1.257-.276a38.42 38.42 0 01-8.3-3.037c-2.717-1.377-5.122-3.101-7.116-5.101-1.87-1.856-3.452-3.881-4.714-6.031a36.528 36.528 0 01-3.124-7.397 38.144 38.144 0 01-1.552-7.397 46.188 46.188 0 011.016-16.232 32.369 32.369 0 012.865-8.022 32.913 32.913 0 014.843-6.51c3.941-4.047 8.707-7.553 14.104-10.376 5.291-3.057 11.213-5.372 17.505-6.845a35.11 35.11 0 019.15-.465l1.128.087c3.241.274 6.454.73 9.612 1.366 3.167.639 6.26 1.49 9.242 2.543 2.904.972 5.603 2.285 8.004 3.895 2.572 1.732 4.846 3.721 6.766 5.914a79.678 79.678 0 014.917 6.453 46.578 46.578 0 014.27 7.193 37.905 37.905 0 012.551 7.601c.277 1.409.48 2.819.647 4.258zm-48.19 29.558c.462-.189.684-.232 1.368-.596.684-.363 1.441-.537 1.996-1.133.555-.596 1.072-1.206 1.59-1.817a38.321 38.321 0 01-3.18 0 30.561 30.561 0 01-2.569-.16l-.222.102-1.368.596v.421c.167 1.003.259 2.02.444 3.023l1.053-.247zm.24-51.27a36.181 36.181 0 00-4.64 1.831l-.221.117a27.73 27.73 0 0110.499.334 44.835 44.835 0 00-1.96-.872c-1.201-.494-2.421-.988-3.678-1.41zm-12.237 52.215c.666.087 1.257.232 1.849.232-.056-.785-.24-1.569-.24-2.354a18.577 18.577 0 01-5.805-.799c-2.17-.618-4.134-1.611-5.749-2.907-3.736-3.591-5.838-8.062-5.97-12.701a26.554 26.554 0 01.443-7.353c-.277.814-.536 1.497-.757 2.267a33.491 33.491 0 00-.906 4.839 30.58 30.58 0 001.552 5.624 27.676 27.676 0 003.143 5.275 29.189 29.189 0 004.233 3.982 35.88 35.88 0 005.342 2.906c.932.37 1.888.7 2.865.989zm23.272-29.908a17.503 17.503 0 00-.924-4.083 27.208 27.208 0 00-1.386-2.616h-.093l-.184-.102c-.696.417-1.351.873-1.96 1.366a30.733 30.733 0 00-4.603 4.999c-1.626 2.521-2.867 5.185-3.696 7.935a42.78 42.78 0 00-1.424 8.865 28.384 28.384 0 003.161-.465 30.702 30.702 0 012.2-1.933 36.892 36.892 0 013.438-2.384c.61-.77 1.201-1.54 1.738-2.325a32.921 32.921 0 003.475-6.597c.191-.878.278-1.769.258-2.66zm-20.111 3.953c-.81.24-1.704.24-2.514 0a3.195 3.195 0 01-.665-.276v.945c.135 1.503.457 2.992.96 4.446.186.393.407.785.63 1.178.36-2.122.89-4.224 1.589-6.293zm-2.828 18.093c-2.252-.669-4.34-1.637-6.174-2.863-.369-.237-.72-.489-1.054-.756.13.189.26.393.407.581.455.516.961 1.002 1.516 1.454.495.328 1.027.62 1.59.872.819.296 1.665.543 2.532.741.501.069 1.007.117 1.516.145zm-23.291-31.928c1.405-2.296 2.92-4.577 4.621-6.786a50.79 50.79 0 015.324-6.569l.758-.741a57.045 57.045 0 00-5.546 4.011 35.103 35.103 0 00-5.212 5.653 26.817 26.817 0 00-2.866 6.452 44.42 44.42 0 00-1.46 8.72c.24-1.105.555-2.209.906-3.299a33.343 33.343 0 013.475-7.484zm53.772-7.513c5.012 2.018 9.368 4.911 12.736 8.458-.628-.857-1.22-1.686-1.848-2.5a41.968 41.968 0 00-6.488-6.089 46.853 46.853 0 00-7.117-4.083 29.3 29.3 0 00-3.364-1.075 6.292 6.292 0 01-1.183.29 5.828 5.828 0 01-1.516 0l5.841 2.79c.302.159.547.376.712.63.165.255.245.538.231.824.665.218 1.349.45 1.996.712zm88.875-291.153c-.088 3.717-.555 7.416-.906 11.117-.564 5.956-1.66 12.51-3.475 18.05-1.202 3.666-2.9 7.167-4.732 10.564-1.71 3.172-4.112 5.932-5.86 9.083-2.313 4.171-3.719 8.837-6.303 12.846-3.245 5.035-6.93 9.83-11.091 14.14-5.484 5.68-14.855 11.07-21.535 15.157-.602.368-1.296.592-1.848 1.032-.792.631-1.405 1.459-2.144 2.151a934.254 934.254 0 01-9.243 8.516c-1.532 1.397-3.115 2.737-4.639 4.142-1.735 1.599-3.431 3.24-5.139 4.868-1.158 1.104-2.35 2.173-3.457 3.328-1.942 2.027-11.44 12.819-11.885 13.355-3.524 4.246-7.455 8.229-10.315 12.948-2.93 4.834-6.716 13.607-8.115 20.243-.517 2.452-1.007 4.919-1.257 7.412-.238 2.367-.543 4.78-.203 7.135.838 5.812 2.239 11.537 3.715 17.221.513 1.974 1.48 3.802 2.237 5.696 1.03 2.582 2.102 5.147 3.124 7.732.679 1.717 1.288 3.46 1.978 5.173.864 2.146 1.637 2.989 1.774 5.479.03.554-.116 1.165-.462 1.598-.94 1.18-1.924 2.468-3.291 3.107-1.542.72-3.413.306-5.045.788-.939.277-1.586 1.29-2.551 1.453-5.078.853-9.579 1.133-12.94-3.677-2.775-3.971-3.887-8.901-6.34-13.079-.588-1.002-1.796-1.477-2.662-2.252-.07-.062-.055-.303-.13-.247-.412.31-.795.686-1.053 1.133-.077.133.116.286.148.436.018.085-.027.18 0 .262 1.01 3.056 1.92 6.149 3.105 9.141.499 1.259 2.407 3.68 2.5 5.417.096 1.792-.986 3.36-2.452 4.313-1.921 1.25-4.463 1.524-6.64.897-1.043-.3-2.123-.77-2.853-1.574-4.894-5.387-6.226-8.642-8.78-15.157-.673-1.717-1.216-3.483-1.757-5.246a91.128 91.128 0 01-1.478-5.304c-.868-3.592-1.71-8.025-2.255-11.742a581.048 581.048 0 01-1.516-11.059c-.172-1.348-.179-2.716-.407-4.055-.017-.1-.21-.019-.296-.072-1.343-.826-2.994-1.326-3.98-2.556-.856-1.069-1.287-2.558-1.214-3.926.181-3.372 1.185-6.653 1.96-9.94.496-2.105 1.218-4.15 1.848-6.22.233-.765.635-1.489.74-2.281.242-1.837.157-3.703.295-5.551.047-.625.169-1.241.259-1.861.181-1.245.324-2.497.554-3.734.907-4.876 2.79-12.316 4.492-16.146 2.38-5.355 5.098-10.601 8.392-15.447 2.853-4.196 6.491-7.807 9.945-11.524 1.362-1.466 7.428-6.838 9.464-8.604 6.714-5.824 7.557-6.426 15.749-13.064 3.215-2.605 6.477-5.154 9.668-7.789 4.098-3.384 9.798-8.735 13.217-12.004 5.006-4.786 8.844-8.537 13.346-13.239 2.918-3.047 6.346-6.68 8.965-9.882 2.464-3.012 5.204-5.855 7.172-9.213 4.751-8.108 8.59-14.498 9.593-23.252.599-5.231-.318-10.76-1.719-15.738-.675-2.397-2.59-5.213-4.27-7.179a68.581 68.581 0 00-3.179-3.473c-.315-.321-.657-.63-1.054-.843-4.983-2.664-9.953-5.366-15.065-7.775-2.526-1.19-5.163-2.146-7.819-3.008-1.476-.479-3.013-.768-4.547-1.003-2.34-.357-4.697-.644-7.061-.77-4.873-.26-9.536.072-14.381.494-5.228.455-15.192 1.973-18.43 2.892-3.852 1.093-16.37 5.944-21.645 9.054-5.718 3.37-11.638 6.49-16.877 10.565-1.353 1.052-4.52 9.708-4.677 10.55-.983 5.273-1.848 10.621-1.848 15.986 0 4.595 2.98 16.651 4.787 21.071 1.334 3.26 3.101 6.337 4.936 9.344.445.729 1.177 1.245 1.848 1.773.716.563 2.217 1.034 3.013 1.25.125.034.261-.022.389 0 .914.16 1.521.257 2.22.916.26.245.48.55.611.882.124.313.174.666.135 1-.085.74-.56 1.348-1.164 1.745-.34.223-.728.384-1.123.481-1.365.335-3.173-.16-4.34-.504-3.114-.92-4.172-2.05-6.802-4.52-.497-.467-.61-1.362-1.238-1.627-.608-.257-1.3.286-1.96.276a4.053 4.053 0 01-1.467-.326c-.433-.178-.805-.48-1.176-.764-.136-.104-.415-.544-.333-.393.017.031 1.625 2.071 1.421 2.96-.06.266-.33.439-.441.688-.195.44-.208.96-.468 1.365-.284.441-.736.75-1.122 1.105-.057.053-.244.05-.203.117 1.35 2.217 2.907 4.304 4.251 6.525.191.315.314.685.337 1.052.05.79-.328 1.5-.91 2.006-.323.28-.708.498-1.109.647a4.43 4.43 0 01-2.705.107c-.822-.23-1.548-.696-2.008-1.429-2.87-4.566-5.474-9.297-8.41-13.82-.791-1.217-1.987-2.14-2.755-3.372-5.15-8.258-7.403-13.783-8.91-24.196-.78-5.395-.513-10.898-.425-16.349.03-1.81 1.789-6.878.776-5.377a48.313 48.313 0 00-6.34 13.632c-2.342 8.185-2.059 17.587 1.054 25.547 1.438 3.68 3.908 6.874 6.081 10.173 1.46 2.217 3.11 4.308 4.806 6.35 2.288 2.755 4.49 4.91 7.357 6.976 1.635 1.178 3.49 2.047 5.047 3.328 1.46 1.202 2.502 2.252 1.988 4.063-.15.526-.367 1.103-.805 1.43-.965.72-2.049 1.43-3.242 1.59-3.27.436-6.673-2.319-8.847-4.031-7.882-6.205-11.396-9.632-17.284-18.18-2.374-3.448-4.658-7.02-6.266-10.885-1.409-3.386-2.689-6.999-2.699-10.667-.021-7.799.031-15.89 2.607-23.251 2.991-8.552 8.986-15.739 13.734-23.455.946-1.537 2.164-2.892 3.327-4.273 1.796-2.132 3.433-4.442 5.545-6.263 11.06-9.535 18.998-14.969 32.977-19.894 13.792-4.86 21-5.286 34.715-5.813 3.257-.126 6.533.306 9.778 0 6.05-.572 12.004-1.934 18.041-2.63 2.948-.341 5.925-.368 8.891-.48 2.578-.098 13.74-.623 18.097-.073 4.854.612 9.8.937 14.492 2.325 6.178 1.829 12.29 4.119 17.912 7.266 5.422 3.036 10.502 6.796 14.954 11.132 3.426 3.337 5.814 7.609 8.411 11.626 2.793 4.321 5.676 11.42 7.005 16.203 1.794 6.456 1.687 15.51 1.59 19.633zm-80.372 79.026c1.461-1.119 2.902-2.238 4.4-3.313l1.367-.974 4.77-4.999c1.423-1.496 2.809-3.08 4.214-4.534 1.072-1.162 2.2-2.296 3.198-3.487l5.157-6.075a104.074 104.074 0 006.1-7.978c.351-.523.684-1.061 1.017-1.599a105.476 105.476 0 006.192-13.529l-.647.291c-1.238.639-2.477 1.366-3.697 2.092a92.392 92.392 0 01-2.107 3.284l-8.096 11.626c-1.941 2.819-4.048 5.566-6.1 8.342-2.255 3.066-4.437 6.19-6.784 9.228zm-19.353 2.762a85.425 85.425 0 00-1.516 1.976l-7.69 10.478-.406.61-4.27 6.728c-.721 1.134-1.572 2.384-2.145 3.386a169.873 169.873 0 01-1.756 2.98l7.302-4.084c2.575-3.507 5.169-7.004 7.782-10.492l14.788-19.648 3.808-5.101c-1.609 1.439-3.254 2.791-4.917 4.244a3986.07 3986.07 0 01-10.648 8.719zm30.241-142.3c5.295 2.173 10.257 4.816 14.788 7.877 7.126 3.454 13.582 7.697 19.168 12.599a57.72 57.72 0 016.026 6.176 69.052 69.052 0 015.065 6.67c2.923 4.442 5.003 9.196 6.174 14.111a42.036 42.036 0 00-1.017-6.03 58.39 58.39 0 00-2.181-6.918l-2.162-4.825c-1.674-3.715-3.842-7.28-6.47-10.637a46.23 46.23 0 00-4.067-4.258 48.994 48.994 0 00-4.048-3.27c-3.992-2.842-8.369-5.332-13.05-7.426a61.679 61.679 0 00-10.888-3.182c-2.421-.393-4.861-.669-7.338-.887zm-64.124 178.238a65.201 65.201 0 012.514-1.686l2.44-4.752 2.884-5.493a75.613 75.613 0 00-4.012 5.217 70.592 70.592 0 00-3.826 6.714z"/><path fill="#6c7a89" d="M160.255 488.026l-29.736-20.428a9.13 9.13 0 00-7.283-1.35l-51.128 12.113-2.415.572-60.025 14.23a3.47 3.47 0 00-2.152 1.55 3.447 3.447 0 00-.422 2.613l14.61 61.152a3.45 3.45 0 001.558 2.144 3.477 3.477 0 002.623.419l60.024-14.23 2.417-.572 51.718-12.261a7.75 7.75 0 002.903-1.372 7.705 7.705 0 002.093-2.429l17.613-32.118a7.672 7.672 0 00.736-5.476 7.7 7.7 0 00-3.134-4.557z"/><path fill="#fff" d="M13.08 495.774a.873.873 0 00-.659.708.866.866 0 00.405.877.875.875 0 001.274-.439.866.866 0 00-.36-1.042.873.873 0 00-.66-.104zm2.637-.62a.871.871 0 00-.656.707.864.864 0 00.404.875.873.873 0 001.272-.437.864.864 0 00-.361-1.04.875.875 0 00-.659-.105zm2.643-.631a.873.873 0 00-.659.707.866.866 0 00.404.878.875.875 0 001.275-.437.866.866 0 00-.36-1.042.877.877 0 00-.66-.106zm2.64-.629a.873.873 0 00-.659.707.866.866 0 00.404.877.875.875 0 001.275-.437.866.866 0 00-.36-1.042.875.875 0 00-.66-.106zm2.639-.62a.871.871 0 00-.658.706.864.864 0 00.403.876.873.873 0 001.273-.437.864.864 0 00-.36-1.04.873.873 0 00-.658-.105zm2.631-.62a.873.873 0 00-.659.707.866.866 0 00.404.877.875.875 0 001.275-.437.866.866 0 00-.36-1.042.875.875 0 00-.66-.106zm2.63-.63a.873.873 0 00-.659.707.866.866 0 00.404.877.875.875 0 001.275-.437.866.866 0 00-.36-1.042.875.875 0 00-.66-.106zm2.852 1.084a.87.87 0 00.872-.87.87.87 0 00-.872-.868.87.87 0 00-.872.869c0 .48.39.869.872.869zm3.506-1.459a.87.87 0 00-.834-.906.87.87 0 00-.91.83.87.87 0 00.834.906.87.87 0 00.91-.83zm1.568-1.505a.871.871 0 00-.655.706.864.864 0 00.401.874.873.873 0 001.272-.43.864.864 0 00-.676-1.163.874.874 0 00-.342.013zm2.636-.621a.873.873 0 00-.66.707.866.866 0 00.402.878.875.875 0 001.276-.437.866.866 0 00-.36-1.042.875.875 0 00-.658-.106zm2.638-.629a.873.873 0 00-.659.708.866.866 0 00.405.877.875.875 0 001.274-.439.866.866 0 00-.36-1.042.873.873 0 00-.66-.104zm2.64-.63a.873.873 0 00-.659.707.866.866 0 00.405.878.875.875 0 001.274-.439.866.866 0 00-.361-1.041.875.875 0 00-.659-.105zm2.64-.62a.873.873 0 00-.659.707.866.866 0 00.404.877.875.875 0 001.275-.437.866.866 0 00-.36-1.042.875.875 0 00-.66-.106zm2.64-.63a.873.873 0 00-.659.707.866.866 0 00.404.877.875.875 0 001.275-.437.866.866 0 00-.36-1.042.875.875 0 00-.66-.106zm2.637-.62a.871.871 0 00-.656.707.864.864 0 00.404.875.873.873 0 001.272-.437.864.864 0 00-.36-1.04.87.87 0 00-.66-.105zm2.636-.621a.873.873 0 00-.662.707.866.866 0 00.404.879.875.875 0 001.276-.44.866.866 0 00-.362-1.04.875.875 0 00-.656-.106zm2.637-.629a.873.873 0 00-.659.707.866.866 0 00.404.877.875.875 0 001.275-.437.866.866 0 00-.36-1.042.875.875 0 00-.66-.106zm2.64-.63a.873.873 0 00-.659.707.866.866 0 00.404.877.875.875 0 001.275-.437.866.866 0 00-.36-1.042.875.875 0 00-.66-.106zm2.842 1.094a.87.87 0 00.872-.87.87.87 0 00-.872-.868.87.87 0 00-.872.869c0 .48.39.869.872.869zm2.435-2.344a.871.871 0 00-.656.707.864.864 0 00.404.875.873.873 0 001.272-.437.864.864 0 00-.68-1.158.874.874 0 00-.34.013zm2.635-.621a.873.873 0 00-.66.707.866.866 0 00.402.878.875.875 0 001.276-.436.866.866 0 00-.36-1.043.873.873 0 00-.658-.106zm2.638-.619a.873.873 0 00-.659.707.866.866 0 00.404.877.875.875 0 001.275-.437.866.866 0 00-.36-1.042.875.875 0 00-.66-.106zm2.64-.63a.873.873 0 00-.659.708.866.866 0 00.405.877.875.875 0 001.274-.439.866.866 0 00-.36-1.042.873.873 0 00-.66-.104zm2.842 1.084a.87.87 0 00.872-.87.87.87 0 00-.872-.868.87.87 0 00-.872.869c0 .48.39.869.872.869zm3.505-1.46a.87.87 0 00-.833-.906.87.87 0 00-.91.83.87.87 0 00.834.906.87.87 0 00.91-.83zm1.775.21a.87.87 0 00.872-.87.87.87 0 00-.872-.868.87.87 0 00-.872.869c0 .48.39.869.872.869zm2.437-2.334a.871.871 0 00-.658.706.864.864 0 00.403.876.873.873 0 001.273-.437.864.864 0 00-.36-1.04.873.873 0 00-.658-.105zm2.853 1.074a.87.87 0 00.872-.87.87.87 0 00-.872-.868.87.87 0 00-.872.869c0 .48.39.869.872.869zm2.456-2.334a.871.871 0 00-.657.706.864.864 0 00.403.875.873.873 0 001.272-.435.864.864 0 00-.36-1.04.875.875 0 00-.658-.106zm2.659-.63a.871.871 0 00-.656.707.864.864 0 00.404.875.873.873 0 001.272-.437.864.864 0 00-.361-1.04.875.875 0 00-.659-.105zm2.883 1.076a.87.87 0 00.85-.892.87.87 0 00-.895-.846.87.87 0 00-.85.892.87.87 0 00.895.845zm2.43-2.336a.873.873 0 00-.659.707.866.866 0 00.405.878.875.875 0 001.274-.439.866.866 0 00-.361-1.041.875.875 0 00-.659-.105zm2.862 1.074a.87.87 0 00.872-.87.87.87 0 00-.872-.868.87.87 0 00-.872.869c0 .48.39.869.872.869zm3.518-1.46a.87.87 0 00-.833-.906.87.87 0 00-.91.83.87.87 0 00.835.906.87.87 0 00.909-.83zm1.587-1.504a.871.871 0 00-.656.707.864.864 0 00.404.875.873.873 0 001.272-.437.864.864 0 00-.68-1.158.874.874 0 00-.34.013zm3.601.659a.867.867 0 00-.286-1.195.874.874 0 00-1.2.284.867.867 0 00.286 1.195.874.874 0 001.2-.284zm1.712-1.919a.873.873 0 00-.659.707.866.866 0 00.404.877.875.875 0 001.275-.437.866.866 0 00-.36-1.042.875.875 0 00-.66-.106zm2.887 1.076a.87.87 0 00.85-.891.87.87 0 00-.895-.846.87.87 0 00-.85.892.87.87 0 00.895.845zm2.433-2.337a.873.873 0 00-.659.707.866.866 0 00.404.878.875.875 0 001.275-.437.866.866 0 00-.361-1.041.879.879 0 00-.658-.107zm2.862 1.085a.87.87 0 00.872-.87.87.87 0 00-.872-.868.87.87 0 00-.872.869c0 .48.39.869.872.869zm2.45-2.345a.871.871 0 00-.66.703.864.864 0 00.398.877.873.873 0 001.275-.429.864.864 0 00-.673-1.162.874.874 0 00-.34.01zm2.658-.63a.873.873 0 00-.659.708.866.866 0 00.404.877.875.875 0 001.275-.437.866.866 0 00-.36-1.042.875.875 0 00-.66-.106zm3.89 1.521a.87.87 0 00-.834-.905.87.87 0 00-.909.83.87.87 0 00.834.906.87.87 0 00.909-.83zm1.332.681a.873.873 0 00-.694.677.866.866 0 00.365.896.875.875 0 001.294-.385.866.866 0 00-.316-1.054.875.875 0 00-.65-.134zm2.3 1.55a.873.873 0 00-.694.677.866.866 0 00.365.896.875.875 0 001.294-.385.866.866 0 00-.316-1.054.875.875 0 00-.65-.134zm2.311 1.541a.873.873 0 00-.686.682.866.866 0 00.37.892.875.875 0 001.29-.387.866.866 0 00-.633-1.186.876.876 0 00-.34 0zm2.309 1.539a.873.873 0 00-.694.677.866.866 0 00.365.896.875.875 0 001.294-.385.866.866 0 00-.316-1.054.875.875 0 00-.65-.134zm2.301 1.541a.873.873 0 00-.686.682.866.866 0 00.37.892.875.875 0 001.29-.387.866.866 0 00-.633-1.186.876.876 0 00-.34 0zm2.307 1.55a.873.873 0 00-.693.68.866.866 0 00.371.896.875.875 0 001.293-.397.866.866 0 00-.325-1.05.873.873 0 00-.646-.13zm2.302 1.539a.873.873 0 00-.694.677.866.866 0 00.365.896.875.875 0 001.294-.385.866.866 0 00-.316-1.054.875.875 0 00-.65-.134zm2.309 1.54a.873.873 0 00-.693.678.866.866 0 00.366.896.875.875 0 001.294-.387.866.866 0 00-.317-1.054.873.873 0 00-.65-.133zm2.301 1.55a.873.873 0 00-.694.677.866.866 0 00.365.896.875.875 0 001.294-.385.866.866 0 00-.316-1.054.875.875 0 00-.65-.134zm2.31 1.54a.873.873 0 00-.694.677.866.866 0 00.365.897.875.875 0 001.294-.386.866.866 0 00-.316-1.054.873.873 0 00-.65-.134zm2.31 1.55a.873.873 0 00-.694.677.866.866 0 00.365.896.875.875 0 001.294-.385.866.866 0 00-.316-1.053.877.877 0 00-.65-.135zm2.3 1.53a.873.873 0 00-.694.677.866.866 0 00.365.897.875.875 0 001.294-.386.866.866 0 00-.316-1.054.873.873 0 00-.65-.134zm2.641 3.245a.873.873 0 00.685-.684.866.866 0 00-.375-.892.875.875 0 00-1.29.399.866.866 0 00.328 1.05.875.875 0 00.652.128zM27.29 555.244a.873.873 0 00-.659.707.866.866 0 00.404.877.875.875 0 001.275-.437.866.866 0 00-.36-1.042.875.875 0 00-.66-.105zm2.64-.62a.873.873 0 00-.659.707.866.866 0 00.405.878.875.875 0 001.274-.439.866.866 0 00-.361-1.041.875.875 0 00-.659-.105zm2.638-.63a.871.871 0 00-.657.706.864.864 0 00.403.875.873.873 0 001.272-.435.864.864 0 00-.36-1.04.875.875 0 00-.658-.106zm2.632-.621a.873.873 0 00-.659.707.866.866 0 00.404.878.875.875 0 001.275-.437.866.866 0 00-.36-1.042.877.877 0 00-.66-.106zm2.872 1.087a.87.87 0 00.849-.892.87.87 0 00-.895-.846.87.87 0 00-.85.892.87.87 0 00.896.845zm3.357-1.045a.867.867 0 00-.286-1.195.874.874 0 00-1.2.284.867.867 0 00.286 1.196.874.874 0 001.2-.285zm1.919-.206a.87.87 0 00.85-.891.87.87 0 00-.896-.846.87.87 0 00-.849.891.87.87 0 00.895.846zm2.412-2.335a.873.873 0 00-.659.707.866.866 0 00.404.877.875.875 0 001.275-.437.866.866 0 00-.36-1.042.875.875 0 00-.66-.105zm2.637-.63a.871.871 0 00-.656.707.864.864 0 00.404.875.873.873 0 001.272-.437.864.864 0 00-.68-1.158.874.874 0 00-.34.013zm2.64-.62a.871.871 0 00-.656.707.864.864 0 00.404.875.873.873 0 001.272-.437.864.864 0 00-.68-1.158.874.874 0 00-.34.013zm2.633-.63a.873.873 0 00-.659.707.866.866 0 00.404.878.875.875 0 001.275-.437.866.866 0 00-.36-1.043.873.873 0 00-.66-.105zm2.647-.622a.873.873 0 00-.665.704.866.866 0 00.4.881.875.875 0 001.278-.436.866.866 0 00-.358-1.04.875.875 0 00-.655-.109zm2.633-.628a.873.873 0 00-.659.708.866.866 0 00.405.877.875.875 0 001.274-.439.866.866 0 00-.36-1.042.873.873 0 00-.66-.104zm2.637-.62a.871.871 0 00-.656.707.864.864 0 00.404.875.873.873 0 001.272-.437.864.864 0 00-.361-1.04.875.875 0 00-.659-.105zm2.643-.63a.873.873 0 00-.659.707.866.866 0 00.404.877.875.875 0 001.275-.437.866.866 0 00-.36-1.042.875.875 0 00-.66-.106zm2.63-.63a.873.873 0 00-.659.707.866.866 0 00.404.877.875.875 0 001.275-.437.866.866 0 00-.36-1.042.875.875 0 00-.66-.105zm2.649-.62a.871.871 0 00-.658.706.864.864 0 00.403.876.873.873 0 001.273-.437.864.864 0 00-.36-1.04.873.873 0 00-.658-.105zm2.631-.63a.873.873 0 00-.659.707.866.866 0 00.405.878.875.875 0 001.274-.439.866.866 0 00-.361-1.041.875.875 0 00-.659-.105zm2.64-.62a.873.873 0 00-.659.707.866.866 0 00.404.877.875.875 0 001.275-.437.866.866 0 00-.36-1.042.875.875 0 00-.66-.105zm2.64-.63a.873.873 0 00-.659.707.866.866 0 00.404.877.875.875 0 001.275-.437.866.866 0 00-.36-1.042.875.875 0 00-.66-.105zm-52.616 8.99a.873.873 0 00.66-.707.866.866 0 00-.404-.878.875.875 0 00-1.275.437.866.866 0 00.36 1.042c.197.121.434.16.659.106zm.266 1.099a.873.873 0 00-.659.708.866.866 0 00.404.877.875.875 0 001.275-.437.866.866 0 00-.36-1.042.875.875 0 00-.66-.105zm-.896-3.733a.871.871 0 00.656-.707.864.864 0 00-.404-.875.873.873 0 00-1.272.437.864.864 0 00.361 1.04c.197.12.434.159.659.105zm.044-3.437a.87.87 0 00-.834-.906.87.87 0 00-.909.83.87.87 0 00.834.906.87.87 0 00.909-.83zm-1.294-1.809a.873.873 0 00.66-.707.866.866 0 00-.404-.878.875.875 0 00-1.275.437.866.866 0 00.36 1.042c.197.121.434.16.659.106zm-.63-2.63a.873.873 0 00.66-.707.866.866 0 00-.404-.878.875.875 0 00-1.275.437.866.866 0 00.36 1.042c.197.121.434.16.659.106zm-.63-2.63a.873.873 0 00.66-.707.866.866 0 00-.404-.878.875.875 0 00-1.275.437.866.866 0 00.36 1.042c.197.121.434.16.659.106zm-.621-2.634a.871.871 0 00.657-.706.864.864 0 00-.403-.875.873.873 0 00-1.272.435.864.864 0 00.678 1.16.874.874 0 00.34-.014zm-.629-2.626a.873.873 0 00.66-.708.866.866 0 00-.405-.877.875.875 0 00-1.275.439.866.866 0 00.362 1.041c.196.12.433.158.658.105zm-.63-2.63a.873.873 0 00.66-.708.866.866 0 00-.405-.877.875.875 0 00-1.275.439.866.866 0 00.361 1.042.873.873 0 00.659.104zm-.63-2.62a.873.873 0 00.66-.707.866.866 0 00-.404-.878.875.875 0 00-1.275.437.866.866 0 00.36 1.042.88.88 0 00.659.106zm-.63-2.63a.873.873 0 00.66-.707.866.866 0 00-.404-.878.875.875 0 00-1.275.437.866.866 0 00.36 1.042c.197.121.434.16.659.106zm-.832-2.606a.87.87 0 00.872-.87.87.87 0 00-.872-.868.87.87 0 00-.872.869c0 .48.39.869.872.869zm-.196-2.696a.87.87 0 00.846-.894.871.871 0 00-.899-.843.87.87 0 00-.846.895.87.87 0 00.899.842zm-1.054-2.554a.87.87 0 00.872-.87.87.87 0 00-.872-.868.87.87 0 00-.872.869c0 .48.39.869.872.869zm-.604-2.633a.87.87 0 00.85-.89.87.87 0 00-.895-.847.87.87 0 00-.85.892.87.87 0 00.895.845zm-.454-2.651a.873.873 0 00.66-.707.866.866 0 00-.404-.878.875.875 0 00-1.275.437.866.866 0 00.36 1.042c.197.121.434.16.659.106zm-.62-2.63a.873.873 0 00.66-.707.866.866 0 00-.404-.878.875.875 0 00-1.275.437.866.866 0 00.36 1.042c.197.121.434.16.659.106zm-.631-2.624a.871.871 0 00.657-.706.864.864 0 00-.403-.875.873.873 0 00-1.272.435.864.864 0 00.678 1.16.874.874 0 00.34-.014zm-.631-2.63a.871.871 0 00.658-.706.864.864 0 00-.403-.875.873.873 0 00-1.273.436.864.864 0 00.36 1.04.873.873 0 00.658.106zm-.628-2.626a.873.873 0 00.66-.708.866.866 0 00-.405-.877.875.875 0 00-1.275.439.866.866 0 00.361 1.042.873.873 0 00.66.104zm-.6-2.524a.871.871 0 00.656-.707.864.864 0 00-.404-.875.873.873 0 00-1.272.437.864.864 0 00.361 1.04c.197.12.434.159.659.105zM81 544.033a.867.867 0 00-.285-1.195.874.874 0 00-1.2.284.867.867 0 00.286 1.196.874.874 0 001.2-.285zm2.434-.517a.87.87 0 00.846-.895.871.871 0 00-.898-.842.87.87 0 00-.846.895.87.87 0 00.898.842zm1.898-2.023a.873.873 0 00-.66.707.866.866 0 00.402.878.875.875 0 001.276-.437.866.866 0 00-.36-1.042.875.875 0 00-.658-.106zm2.638-.629a.873.873 0 00-.659.707.866.866 0 00.404.877.875.875 0 001.275-.437.866.866 0 00-.36-1.042.875.875 0 00-.66-.105zm2.64-.62a.873.873 0 00-.659.707.866.866 0 00.405.878.875.875 0 001.274-.439.866.866 0 00-.361-1.041.875.875 0 00-.659-.105zm2.638-.63a.871.871 0 00-.657.706.864.864 0 00.403.875.873.873 0 001.272-.435.864.864 0 00-.36-1.04.875.875 0 00-.658-.106zm2.642-.63a.873.873 0 00-.659.707.866.866 0 00.404.877.875.875 0 001.275-.437.866.866 0 00-.36-1.042.875.875 0 00-.66-.105zm2.637-.62a.871.871 0 00-.656.707.864.864 0 00.404.875.873.873 0 001.272-.437.864.864 0 00-.36-1.04.87.87 0 00-.66-.105zm2.653-.63a.873.873 0 00-.659.707.866.866 0 00.404.877.875.875 0 001.275-.437.866.866 0 00-.36-1.042.875.875 0 00-.66-.105zm2.66-.63a.873.873 0 00-.659.707.866.866 0 00.405.878.875.875 0 001.274-.439.866.866 0 00-.361-1.041.875.875 0 00-.659-.105zm2.66-.631a.873.873 0 00-.659.707.866.866 0 00.404.878.875.875 0 001.275-.437.866.866 0 00-.361-1.041.879.879 0 00-.658-.107zm2.65-.639a.873.873 0 00-.659.707.866.866 0 00.404.878.875.875 0 001.275-.437.866.866 0 00-.36-1.043.873.873 0 00-.66-.105zm2.657-.62a.871.871 0 00-.656.707.864.864 0 00.404.875.873.873 0 001.272-.437.864.864 0 00-.68-1.158.874.874 0 00-.34.013zm2.663-.631a.873.873 0 00-.659.708.866.866 0 00.404.877.875.875 0 001.275-.437.866.866 0 00-.36-1.042.875.875 0 00-.66-.105zm2.88 1.081a.87.87 0 00.849-.892.87.87 0 00-.895-.845.87.87 0 00-.849.891.87.87 0 00.895.846zm2.427-2.34a.871.871 0 00-.656.707.864.864 0 00.404.875.873.873 0 001.272-.437.864.864 0 00-.361-1.04.875.875 0 00-.659-.105zm2.865 1.084a.87.87 0 00.872-.87.87.87 0 00-.872-.868.87.87 0 00-.872.869c0 .48.39.869.872.869zm2.456-2.344a.871.871 0 00-.657.706.864.864 0 00.403.875.873.873 0 001.272-.435.864.864 0 00-.678-1.16.874.874 0 00-.34.014zm2.652-.63a.873.873 0 00-.659.708.866.866 0 00.405.877.875.875 0 001.274-.439.866.866 0 00-.36-1.042.873.873 0 00-.66-.104zm2.66-.631a.873.873 0 00-.659.708.866.866 0 00.404.877.875.875 0 001.275-.437.866.866 0 00-.36-1.042.875.875 0 00-.66-.106zm2.647-.629a.871.871 0 00-.656.707.864.864 0 00.404.875.873.873 0 001.272-.437.864.864 0 00-.361-1.04.875.875 0 00-.659-.105zm2.892 1.079a.87.87 0 00.849-.891.87.87 0 00-.895-.846.87.87 0 00-.85.891.87.87 0 00.896.846zm2.433-2.33a.873.873 0 00-.66.707.866.866 0 00.402.878.875.875 0 001.276-.437.866.866 0 00-.36-1.042.875.875 0 00-.658-.106zm2.93-.679a.87.87 0 00.846-.895.871.871 0 00-.898-.842.87.87 0 00-.846.894.87.87 0 00.898.843zm.665-3.621a.873.873 0 00-.63.733.866.866 0 00.438.86.875.875 0 001.256-.487.866.866 0 00-.401-1.028.873.873 0 00-.663-.078zm1.361-2.411a.873.873 0 00-.632.732.866.866 0 00.438.862.875.875 0 001.257-.487.866.866 0 00-.4-1.027.875.875 0 00-.663-.08zm1.358-2.419a.873.873 0 00-.63.733.866.866 0 00.44.861.875.875 0 001.256-.49.866.866 0 00-.403-1.026.873.873 0 00-.663-.078zm1.362-2.411a.873.873 0 00-.632.733.866.866 0 00.44.862.875.875 0 001.256-.49.866.866 0 00-.402-1.026.873.873 0 00-.662-.079zm1.359-2.41a.873.873 0 00-.63.733.866.866 0 00.438.861.875.875 0 001.256-.487.866.866 0 00-.401-1.028.875.875 0 00-.663-.079zm1.36-2.41a.873.873 0 00-.63.733.866.866 0 00.438.86.875.875 0 001.256-.487.866.866 0 00-.402-1.026.877.877 0 00-.662-.08zm1.361-2.42a.873.873 0 00-.632.732.866.866 0 00.438.862.875.875 0 001.257-.487.866.866 0 00-.4-1.027.875.875 0 00-.663-.08zm1.358-2.409a.873.873 0 00-.63.734.866.866 0 00.44.86.875.875 0 001.256-.489.866.866 0 00-.403-1.027.871.871 0 00-.663-.078zm1.362-2.411a.873.873 0 00-.632.733.866.866 0 00.44.862.875.875 0 001.256-.49.866.866 0 00-.402-1.026.873.873 0 00-.662-.079zm1.369-2.41a.873.873 0 00-.63.733.866.866 0 00.438.861.875.875 0 001.256-.487.866.866 0 00-.401-1.028.875.875 0 00-.663-.079zm1.361-2.411a.873.873 0 00-.632.733.866.866 0 00.438.861.875.875 0 001.257-.487.866.866 0 00-.401-1.026.877.877 0 00-.662-.08zm1.349-2.419a.873.873 0 00-.63.733.866.866 0 00.438.861.875.875 0 001.256-.487.866.866 0 00-.401-1.028.875.875 0 00-.663-.079zm1.369-2.409a.873.873 0 00-.63.733.866.866 0 00.44.861.875.875 0 001.256-.49.866.866 0 00-.403-1.026.873.873 0 00-.663-.078zm.221-2.821a.873.873 0 00-.63.733.866.866 0 00.438.861.875.875 0 001.256-.487.866.866 0 00-.401-1.028.875.875 0 00-.663-.079zm-9.246 7.732a5.163 5.163 0 000-7.322 5.212 5.212 0 00-7.35 0 5.163 5.163 0 000 7.322 5.212 5.212 0 007.35 0z"/><text dominant-baseline="text-before-edge" style="font-kerning:normal" fill="#fff" font-family="'Roboto','RobotoRoman-Regular'" font-size="48" transform="rotate(166.66 34.11 280.436)"><tspan style="font-kerning:normal">399</tspan></text><text dominant-baseline="text-before-edge" style="font-kerning:normal" fill="#fff" font-family="'Roboto','RobotoRoman-Regular'" font-size="10" transform="rotate(165.83 38.682 272.585)"><tspan style="font-kerning:normal">.</tspan></text></svg>