<svg width="186" height="113" fill="none" xmlns="http://www.w3.org/2000/svg"><path d="M182.027 26.167L146.708 1.904a10.865 10.865 0 00-8.649-1.603L77.332 14.687l-2.868.68-71.294 16.9A4.123 4.123 0 00.614 34.11a4.094 4.094 0 00-.501 3.103l17.353 72.632a4.103 4.103 0 001.85 2.546 4.136 4.136 0 003.115.497l71.293-16.9 2.87-.68 61.427-14.563a9.194 9.194 0 005.935-4.514l20.92-38.148a9.119 9.119 0 00.874-6.503 9.152 9.152 0 00-3.723-5.413z" fill="#6C7A89"/><path d="M7.221 35.365a1.036 1.036 0 00-.783.84 1.028 1.028 0 00.48 1.043 1.04 1.04 0 001.515-.521 1.028 1.028 0 00-.429-1.238 1.035 1.035 0 00-.783-.124zm3.134-.743a1.035 1.035 0 00-.78.84 1.026 1.026 0 00.48 1.039 1.037 1.037 0 001.511-.52 1.026 1.026 0 00-.428-1.235 1.04 1.04 0 00-.783-.124zm3.135-.744a1.037 1.037 0 00-.784.84 1.029 1.029 0 00.48 1.043 1.04 1.04 0 001.514-.52 1.028 1.028 0 00-.428-1.236 1.041 1.041 0 00-.783-.127zm3.133-.743a1.036 1.036 0 00-.783.84 1.03 1.03 0 00.48 1.042 1.04 1.04 0 001.514-.519 1.028 1.028 0 00-.428-1.238 1.04 1.04 0 00-.783-.125zm3.134-.741a1.035 1.035 0 00-.781.838 1.026 1.026 0 00.479 1.04 1.038 1.038 0 001.511-.518 1.025 1.025 0 00-.427-1.236 1.038 1.038 0 00-.782-.124zm3.133-.74a1.036 1.036 0 00-.784.84 1.028 1.028 0 00.48 1.043 1.04 1.04 0 001.514-.52 1.028 1.028 0 00-.428-1.237 1.04 1.04 0 00-.783-.126zm3.125-.747a1.038 1.038 0 00-.783.84 1.028 1.028 0 00.48 1.042 1.039 1.039 0 001.514-.519 1.028 1.028 0 00-.428-1.238 1.04 1.04 0 00-.783-.125zm3.382 1.293c.572 0 1.036-.463 1.036-1.033 0-.57-.464-1.032-1.036-1.032-.572 0-1.036.462-1.036 1.032 0 .57.464 1.032 1.036 1.032zm4.166-1.736a1.034 1.034 0 00-.99-1.075 1.034 1.034 0 00-1.08.986c-.025.57.418 1.05.99 1.075a1.034 1.034 0 001.08-.986zm1.862-1.785a1.035 1.035 0 00-.777.838 1.025 1.025 0 00.476 1.038 1.037 1.037 0 001.511-.51 1.026 1.026 0 00-.422-1.24 1.035 1.035 0 00-.788-.126zm3.135-.744a1.036 1.036 0 00-.786.84 1.028 1.028 0 00.479 1.043 1.04 1.04 0 001.515-.519 1.028 1.028 0 00-.427-1.237 1.04 1.04 0 00-.782-.127zm3.131-.741a1.036 1.036 0 00-.783.84 1.029 1.029 0 00.48 1.043 1.04 1.04 0 001.515-.521 1.027 1.027 0 00-.43-1.238 1.037 1.037 0 00-.782-.124zm3.134-.749a1.037 1.037 0 00-.783.84 1.029 1.029 0 00.48 1.043 1.04 1.04 0 001.515-.522 1.028 1.028 0 00-.43-1.237 1.04 1.04 0 00-.782-.124zm3.135-.738a1.037 1.037 0 00-.784.84 1.028 1.028 0 00.48 1.043 1.039 1.039 0 001.514-.52 1.029 1.029 0 00-.428-1.237 1.04 1.04 0 00-.783-.126zm3.133-.743a1.038 1.038 0 00-.783.84 1.028 1.028 0 00.48 1.043 1.039 1.039 0 001.514-.52 1.029 1.029 0 00-.428-1.238 1.04 1.04 0 00-.783-.125zm3.134-.741a1.035 1.035 0 00-.78.84 1.026 1.026 0 00.48 1.039 1.037 1.037 0 001.51-.52 1.026 1.026 0 00-.427-1.236 1.034 1.034 0 00-.783-.123zm3.133-.743a1.037 1.037 0 00-.787.839 1.028 1.028 0 00.48 1.044 1.04 1.04 0 001.515-.523 1.028 1.028 0 00-.43-1.235 1.04 1.04 0 00-.779-.126zm3.133-.744a1.036 1.036 0 00-.783.84 1.03 1.03 0 00.48 1.042 1.04 1.04 0 001.514-.519 1.028 1.028 0 00-.428-1.238 1.04 1.04 0 00-.783-.125zm3.138-.744a1.037 1.037 0 00-.783.84 1.028 1.028 0 00.48 1.043 1.039 1.039 0 001.514-.52 1.028 1.028 0 00-.428-1.237 1.04 1.04 0 00-.783-.125zM67 23.285c.573 0 1.037-.462 1.037-1.032 0-.57-.464-1.032-1.036-1.032-.572 0-1.036.462-1.036 1.032 0 .57.464 1.032 1.036 1.032zm2.895-2.777a1.035 1.035 0 00-.78.84 1.026 1.026 0 00.48 1.039 1.037 1.037 0 001.51-.52 1.027 1.027 0 00-.806-1.375 1.038 1.038 0 00-.404.016zm3.135-.744a1.037 1.037 0 00-.786.84 1.03 1.03 0 00.479 1.043 1.039 1.039 0 001.515-.519 1.029 1.029 0 00-.427-1.238 1.037 1.037 0 00-.782-.126zm3.131-.733a1.037 1.037 0 00-.783.84 1.028 1.028 0 00.48 1.043 1.039 1.039 0 001.514-.52 1.028 1.028 0 00-.428-1.237 1.04 1.04 0 00-.783-.126zm3.134-.751a1.037 1.037 0 00-.783.84 1.029 1.029 0 00.48 1.043 1.039 1.039 0 001.515-.522 1.029 1.029 0 00-.43-1.237 1.036 1.036 0 00-.782-.124zm3.374 1.292c.572 0 1.036-.462 1.036-1.032 0-.57-.464-1.032-1.036-1.032-.572 0-1.036.462-1.036 1.032 0 .57.464 1.032 1.036 1.032zm4.163-1.735a1.033 1.033 0 00-.99-1.075 1.034 1.034 0 00-1.08.986c-.025.57.419 1.05.99 1.075a1.034 1.034 0 001.08-.986zm2.105.248c.572 0 1.036-.462 1.036-1.032 0-.57-.464-1.032-1.036-1.032-.572 0-1.036.462-1.036 1.032 0 .57.464 1.032 1.036 1.032zm2.894-2.777a1.035 1.035 0 00-.781.839 1.027 1.027 0 00.479 1.04 1.037 1.037 0 001.511-.519 1.026 1.026 0 00-.427-1.235 1.037 1.037 0 00-.782-.125zm3.394 1.287c.572 0 1.036-.462 1.036-1.032 0-.57-.464-1.032-1.036-1.032-.572 0-1.036.462-1.036 1.032 0 .57.464 1.032 1.036 1.032zm2.916-2.773a1.035 1.035 0 00-.78.838 1.027 1.027 0 00.479 1.04 1.037 1.037 0 001.511-.517 1.027 1.027 0 00-.427-1.236 1.04 1.04 0 00-.783-.125zm3.157-.758a1.035 1.035 0 00-.78.84 1.023 1.023 0 00.48 1.039 1.037 1.037 0 001.51-.519 1.03 1.03 0 00-1.21-1.36zm3.425 1.283a1.033 1.033 0 001.008-1.059 1.034 1.034 0 00-1.063-1.004 1.033 1.033 0 00-1.008 1.058c.015.57.491 1.02 1.063 1.005zm2.885-2.78a1.039 1.039 0 00-.783.841 1.028 1.028 0 00.48 1.042 1.04 1.04 0 001.514-.521 1.027 1.027 0 00-.429-1.237 1.04 1.04 0 00-.782-.125zm3.395 1.287c.573 0 1.036-.462 1.036-1.032 0-.57-.463-1.032-1.036-1.032-.572 0-1.036.462-1.036 1.032 0 .57.464 1.032 1.036 1.032zm4.184-1.739a1.033 1.033 0 00-.99-1.076 1.034 1.034 0 00-1.08.986c-.025.57.419 1.051.99 1.076a1.034 1.034 0 001.08-.986zm1.889-1.792a1.028 1.028 0 00-.3 1.879 1.036 1.036 0 001.511-.519 1.02 1.02 0 00-.132-.962 1.033 1.033 0 00-1.079-.398zm4.272.788a1.03 1.03 0 00-.339-1.42 1.038 1.038 0 00-1.425.338 1.03 1.03 0 00.339 1.42 1.038 1.038 0 001.425-.338zm2.038-2.285a1.034 1.034 0 00-.702 1.434 1.033 1.033 0 00.98.602 1.039 1.039 0 00.933-.672 1.034 1.034 0 00-1.211-1.363zm3.425 1.284a1.034 1.034 0 001.009-1.058 1.034 1.034 0 00-1.063-1.005 1.034 1.034 0 00-1.009 1.059c.015.57.491 1.02 1.063 1.004zm2.888-2.78a1.037 1.037 0 00-.784.84 1.036 1.036 0 00.48 1.042 1.036 1.036 0 001.551-1.117 1.04 1.04 0 00-1.247-.765zm3.395 1.288c.572 0 1.036-.462 1.036-1.032 0-.57-.464-1.032-1.036-1.032-.572 0-1.036.462-1.036 1.032 0 .57.464 1.032 1.036 1.032zm2.917-2.783a1.031 1.031 0 00-.706 1.427 1.036 1.036 0 001.909-.06 1.028 1.028 0 00-.799-1.38 1.038 1.038 0 00-.404.013zm3.154-.749a1.028 1.028 0 00-.304 1.883 1.039 1.039 0 001.514-.52 1.03 1.03 0 00-.427-1.238 1.04 1.04 0 00-.783-.125zm4.622 1.81a1.034 1.034 0 00-.99-1.075 1.033 1.033 0 10-.09 2.062 1.034 1.034 0 001.08-.987zm1.578.812a1.04 1.04 0 00-.824.805 1.031 1.031 0 001.01 1.242 1.038 1.038 0 00.961-.636 1.027 1.027 0 00-.376-1.251 1.039 1.039 0 00-.771-.16zm2.739 1.832a1.037 1.037 0 00-.823.804 1.028 1.028 0 00.434 1.065 1.036 1.036 0 001.596-1.056 1.03 1.03 0 00-.435-.654 1.04 1.04 0 00-.772-.16zm2.738 1.833a1.038 1.038 0 00-.815.81 1.031 1.031 0 001.013 1.234 1.037 1.037 0 00.959-.634 1.022 1.022 0 00-.094-.969 1.027 1.027 0 00-.658-.44 1.043 1.043 0 00-.405 0zm2.74 1.831a1.04 1.04 0 00-.824.805 1.036 1.036 0 00.434 1.064 1.04 1.04 0 001.537-.458 1.027 1.027 0 00-.376-1.251 1.039 1.039 0 00-.771-.16zm2.738 1.834a1.038 1.038 0 00-.816.81 1.031 1.031 0 001.014 1.234 1.04 1.04 0 00.958-.635 1.031 1.031 0 00-1.156-1.41zm2.739 1.833a1.034 1.034 0 00-.764 1.408 1.031 1.031 0 00.961.638 1.037 1.037 0 00.957-.645 1.03 1.03 0 00-1.154-1.4zm2.736 1.832a1.032 1.032 0 10.764 1.874 1.033 1.033 0 00.007-1.715 1.038 1.038 0 00-.771-.16zm2.742 1.833a1.04 1.04 0 00-.824.805 1.037 1.037 0 00.435 1.064 1.042 1.042 0 001.154.004 1.035 1.035 0 00.442-1.061 1.03 1.03 0 00-1.207-.812zm2.737 1.831a1.04 1.04 0 00-.823.805 1.028 1.028 0 00.434 1.064 1.037 1.037 0 001.537-.458 1.03 1.03 0 00-.376-1.251 1.04 1.04 0 00-.772-.16zm2.74 1.833a1.033 1.033 0 00-.39 1.87 1.043 1.043 0 001.154.005 1.033 1.033 0 00-.764-1.874zm2.738 1.842a1.04 1.04 0 00-.824.804 1.036 1.036 0 00.434 1.065 1.04 1.04 0 001.537-.458 1.027 1.027 0 00-.376-1.25 1.042 1.042 0 00-.771-.16zm2.74 1.823a1.04 1.04 0 00-.824.805 1.032 1.032 0 001.01 1.242 1.037 1.037 0 00.961-.636 1.027 1.027 0 00-.376-1.252 1.035 1.035 0 00-.771-.159zm3.138 3.855a1.038 1.038 0 00.813-.813 1.032 1.032 0 00-1.022-1.23 1.039 1.039 0 00-.954.644 1.027 1.027 0 00.389 1.248c.227.15.506.205.774.152zM24.098 106.003a1.033 1.033 0 00-.304 1.883 1.035 1.035 0 001.15-.043 1.029 1.029 0 00-.063-1.714 1.039 1.039 0 00-.783-.126zm3.134-.741a1.033 1.033 0 00-.302 1.883 1.037 1.037 0 001.55-1.12 1.037 1.037 0 00-1.247-.763zm3.134-.744a1.027 1.027 0 00-.302 1.879 1.034 1.034 0 001.549-1.113 1.038 1.038 0 00-1.247-.766zm3.134-.743a1.033 1.033 0 10.847 1.84 1.027 1.027 0 00-.064-1.714 1.042 1.042 0 00-.783-.126zm3.405 1.291a1.034 1.034 0 001.008-1.058 1.034 1.034 0 00-1.063-1.005 1.034 1.034 0 00-1.008 1.059c.015.569.49 1.019 1.063 1.004zm3.987-1.24a1.03 1.03 0 00-.34-1.42 1.038 1.038 0 00-1.425.338 1.03 1.03 0 00.34 1.42 1.04 1.04 0 001.425-.338zm2.28-.245a1.034 1.034 0 001.008-1.059 1.034 1.034 0 00-1.063-1.004 1.032 1.032 0 10.055 2.063zm2.862-2.777a1.038 1.038 0 00-.783.84 1.026 1.026 0 00.48 1.042 1.044 1.044 0 001.15-.042 1.037 1.037 0 00.4-1.075 1.034 1.034 0 00-1.247-.765zm3.134-.742a1.032 1.032 0 00-.698 1.432 1.032 1.032 0 001.546.404 1.028 1.028 0 00-.444-1.851 1.036 1.036 0 00-.404.015zm3.134-.743a1.035 1.035 0 00-.78.839 1.028 1.028 0 001.06 1.191 1.033 1.033 0 00.93-.67 1.028 1.028 0 00-.806-1.376 1.038 1.038 0 00-.404.016zm3.134-.742a1.037 1.037 0 00-.783.84 1.028 1.028 0 00.48 1.043 1.044 1.044 0 001.15-.042 1.036 1.036 0 00.4-1.075 1.028 1.028 0 00-.843-.781 1.038 1.038 0 00-.404.015zm3.134-.745a1.038 1.038 0 00-.79.837 1.028 1.028 0 00.476 1.046 1.039 1.039 0 001.517-.518 1.028 1.028 0 00-.425-1.236 1.04 1.04 0 00-.778-.129zm3.132-.742a1.036 1.036 0 00-.783.841 1.029 1.029 0 00.48 1.043 1.04 1.04 0 001.515-.522 1.027 1.027 0 00-.43-1.237 1.037 1.037 0 00-.782-.124zm3.136-.743a1.035 1.035 0 00-.78.84 1.027 1.027 0 00.48 1.04 1.037 1.037 0 001.51-.52 1.026 1.026 0 00-.428-1.235 1.039 1.039 0 00-.782-.125zm3.132-.743a1.037 1.037 0 00-.783.84 1.028 1.028 0 00.48 1.043 1.04 1.04 0 001.514-.52 1.028 1.028 0 00-.428-1.238 1.04 1.04 0 00-.783-.125zm3.134-.744a1.037 1.037 0 00-.783.84 1.028 1.028 0 00.48 1.043 1.039 1.039 0 001.514-.519 1.028 1.028 0 00-.428-1.238 1.04 1.04 0 00-.783-.125zm3.134-.74a1.034 1.034 0 00-.781.838 1.026 1.026 0 00.479 1.04 1.037 1.037 0 001.511-.519 1.026 1.026 0 00-.427-1.235 1.038 1.038 0 00-.782-.125zm3.132-.752a1.036 1.036 0 00-.783.84 1.028 1.028 0 00.48 1.043 1.04 1.04 0 001.515-.522 1.028 1.028 0 00-.43-1.236 1.04 1.04 0 00-.782-.125zm3.134-.736a1.037 1.037 0 00-.783.84 1.029 1.029 0 00.48 1.043 1.04 1.04 0 001.514-.52 1.028 1.028 0 00-.428-1.237 1.04 1.04 0 00-.783-.126zm3.134-.742a1.036 1.036 0 00-.783.84 1.029 1.029 0 00.48 1.042 1.04 1.04 0 001.514-.52 1.028 1.028 0 00-.428-1.237 1.039 1.039 0 00-.783-.126zM21.15 102.565a1.033 1.033 0 00.304-1.883 1.035 1.035 0 00-1.15.043 1.029 1.029 0 00.063 1.714c.234.144.515.189.782.126zm.313 1.312a1.033 1.033 0 10.846 1.84 1.03 1.03 0 00-.063-1.714 1.038 1.038 0 00-.783-.126zm-1.06-4.434a1.035 1.035 0 00.78-.84 1.026 1.026 0 00-.48-1.039 1.037 1.037 0 00-1.51.519 1.026 1.026 0 00.428 1.235c.234.143.515.188.782.125zm.047-4.089a1.034 1.034 0 00-.99-1.075 1.034 1.034 0 00-1.08.986c-.024.57.419 1.05.99 1.076a1.034 1.034 0 001.08-.987zm-1.537-2.153a1.037 1.037 0 00.783-.84 1.028 1.028 0 00-.48-1.042 1.039 1.039 0 00-1.514.52 1.03 1.03 0 00.428 1.237c.234.144.515.189.783.126zm-.743-3.121a1.037 1.037 0 00.784-.84 1.028 1.028 0 00-.48-1.043 1.04 1.04 0 00-1.514.52 1.028 1.028 0 00.428 1.237c.233.144.515.19.782.126zm-.75-3.124a1.038 1.038 0 00.783-.84 1.028 1.028 0 00-.479-1.043 1.04 1.04 0 00-1.514.52 1.028 1.028 0 00.427 1.238c.234.143.516.188.783.125zm-.746-3.12a1.035 1.035 0 00.78-.839 1.026 1.026 0 00-.479-1.04 1.037 1.037 0 00-1.51.518 1.025 1.025 0 00.426 1.237 1.037 1.037 0 00.783.124zm-.744-3.121a1.036 1.036 0 00.783-.841 1.028 1.028 0 00-.48-1.042 1.04 1.04 0 00-1.515.521 1.028 1.028 0 00.43 1.237c.233.143.514.188.782.125zm-.747-3.122a1.038 1.038 0 00.783-.841 1.028 1.028 0 00-.48-1.042 1.039 1.039 0 00-1.514.521 1.029 1.029 0 00.429 1.238 1.037 1.037 0 00.782.124zm-.746-3.12a1.037 1.037 0 00.783-.84 1.028 1.028 0 00-.479-1.042 1.039 1.039 0 00-1.514.519 1.029 1.029 0 00.428 1.237c.233.143.515.189.782.126zm-.747-3.122a1.037 1.037 0 00.784-.84 1.028 1.028 0 00-.48-1.042 1.039 1.039 0 00-1.514.519 1.03 1.03 0 00.428 1.238c.234.143.515.189.783.125zm-.985-3.093c.572 0 1.036-.462 1.036-1.032 0-.57-.464-1.032-1.036-1.032-.572 0-1.036.462-1.036 1.032 0 .57.464 1.032 1.036 1.032zm-.239-3.203a1.034 1.034 0 001.005-1.063 1.035 1.035 0 00-1.067-1 1.034 1.034 0 00-1.005 1.062c.017.57.495 1.018 1.067 1zm-1.252-3.039c.572 0 1.036-.462 1.036-1.032 0-.57-.463-1.032-1.036-1.032-.572 0-1.036.462-1.036 1.032 0 .57.464 1.032 1.036 1.032zm-.716-3.122a1.034 1.034 0 001.008-1.058 1.034 1.034 0 00-1.063-1.005 1.034 1.034 0 00-1.008 1.059c.015.57.49 1.019 1.063 1.004zm-.535-3.149a1.037 1.037 0 00.784-.84 1.028 1.028 0 00-.48-1.043 1.04 1.04 0 00-1.514.52 1.028 1.028 0 00.428 1.237c.233.144.515.189.782.126zm-.746-3.122a1.037 1.037 0 00.783-.84 1.028 1.028 0 00-.479-1.043 1.039 1.039 0 00-1.514.52 1.028 1.028 0 00.427 1.237c.234.144.516.189.783.126zm-.747-3.122a1.035 1.035 0 00.78-.839 1.026 1.026 0 00-.478-1.04 1.037 1.037 0 00-1.51.517 1.026 1.026 0 00.426 1.237 1.037 1.037 0 00.783.125zm-.746-3.121a1.035 1.035 0 00.782-.84 1.026 1.026 0 00-.479-1.04 1.037 1.037 0 00-1.511.52 1.026 1.026 0 00.427 1.234c.234.144.515.189.781.125zm-.744-3.122a1.038 1.038 0 00.783-.841 1.028 1.028 0 00-.48-1.043 1.039 1.039 0 00-1.514.522 1.028 1.028 0 00.429 1.238 1.037 1.037 0 00.782.124zm-.714-2.988a1.035 1.035 0 00.78-.84 1.026 1.026 0 00-.48-1.039 1.037 1.037 0 00-1.51.52 1.026 1.026 0 00.428 1.234c.234.143.515.188.782.125zm81.627 52.412a1.03 1.03 0 00-.34-1.42 1.038 1.038 0 00-1.424.339 1.03 1.03 0 00.339 1.42 1.038 1.038 0 001.425-.339zm2.891-.613a1.034 1.034 0 001.004-1.063 1.035 1.035 0 00-1.067-1.001 1.034 1.034 0 00-1.005 1.063c.018.57.495 1.018 1.068 1zm2.256-2.408a1.037 1.037 0 00-.785.84 1.03 1.03 0 00.479 1.043 1.04 1.04 0 001.515-.52 1.029 1.029 0 00-.427-1.237 1.04 1.04 0 00-.782-.126zm3.132-.743a1.036 1.036 0 00-.783.84 1.028 1.028 0 00.48 1.042 1.039 1.039 0 001.514-.519 1.03 1.03 0 00-.428-1.238 1.04 1.04 0 00-.783-.125zm3.134-.742a1.037 1.037 0 00-.783.841 1.029 1.029 0 00.48 1.042 1.039 1.039 0 001.515-.521 1.027 1.027 0 00-.43-1.237 1.039 1.039 0 00-.782-.125zm3.134-.743a1.035 1.035 0 00-.78.839 1.03 1.03 0 001.059 1.192 1.037 1.037 0 00.931-.67 1.028 1.028 0 00-.427-1.236 1.04 1.04 0 00-.783-.125zm3.134-.743a1.035 1.035 0 00-.783.84 1.033 1.033 0 001.061 1.195 1.038 1.038 0 00.933-.672 1.029 1.029 0 00-.428-1.238 1.04 1.04 0 00-.783-.126zm3.134-.736a1.036 1.036 0 00-.78.84 1.03 1.03 0 001.06 1.19 1.038 1.038 0 00.931-.67 1.02 1.02 0 00-.132-.963 1.02 1.02 0 00-.675-.413 1.037 1.037 0 00-.404.016zm3.154-.755a1.034 1.034 0 00-.702 1.433 1.032 1.032 0 00.98.602 1.042 1.042 0 00.933-.672 1.029 1.029 0 00-.428-1.238 1.04 1.04 0 00-.783-.125zm3.156-.748a1.034 1.034 0 00-.701 1.435 1.037 1.037 0 001.949-.671 1.035 1.035 0 00-1.248-.763zm3.157-.749a1.033 1.033 0 00-.703 1.434 1.033 1.033 0 00.98.601 1.039 1.039 0 00.933-.672c.071-.19.084-.399.037-.598a1.038 1.038 0 00-1.247-.765zm3.156-.753a1.033 1.033 0 00-.703 1.433 1.036 1.036 0 001.95-.668 1.02 1.02 0 00-.464-.64 1.04 1.04 0 00-.783-.125zm3.156-.742a1.036 1.036 0 00-.78.84 1.022 1.022 0 00.48 1.04 1.036 1.036 0 001.51-.52 1.03 1.03 0 00-1.21-1.36zm3.154-.749a1.037 1.037 0 00-.784.84 1.036 1.036 0 00.48 1.043 1.038 1.038 0 001.514-.52 1.026 1.026 0 00-.427-1.238 1.04 1.04 0 00-.783-.125zm3.425 1.284a1.033 1.033 0 10-.054-2.063 1.034 1.034 0 00-1.009 1.058c.015.57.491 1.02 1.063 1.005zm2.887-2.779a1.035 1.035 0 00-.78.84 1.03 1.03 0 001.06 1.19 1.038 1.038 0 00.931-.67 1.032 1.032 0 00-.429-1.235 1.04 1.04 0 00-.782-.125zm3.396 1.287c.572 0 1.036-.462 1.036-1.032 0-.57-.464-1.032-1.036-1.032-.573 0-1.036.462-1.036 1.032 0 .57.463 1.032 1.036 1.032zm2.922-2.784a1.036 1.036 0 00-.78.84 1.03 1.03 0 001.059 1.191 1.037 1.037 0 00.931-.669 1.037 1.037 0 00-.13-.963 1.048 1.048 0 00-.676-.414 1.04 1.04 0 00-.404.015zm3.149-.746a1.034 1.034 0 00-.702 1.434 1.037 1.037 0 001.949-.671 1.034 1.034 0 00-1.247-.764zm3.156-.75a1.033 1.033 0 00-.703 1.433 1.033 1.033 0 00.98.602 1.038 1.038 0 00.933-.672 1.035 1.035 0 00-1.21-1.363zm3.15-.748a1.036 1.036 0 00-.78.84 1.022 1.022 0 00.48 1.04 1.036 1.036 0 001.51-.52 1.03 1.03 0 00-1.21-1.36zm3.43 1.281a1.034 1.034 0 001.009-1.058 1.034 1.034 0 00-1.063-1.005 1.033 1.033 0 00-1.008 1.059c.015.57.491 1.019 1.062 1.004zm2.888-2.769a1.03 1.03 0 00-.307 1.882 1.041 1.041 0 001.516-.519 1.027 1.027 0 00-.428-1.237 1.038 1.038 0 00-.781-.126zm3.483-.804a1.034 1.034 0 001.005-1.063 1.035 1.035 0 00-1.067-1.001 1.034 1.034 0 00-1.005 1.063c.017.57.495 1.017 1.067 1zm.786-4.306a1.032 1.032 0 00.359 2.023 1.037 1.037 0 00.905-.709 1.027 1.027 0 00-.477-1.22 1.032 1.032 0 00-.787-.094zm1.617-2.865a1.036 1.036 0 00-.751.87c-.024.203.012.408.104.59a1.04 1.04 0 001.565.346 1.027 1.027 0 00.357-1.09 1.032 1.032 0 00-1.275-.716zm1.615-2.863a1.038 1.038 0 00-.748.871 1.034 1.034 0 001.109 1.15 1.039 1.039 0 00.905-.709 1.028 1.028 0 00-.171-.958 1.043 1.043 0 00-1.095-.354zm1.617-2.866a1.034 1.034 0 00-.645 1.461 1.035 1.035 0 001.004.562 1.038 1.038 0 00.905-.71 1.037 1.037 0 00-.171-.958 1.029 1.029 0 00-.69-.386 1.042 1.042 0 00-.403.031zm1.616-2.865a1.032 1.032 0 00.359 2.023 1.037 1.037 0 00.905-.709 1.027 1.027 0 00-.477-1.22 1.042 1.042 0 00-.787-.094zm1.617-2.867a1.036 1.036 0 00-.749.87 1.03 1.03 0 00.521 1.023 1.04 1.04 0 001.148-.088 1.027 1.027 0 00.357-1.09 1.04 1.04 0 00-1.277-.715zm1.617-2.863a1.028 1.028 0 00-.23 1.893 1.037 1.037 0 001.506-1.178 1.037 1.037 0 00-1.276-.715zm1.615-2.864a1.034 1.034 0 00-.643 1.462 1.033 1.033 0 001.005.56 1.039 1.039 0 00.904-.71 1.036 1.036 0 00-.478-1.22 1.035 1.035 0 00-.788-.092zm1.618-2.865a1.037 1.037 0 00-.75.87 1.03 1.03 0 001.109 1.153 1.037 1.037 0 00.904-.71 1.02 1.02 0 00-.171-.958 1.035 1.035 0 00-1.092-.355zm1.625-2.866a1.036 1.036 0 00-.749.871 1.03 1.03 0 00.521 1.023 1.04 1.04 0 001.493-.58 1.027 1.027 0 00-.17-.957 1.045 1.045 0 00-1.095-.356zm1.609-2.865a1.033 1.033 0 10.918 1.806 1.036 1.036 0 00.358-1.09 1.036 1.036 0 00-1.276-.716zm1.61-2.865a1.032 1.032 0 10.919 1.805 1.036 1.036 0 00.358-1.09 1.037 1.037 0 00-1.277-.715zm1.621-2.863a1.037 1.037 0 00-.749.871 1.03 1.03 0 00.523 1.022 1.037 1.037 0 001.503-1.18 1.019 1.019 0 00-.49-.62 1.033 1.033 0 00-.787-.093zm.261-3.358a1.028 1.028 0 00-.644 1.46 1.039 1.039 0 001.909-.146 1.036 1.036 0 00-.17-.958 1.043 1.043 0 00-1.095-.356zm-10.979 9.188a6.132 6.132 0 000-8.697 6.191 6.191 0 00-8.731 0 6.132 6.132 0 000 8.697 6.191 6.191 0 008.731 0zM30.752 74.163l-4.774-.088-3.007-22.572 22.714-5.385 1.233 5.2-17.94 4.253 1.517 12.358c.7-.658 1.62-1.337 2.76-2.035 1.161-.704 2.553-1.248 4.174-1.632 2.048-.486 3.966-.566 5.756-.24 1.785.304 3.4.97 4.842 1.998 1.463 1.024 2.715 2.376 3.756 4.056 1.04 1.68 1.828 3.645 2.361 5.895.505 2.129.675 4.155.51 6.078-.145 1.918-.636 3.684-1.474 5.295-.843 1.592-2.06 2.962-3.65 4.11-1.571 1.143-3.542 1.996-5.914 2.558-1.784.423-3.534.581-5.25.474a13.433 13.433 0 01-4.799-1.271c-1.481-.74-2.798-1.777-3.949-3.11-1.135-1.358-2.05-3.047-2.743-5.067l5.352-1.269c.637 1.605 1.456 2.888 2.455 3.85a7.351 7.351 0 003.47 1.907c1.331.285 2.787.239 4.368-.136 1.338-.317 2.469-.831 3.392-1.543a7.27 7.27 0 002.14-2.627c.502-1.04.79-2.221.86-3.544.093-1.328-.044-2.762-.409-4.303-.332-1.398-.832-2.65-1.5-3.755-.67-1.105-1.495-2.012-2.476-2.72a7.8 7.8 0 00-3.258-1.412c-1.215-.248-2.531-.203-3.95.133-1.886.447-3.255 1.04-4.108 1.777-.832.733-1.652 1.655-2.459 2.767zM74.74 39.165l.486-.116 1.132 4.774-.487.115c-2.98.707-5.358 1.785-7.134 3.233-1.78 1.43-3.067 3.094-3.858 4.994-.796 1.88-1.22 3.886-1.27 6.018a25.557 25.557 0 00.688 6.292l1.543 6.507c.466 1.967 1.113 3.655 1.94 5.064.821 1.39 1.76 2.506 2.816 3.347 1.056.842 2.153 1.406 3.292 1.693a7.205 7.205 0 003.41.026c1.298-.308 2.396-.825 3.294-1.552a7.531 7.531 0 002.057-2.703c.493-1.08.775-2.282.847-3.606.072-1.323-.068-2.724-.419-4.204a15.094 15.094 0 00-1.387-3.685c-.618-1.16-1.374-2.137-2.269-2.931a7.355 7.355 0 00-3.065-1.682c-1.127-.332-2.38-.335-3.759-.008a8.973 8.973 0 00-4.105 2.194 10.234 10.234 0 00-2.608 3.765c-.563 1.418-.734 2.861-.514 4.33l-2.988.676c-.254-2.338-.186-4.399.205-6.183.406-1.809 1.066-3.357 1.981-4.645a11.356 11.356 0 013.39-3.18 14.923 14.923 0 014.448-1.826c2.21-.524 4.214-.56 6.012-.108 1.799.451 3.38 1.253 4.746 2.407 1.36 1.133 2.491 2.514 3.391 4.142a19.281 19.281 0 012.022 5.141c.495 2.088.665 4.114.51 6.078-.156 1.964-.658 3.774-1.507 5.431-.828 1.653-2.003 3.066-3.523 4.24-1.52 1.174-3.405 2.028-5.655 2.561-2.392.567-4.596.576-6.61.026a13.788 13.788 0 01-5.377-2.9 18.53 18.53 0 01-3.943-4.846 22.237 22.237 0 01-2.331-5.903l-.627-2.646a45.914 45.914 0 01-1.235-9.406c-.083-3.15.358-6.123 1.321-8.92.985-2.803 2.684-5.25 5.1-7.344 2.416-2.093 5.762-3.646 10.04-4.66zm45.658 8.893l1.601 6.75c.86 3.63 1.261 6.767 1.204 9.414-.058 2.647-.514 4.875-1.37 6.684-.856 1.809-2.064 3.262-3.623 4.36-1.544 1.072-3.391 1.864-5.54 2.373-1.702.404-3.324.563-4.864.479a11.496 11.496 0 01-4.375-1.114c-1.361-.684-2.628-1.69-3.799-3.018-1.171-1.328-2.227-3.026-3.167-5.094-.94-2.068-1.754-4.552-2.44-7.45l-1.601-6.751c-.86-3.629-1.257-6.746-1.19-9.353.087-2.611.564-4.801 1.429-6.57.86-1.788 2.065-3.208 3.614-4.26 1.57-1.058 3.418-1.839 5.547-2.343 1.723-.409 3.355-.571 4.895-.486 1.556.059 3.009.41 4.361 1.053 1.346.623 2.593 1.59 3.739 2.903 1.162 1.288 2.21 2.956 3.145 5.003.935 2.048 1.747 4.521 2.434 7.42zm-3.839 9.004l-2.04-8.605c-.471-1.987-1.006-3.702-1.605-5.144-.584-1.467-1.226-2.685-1.926-3.654-.701-.969-1.475-1.706-2.323-2.211a6.185 6.185 0 00-2.688-.905c-.948-.117-1.97-.047-3.064.213-1.338.317-2.464.852-3.378 1.604-.918.731-1.605 1.718-2.06 2.961-.434 1.238-.627 2.772-.579 4.602.049 1.83.369 3.991.96 6.484l2.04 8.606c.471 1.986.998 3.713 1.582 5.18.604 1.463 1.271 2.697 2.001 3.701.726.984 1.508 1.752 2.345 2.303.837.55 1.732.895 2.686 1.033.968.113 1.99.042 3.064-.213 1.379-.327 2.523-.876 3.431-1.648.909-.772 1.576-1.798 2.001-3.076.44-1.303.624-2.878.55-4.723-.078-1.866-.41-4.035-.997-6.508zm19.136 6.159l.226.898-3.988 1.007 1.862 7.374-1.091.275-2.088-8.271 5.079-1.283zm5.666 3.918l-2.21.558-.225-.892 2.21-.558c.428-.108.757-.264.988-.467.231-.204.376-.442.436-.715a1.842 1.842 0 00-.022-.876 1.827 1.827 0 00-.39-.754 1.427 1.427 0 00-.731-.456c-.305-.088-.671-.079-1.099.03l-1.954.493 1.862 7.374-1.096.277-2.089-8.272 3.051-.77c.625-.158 1.18-.183 1.666-.076.487.106.89.323 1.21.649.319.322.54.728.664 1.216.133.53.136 1.011.007 1.443-.129.431-.384.8-.766 1.106-.383.302-.887.532-1.512.69zm9.321-3.919l.225.892-4.477 1.13-.225-.892 4.477-1.13zm-5.205-2.469l2.089 8.272-1.097.276-2.088-8.271 1.096-.277zm5.261-1.328l2.089 8.271-1.091.276-2.089-8.272 1.091-.275zm3.755 7.258a.665.665 0 01.051-.49c.082-.154.229-.257.441-.31.212-.054.389-.033.53.065a.649.649 0 01.284.405.644.644 0 01-.058.487c-.08.149-.225.25-.437.303-.212.054-.391.034-.535-.058a.657.657 0 01-.276-.402z" fill="#fff"/></svg>