<svg width="186" height="113" viewBox="0 0 186 113" fill="none" xmlns="http://www.w3.org/2000/svg">
<path d="M182.027 26.1667L146.708 1.904C145.46 1.0484 144.045 0.463604 142.555 0.187472C141.065 -0.0886601 139.533 -0.0499661 138.059 0.301054L77.3321 14.6875L74.4637 15.3668L3.17029 32.2679C2.10662 32.52 1.187 33.1825 0.613637 34.1099C0.0402712 35.0372 -0.139901 36.1534 0.112734 37.213L17.4664 109.845C17.5917 110.369 17.8195 110.864 18.1368 111.301C18.4541 111.738 18.8547 112.108 19.3157 112.391C19.7767 112.673 20.2891 112.863 20.8236 112.948C21.3581 113.034 21.9043 113.013 22.4309 112.888L93.7242 95.9872L96.5947 95.3079L158.021 80.7451C159.273 80.4486 160.448 79.8936 161.47 79.1159C162.492 78.3382 163.339 77.3553 163.956 76.2308L184.876 38.0826C185.964 36.0972 186.276 33.7803 185.75 31.5796C185.223 29.3789 183.897 27.4504 182.027 26.1667Z" fill="#6C7A89"/>
<path d="M7.22148 35.3651C7.02207 35.4123 6.84122 35.5174 6.70181 35.6671C6.5624 35.8168 6.47069 36.0043 6.43829 36.2059C6.40589 36.4075 6.43425 36.6141 6.51979 36.7996C6.60533 36.9852 6.7442 37.1413 6.91883 37.2481C7.09346 37.355 7.29599 37.4079 7.50081 37.4001C7.70563 37.3923 7.90351 37.3242 8.06943 37.2043C8.23535 37.0844 8.36185 36.9182 8.43291 36.7267C8.50397 36.5352 8.5164 36.327 8.46864 36.1285C8.4372 35.9967 8.37999 35.8724 8.30026 35.7627C8.22054 35.653 8.11988 35.56 8.00403 35.4891C7.88818 35.4182 7.75943 35.3707 7.62515 35.3495C7.49087 35.3282 7.35369 35.3335 7.22148 35.3651Z" fill="white"/>
<path d="M10.3555 34.6218C10.1567 34.6693 9.97654 34.7744 9.83773 34.9238C9.69892 35.0733 9.6077 35.2604 9.57559 35.4614C9.54347 35.6625 9.57191 35.8685 9.6573 36.0535C9.74269 36.2385 9.88121 36.3941 10.0554 36.5007C10.2295 36.6073 10.4314 36.6601 10.6357 36.6524C10.8399 36.6447 11.0373 36.5769 11.2029 36.4575C11.3685 36.3382 11.4948 36.1726 11.566 35.9817C11.6371 35.7908 11.6499 35.5833 11.6026 35.3852C11.5387 35.1193 11.3714 34.8896 11.1376 34.7465C10.9037 34.6034 10.6225 34.5585 10.3555 34.6218Z" fill="white"/>
<path d="M13.4894 33.8783C13.2901 33.9255 13.1092 34.0304 12.9698 34.18C12.8303 34.3295 12.7385 34.5169 12.7059 34.7184C12.6734 34.9199 12.7016 35.1265 12.7869 35.312C12.8722 35.4976 13.0109 35.6538 13.1853 35.7609C13.3598 35.8679 13.5622 35.921 13.7669 35.9135C13.9717 35.906 14.1696 35.8382 14.3357 35.7186C14.5017 35.599 14.6284 35.4331 14.6998 35.2417C14.7712 35.0504 14.784 34.8423 14.7366 34.6437C14.6726 34.3778 14.5054 34.1479 14.2717 34.0045C14.038 33.861 13.7567 33.8157 13.4894 33.8783Z" fill="white"/>
<path d="M16.6234 33.135C16.4241 33.1821 16.2432 33.2871 16.1038 33.4366C15.9643 33.5861 15.8725 33.7735 15.8399 33.975C15.8074 34.1765 15.8356 34.3831 15.9209 34.5687C16.0062 34.7542 16.1449 34.9104 16.3193 35.0175C16.4938 35.1246 16.6962 35.1777 16.9009 35.1702C17.1057 35.1626 17.3036 35.0948 17.4697 34.9752C17.6357 34.8556 17.7624 34.6897 17.8338 34.4984C17.9052 34.307 17.918 34.0989 17.8706 33.9004C17.8071 33.6341 17.64 33.404 17.4061 33.2604C17.1723 33.1169 16.8907 33.0718 16.6234 33.135Z" fill="white"/>
<path d="M19.7574 32.3936C19.5585 32.4407 19.3781 32.5456 19.2389 32.6949C19.0998 32.8442 19.0083 33.0312 18.9759 33.2324C18.9435 33.4335 18.9717 33.6397 19.0569 33.8248C19.1422 34.01 19.2807 34.1658 19.4548 34.2726C19.629 34.3793 19.831 34.4323 20.0353 34.4247C20.2397 34.4171 20.4372 34.3493 20.6029 34.2299C20.7686 34.1105 20.895 33.9448 20.9661 33.7538C21.0373 33.5628 21.05 33.3551 21.0026 33.157C20.9391 32.8913 20.7722 32.6616 20.5387 32.5184C20.3052 32.3753 20.0242 32.3304 19.7574 32.3936Z" fill="white"/>
<path d="M22.8894 31.6543C22.6901 31.7014 22.5092 31.8064 22.3698 31.9559C22.2303 32.1054 22.1385 32.2928 22.1059 32.4943C22.0734 32.6958 22.1015 32.9024 22.1869 33.088C22.2722 33.2735 22.4109 33.4297 22.5853 33.5368C22.7598 33.6438 22.9622 33.697 23.1669 33.6894C23.3717 33.6819 23.5696 33.6141 23.7357 33.4945C23.9017 33.3749 24.0284 33.209 24.0998 33.0177C24.1712 32.8263 24.184 32.6182 24.1366 32.4197C24.0731 32.1534 23.906 31.9232 23.6721 31.7797C23.4383 31.6362 23.1567 31.591 22.8894 31.6543Z" fill="white"/>
<path d="M26.0154 30.9069C25.816 30.9541 25.6352 31.0591 25.4957 31.2086C25.3562 31.3581 25.2644 31.5455 25.2319 31.747C25.1993 31.9485 25.2275 32.1551 25.3128 32.3407C25.3982 32.5262 25.5368 32.6824 25.7113 32.7895C25.8857 32.8965 26.0881 32.9497 26.2929 32.9421C26.4976 32.9346 26.6956 32.8668 26.8616 32.7472C27.0277 32.6276 27.1544 32.4617 27.2257 32.2703C27.2971 32.079 27.3099 31.8709 27.2625 31.6723C27.199 31.4061 27.032 31.1759 26.7981 31.0324C26.5642 30.8889 26.2827 30.8437 26.0154 30.9069Z" fill="white"/>
<path d="M29.3968 32.1993C29.9689 32.1993 30.4327 31.7373 30.4327 31.1674C30.4327 30.5975 29.9689 30.1355 29.3968 30.1355C28.8246 30.1355 28.3608 30.5975 28.3608 31.1674C28.3608 31.7373 28.8246 32.1993 29.3968 32.1993Z" fill="white"/>
<path d="M33.5625 30.4641C33.5872 29.8948 33.1439 29.4132 32.5723 29.3885C32.0007 29.3639 31.5173 29.8055 31.4925 30.3748C31.4678 30.9442 31.9111 31.4258 32.4827 31.4504C33.0543 31.4751 33.5377 31.0335 33.5625 30.4641Z" fill="white"/>
<path d="M35.4254 28.6788C35.2272 28.7266 35.0476 28.8317 34.9092 28.9809C34.7708 29.1301 34.6798 29.3168 34.6477 29.5174C34.6155 29.718 34.6436 29.9236 34.7285 30.1083C34.8133 30.293 34.9511 30.4486 35.1245 30.5555C35.2979 30.6624 35.4992 30.7159 35.703 30.7091C35.9068 30.7024 36.1041 30.6357 36.27 30.5176C36.4359 30.3995 36.563 30.2351 36.6354 30.0452C36.7077 29.8553 36.7221 29.6483 36.6766 29.4502C36.6461 29.3173 36.5894 29.1918 36.5098 29.0808C36.4302 28.9699 36.3292 28.8758 36.2128 28.8041C36.0965 28.7323 35.9669 28.6843 35.8317 28.6628C35.6966 28.6413 35.5585 28.6467 35.4254 28.6788Z" fill="white"/>
<path d="M38.5594 27.9354C38.3598 27.9822 38.1787 28.0869 38.039 28.2363C37.8992 28.3857 37.807 28.573 37.7742 28.7746C37.7414 28.9762 37.7693 29.1829 37.8545 29.3686C37.9397 29.5544 38.0783 29.7108 38.2527 29.818C38.4272 29.9252 38.6297 29.9785 38.8345 29.9711C39.0394 29.9636 39.2375 29.8958 39.4036 29.7762C39.5698 29.6566 39.6965 29.4906 39.7679 29.2991C39.8393 29.1077 39.852 28.8995 39.8045 28.7008C39.741 28.435 39.5743 28.2052 39.3408 28.0617C39.1074 27.9182 38.8264 27.8728 38.5594 27.9354Z" fill="white"/>
<path d="M41.6914 27.1941C41.492 27.2413 41.3111 27.3464 41.1717 27.4961C41.0323 27.6457 40.9406 27.8332 40.9082 28.0348C40.8758 28.2364 40.9042 28.4431 40.9897 28.6286C41.0752 28.8141 41.2141 28.9702 41.3887 29.0771C41.5634 29.184 41.7659 29.2369 41.9707 29.2291C42.1755 29.2213 42.3734 29.1532 42.5393 29.0333C42.7053 28.9134 42.8318 28.7472 42.9028 28.5557C42.9739 28.3642 42.9863 28.156 42.9385 27.9575C42.9071 27.8257 42.8499 27.7014 42.7702 27.5917C42.6905 27.482 42.5898 27.389 42.4739 27.3181C42.3581 27.2472 42.2293 27.1997 42.0951 27.1784C41.9608 27.1572 41.8236 27.1625 41.6914 27.1941Z" fill="white"/>
<path d="M44.8254 26.4446C44.626 26.4919 44.4451 26.597 44.3057 26.7467C44.1663 26.8963 44.0746 27.0838 44.0422 27.2854C44.0098 27.487 44.0382 27.6936 44.1237 27.8792C44.2092 28.0647 44.3481 28.2208 44.5227 28.3277C44.6974 28.4346 44.8999 28.4875 45.1047 28.4797C45.3095 28.4719 45.5074 28.4037 45.6734 28.2839C45.8393 28.164 45.9658 27.9978 46.0368 27.8063C46.1079 27.6148 46.1203 27.4066 46.0725 27.208C46.0086 26.9422 45.8413 26.7125 45.6075 26.5694C45.3737 26.4262 45.0924 26.3814 44.8254 26.4446Z" fill="white"/>
<path d="M47.9594 25.7074C47.76 25.7545 47.5792 25.8595 47.4397 26.009C47.3003 26.1585 47.2084 26.3459 47.1759 26.5474C47.1433 26.7489 47.1715 26.9555 47.2568 27.1411C47.3422 27.3266 47.4808 27.4828 47.6553 27.5899C47.8297 27.6969 48.0321 27.7501 48.2369 27.7425C48.4416 27.735 48.6396 27.6672 48.8056 27.5476C48.9717 27.428 49.0984 27.2621 49.1697 27.0708C49.2411 26.8794 49.2539 26.6713 49.2066 26.4728C49.143 26.2065 48.976 25.9764 48.7421 25.8328C48.5082 25.6893 48.2267 25.6441 47.9594 25.7074Z" fill="white"/>
<path d="M51.0934 24.9639C50.894 25.0111 50.7132 25.1161 50.5737 25.2656C50.4343 25.4151 50.3424 25.6025 50.3099 25.804C50.2773 26.0055 50.3055 26.2121 50.3908 26.3977C50.4762 26.5832 50.6148 26.7394 50.7893 26.8465C50.9637 26.9535 51.1661 27.0067 51.3709 26.9991C51.5756 26.9916 51.7736 26.9238 51.9396 26.8042C52.1057 26.6846 52.2324 26.5187 52.3038 26.3274C52.3751 26.136 52.3879 25.9279 52.3405 25.7294C52.277 25.4631 52.11 25.2329 51.8761 25.0894C51.6422 24.9459 51.3607 24.9007 51.0934 24.9639Z" fill="white"/>
<path d="M54.2274 24.2226C54.0286 24.2701 53.8485 24.3752 53.7096 24.5246C53.5708 24.6741 53.4796 24.8612 53.4475 25.0622C53.4154 25.2633 53.4438 25.4693 53.5292 25.6543C53.6146 25.8393 53.7531 25.9949 53.9273 26.1015C54.1014 26.2081 54.3034 26.2609 54.5076 26.2532C54.7119 26.2455 54.9093 26.1777 55.0748 26.0583C55.2404 25.939 55.3667 25.7734 55.4379 25.5825C55.509 25.3916 55.5218 25.1841 55.4745 24.986C55.4433 24.8541 55.3863 24.7296 55.3066 24.6197C55.227 24.5099 55.1263 24.4168 55.0104 24.3459C54.8945 24.2749 54.7656 24.2275 54.6312 24.2063C54.4969 24.1852 54.3596 24.1907 54.2274 24.2226Z" fill="white"/>
<path d="M57.3593 23.4793C57.1595 23.5259 56.9781 23.6306 56.8381 23.7801C56.6982 23.9296 56.6059 24.1172 56.5731 24.319C56.5403 24.5208 56.5684 24.7277 56.6539 24.9136C56.7393 25.0995 56.8783 25.2559 57.0531 25.3629C57.2279 25.47 57.4308 25.523 57.6358 25.5151C57.8409 25.5071 58.039 25.4387 58.205 25.3185C58.371 25.1983 58.4974 25.0316 58.5682 24.8397C58.6389 24.6478 58.6509 24.4393 58.6025 24.2407C58.538 23.976 58.3712 23.7475 58.1384 23.6049C57.9055 23.4623 57.6255 23.4171 57.3593 23.4793Z" fill="white"/>
<path d="M60.4933 22.7358C60.294 22.7829 60.1131 22.8879 59.9737 23.0374C59.8342 23.187 59.7424 23.3743 59.7098 23.5758C59.6773 23.7773 59.7055 23.9839 59.7908 24.1695C59.8761 24.3551 60.0148 24.5113 60.1892 24.6183C60.3637 24.7254 60.5661 24.7785 60.7708 24.771C60.9756 24.7635 61.1735 24.6956 61.3396 24.576C61.5056 24.4565 61.6323 24.2905 61.7037 24.0992C61.7751 23.9079 61.7879 23.6998 61.7405 23.5012C61.677 23.235 61.5099 23.0048 61.276 22.8613C61.0422 22.7177 60.7606 22.6726 60.4933 22.7358Z" fill="white"/>
<path d="M63.6314 21.9925C63.432 22.0397 63.2512 22.1446 63.1117 22.2942C62.9722 22.4437 62.8804 22.631 62.8479 22.8326C62.8153 23.0341 62.8435 23.2407 62.9288 23.4262C63.0141 23.6118 63.1528 23.768 63.3273 23.875C63.5017 23.9821 63.7041 24.0352 63.9089 24.0277C64.1136 24.0202 64.3116 23.9523 64.4776 23.8328C64.6437 23.7132 64.7704 23.5472 64.8417 23.3559C64.9131 23.1646 64.9259 22.9565 64.8785 22.7579C64.815 22.4917 64.648 22.2615 64.4141 22.118C64.1802 21.9744 63.8987 21.9293 63.6314 21.9925Z" fill="white"/>
<path d="M67.0007 23.2849C67.5728 23.2849 68.0367 22.8229 68.0367 22.253C68.0367 21.6831 67.5728 21.2211 67.0007 21.2211C66.4286 21.2211 65.9648 21.6831 65.9648 22.253C65.9648 22.8229 66.4286 23.2849 67.0007 23.2849Z" fill="white"/>
<path d="M69.8953 20.5078C69.6966 20.5553 69.5164 20.6604 69.3776 20.8099C69.2388 20.9593 69.1476 21.1464 69.1155 21.3474C69.0834 21.5485 69.1118 21.7546 69.1972 21.9395C69.2826 22.1245 69.4211 22.2801 69.5952 22.3867C69.7694 22.4933 69.9713 22.5461 70.1756 22.5384C70.3798 22.5307 70.5772 22.4629 70.7428 22.3436C70.9084 22.2242 71.0347 22.0586 71.1059 21.8677C71.177 21.6769 71.1897 21.4693 71.1425 21.2712C71.1111 21.1394 71.0539 21.0151 70.9741 20.9054C70.8944 20.7957 70.7937 20.7027 70.6779 20.6318C70.562 20.5609 70.4333 20.5134 70.299 20.4922C70.1647 20.4709 70.0276 20.4762 69.8953 20.5078Z" fill="white"/>
<path d="M73.0293 19.7644C72.8298 19.8112 72.6487 19.9159 72.5089 20.0653C72.3691 20.2147 72.277 20.402 72.2441 20.6036C72.2113 20.8052 72.2393 21.0119 72.3244 21.1977C72.4096 21.3834 72.5482 21.5398 72.7227 21.647C72.8971 21.7543 73.0996 21.8075 73.3045 21.8001C73.5093 21.7926 73.7074 21.7248 73.8735 21.6052C74.0397 21.4856 74.1665 21.3196 74.2379 21.1281C74.3092 20.9367 74.322 20.7285 74.2745 20.5298C74.2433 20.3981 74.1863 20.2738 74.1068 20.164C74.0273 20.0542 73.9269 19.9611 73.8112 19.89C73.6956 19.8189 73.567 19.7713 73.4328 19.7497C73.2987 19.7282 73.1616 19.7332 73.0293 19.7644Z" fill="white"/>
<path d="M76.1613 19.0311C75.962 19.0782 75.7811 19.1832 75.6416 19.3327C75.5022 19.4823 75.4104 19.6696 75.3778 19.8711C75.3453 20.0726 75.3734 20.2792 75.4588 20.4648C75.5441 20.6504 75.6827 20.8065 75.8572 20.9136C76.0316 21.0207 76.234 21.0738 76.4388 21.0663C76.6436 21.0587 76.8415 20.9909 77.0075 20.8713C77.1736 20.7517 77.3003 20.5858 77.3717 20.3945C77.4431 20.2032 77.4559 19.9951 77.4085 19.7965C77.345 19.5303 77.1779 19.3001 76.944 19.1565C76.7101 19.013 76.4286 18.9679 76.1613 19.0311Z" fill="white"/>
<path d="M79.2953 18.2796C79.0959 18.3269 78.915 18.432 78.7756 18.5817C78.6362 18.7313 78.5445 18.9188 78.5121 19.1204C78.4797 19.322 78.5081 19.5286 78.5936 19.7142C78.6792 19.8997 78.818 20.0558 78.9927 20.1627C79.1673 20.2696 79.3698 20.3225 79.5746 20.3147C79.7794 20.3069 79.9773 20.2387 80.1433 20.1189C80.3092 19.999 80.4357 19.8328 80.5067 19.6413C80.5778 19.4498 80.5902 19.2416 80.5425 19.043C80.511 18.9113 80.4538 18.787 80.3741 18.6773C80.2944 18.5675 80.1937 18.4746 80.0779 18.4037C79.962 18.3327 79.8333 18.2853 79.699 18.264C79.5647 18.2427 79.4275 18.248 79.2953 18.2796Z" fill="white"/>
<path d="M82.6687 19.572C83.2408 19.572 83.7046 19.11 83.7046 18.5401C83.7046 17.9702 83.2408 17.5082 82.6687 17.5082C82.0965 17.5082 81.6327 17.9702 81.6327 18.5401C81.6327 19.11 82.0965 19.572 82.6687 19.572Z" fill="white"/>
<path d="M86.832 17.8372C86.8568 17.2678 86.4135 16.7863 85.8419 16.7616C85.2703 16.7369 84.7868 17.1785 84.7621 17.7479C84.7373 18.3173 85.1806 18.7988 85.7522 18.8235C86.3238 18.8481 86.8073 18.4066 86.832 17.8372Z" fill="white"/>
<path d="M88.9367 18.0853C89.5088 18.0853 89.9726 17.6233 89.9726 17.0534C89.9726 16.4835 89.5088 16.0215 88.9367 16.0215C88.3645 16.0215 87.9007 16.4835 87.9007 17.0534C87.9007 17.6233 88.3645 18.0853 88.9367 18.0853Z" fill="white"/>
<path d="M91.8313 15.3081C91.6324 15.3553 91.4519 15.4601 91.3128 15.6094C91.1737 15.7587 91.0821 15.9458 91.0497 16.1469C91.0173 16.348 91.0456 16.5542 91.1308 16.7394C91.2161 16.9245 91.3545 17.0803 91.5287 17.1871C91.7028 17.2939 91.9048 17.3468 92.1092 17.3392C92.3136 17.3316 92.5111 17.2638 92.6767 17.1444C92.8424 17.025 92.9688 16.8593 93.04 16.6684C93.1111 16.4774 93.1238 16.2697 93.0764 16.0715C93.0129 15.8058 92.8461 15.5761 92.6126 15.433C92.3791 15.2898 92.098 15.2449 91.8313 15.3081Z" fill="white"/>
<path d="M95.2248 16.5946C95.7969 16.5946 96.2607 16.1326 96.2607 15.5627C96.2607 14.9928 95.7969 14.5308 95.2248 14.5308C94.6527 14.5308 94.1888 14.9928 94.1888 15.5627C94.1888 16.1326 94.6527 16.5946 95.2248 16.5946Z" fill="white"/>
<path d="M98.1415 13.8215C97.9428 13.8689 97.7626 13.9739 97.6238 14.1232C97.4849 14.2725 97.3936 14.4594 97.3613 14.6604C97.3291 14.8614 97.3573 15.0674 97.4425 15.2524C97.5277 15.4374 97.666 15.5931 97.8399 15.6999C98.0139 15.8067 98.2157 15.8597 98.4199 15.8523C98.6241 15.8449 98.8215 15.7774 98.9872 15.6583C99.153 15.5392 99.2795 15.3739 99.351 15.1832C99.4224 14.9925 99.4355 14.785 99.3887 14.5869C99.3252 14.3207 99.1581 14.0905 98.9242 13.9469C98.6903 13.8034 98.4088 13.7583 98.1415 13.8215Z" fill="white"/>
<path d="M101.298 13.064C101.099 13.1115 100.919 13.2166 100.78 13.3661C100.641 13.5155 100.55 13.7026 100.518 13.9037C100.486 14.1047 100.514 14.3108 100.6 14.4958C100.685 14.6807 100.823 14.8364 100.998 14.943C101.172 15.0496 101.374 15.1023 101.578 15.0947C101.782 15.087 101.98 15.0192 102.145 14.8998C102.311 14.7804 102.437 14.6148 102.508 14.424C102.579 14.2331 102.592 14.0255 102.545 13.8274C102.481 13.5616 102.314 13.3319 102.08 13.1887C101.846 13.0456 101.565 13.0008 101.298 13.064Z" fill="white"/>
<path d="M104.723 14.347C105.295 14.3321 105.746 13.8581 105.731 13.2884C105.716 12.7187 105.24 12.269 104.668 12.2839C104.096 12.2988 103.645 12.7728 103.66 13.3425C103.675 13.9122 104.151 14.3619 104.723 14.347Z" fill="white"/>
<path d="M107.608 11.5673C107.408 11.6146 107.228 11.7197 107.088 11.8693C106.949 12.019 106.857 12.2065 106.825 12.4081C106.792 12.6097 106.821 12.8163 106.906 13.0019C106.992 13.1874 107.131 13.3435 107.305 13.4504C107.48 13.5573 107.682 13.6102 107.887 13.6024C108.092 13.5945 108.29 13.5264 108.456 13.4065C108.622 13.2867 108.748 13.1205 108.819 12.929C108.89 12.7375 108.903 12.5293 108.855 12.3307C108.791 12.0649 108.624 11.8352 108.39 11.692C108.156 11.5489 107.875 11.5041 107.608 11.5673Z" fill="white"/>
<path d="M111.003 12.8537C111.576 12.8537 112.039 12.3917 112.039 11.8218C112.039 11.2519 111.576 10.7899 111.003 10.7899C110.431 10.7899 109.967 11.2519 109.967 11.8218C109.967 12.3917 110.431 12.8537 111.003 12.8537Z" fill="white"/>
<path d="M115.187 11.1148C115.212 10.5454 114.769 10.0638 114.197 10.0392C113.625 10.0145 113.142 10.4561 113.117 11.0255C113.092 11.5948 113.536 12.0764 114.107 12.101C114.679 12.1257 115.162 11.6841 115.187 11.1148Z" fill="white"/>
<path d="M117.076 9.3231C116.877 9.3706 116.697 9.47572 116.559 9.62517C116.42 9.77462 116.328 9.96169 116.296 10.1628C116.264 10.3638 116.293 10.5699 116.378 10.7548C116.463 10.9398 116.602 11.0954 116.776 11.202C116.95 11.3086 117.152 11.3614 117.356 11.3537C117.561 11.3461 117.758 11.2782 117.924 11.1589C118.089 11.0395 118.216 10.8739 118.287 10.683C118.358 10.4922 118.371 10.2846 118.323 10.0865C118.292 9.95473 118.235 9.83043 118.155 9.72072C118.075 9.611 117.975 9.51802 117.859 9.44711C117.743 9.3762 117.614 9.32875 117.48 9.30747C117.346 9.28619 117.208 9.2915 117.076 9.3231Z" fill="white"/>
<path d="M121.348 10.111C121.648 9.62563 121.496 8.99004 121.009 8.69133C120.522 8.39263 119.884 8.54393 119.584 9.02927C119.284 9.51462 119.436 10.1502 119.923 10.4489C120.41 10.7476 121.048 10.5963 121.348 10.111Z" fill="white"/>
<path d="M123.386 7.82637C123.187 7.87351 123.006 7.97849 122.867 8.12802C122.727 8.27755 122.636 8.46491 122.603 8.66642C122.57 8.86793 122.599 9.07453 122.684 9.26009C122.769 9.44565 122.908 9.60184 123.082 9.7089C123.257 9.81596 123.459 9.86909 123.664 9.86157C123.869 9.85404 124.067 9.78619 124.233 9.66662C124.399 9.54704 124.525 9.3811 124.597 9.18978C124.668 8.99846 124.681 8.79035 124.634 8.59178C124.57 8.32556 124.403 8.09537 124.169 7.95183C123.935 7.8083 123.654 7.76317 123.386 7.82637Z" fill="white"/>
<path d="M126.811 9.1103C127.383 9.09538 127.835 8.62145 127.82 8.05174C127.805 7.48203 127.329 7.03229 126.757 7.04721C126.185 7.06212 125.733 7.53606 125.748 8.10576C125.763 8.67547 126.239 9.12522 126.811 9.1103Z" fill="white"/>
<path d="M129.699 6.32959C129.499 6.37673 129.319 6.48171 129.179 6.63124C129.04 6.78077 128.948 6.96813 128.915 7.16964C128.883 7.37115 128.911 7.57775 128.996 7.76331C129.081 7.94887 129.22 8.10506 129.395 8.21212C129.569 8.31918 129.771 8.37231 129.976 8.36479C130.181 8.35726 130.379 8.28941 130.545 8.16984C130.711 8.05026 130.838 7.88432 130.909 7.693C130.98 7.50168 130.993 7.29357 130.946 7.095C130.881 6.82934 130.714 6.59983 130.481 6.45646C130.247 6.31309 129.966 6.26749 129.699 6.32959Z" fill="white"/>
<path d="M133.094 7.618C133.666 7.618 134.13 7.156 134.13 6.5861C134.13 6.0162 133.666 5.5542 133.094 5.5542C132.522 5.5542 132.058 6.0162 132.058 6.5861C132.058 7.156 132.522 7.618 133.094 7.618Z" fill="white"/>
<path d="M136.011 4.83484C135.812 4.88123 135.631 4.98531 135.492 5.13393C135.352 5.28255 135.26 5.46905 135.226 5.66988C135.193 5.87071 135.22 6.07687 135.305 6.2623C135.389 6.44774 135.526 6.60415 135.7 6.71178C135.873 6.81941 136.075 6.87343 136.279 6.86702C136.483 6.86062 136.681 6.79406 136.847 6.67577C137.014 6.55748 137.141 6.39276 137.214 6.20241C137.286 6.01206 137.3 5.80461 137.254 5.60626C137.224 5.47419 137.167 5.34943 137.088 5.23913C137.009 5.12883 136.909 5.03516 136.793 4.9635C136.678 4.89183 136.549 4.84357 136.415 4.82149C136.281 4.79942 136.143 4.80395 136.011 4.83484Z" fill="white"/>
<path d="M139.165 4.08552C138.966 4.13267 138.785 4.23764 138.645 4.38717C138.506 4.53669 138.414 4.72406 138.382 4.92557C138.349 5.12708 138.377 5.33368 138.463 5.51924C138.548 5.7048 138.686 5.86099 138.861 5.96805C139.035 6.07512 139.238 6.12824 139.443 6.12072C139.647 6.11319 139.845 6.04535 140.011 5.92577C140.177 5.80619 140.304 5.64025 140.375 5.44893C140.447 5.25761 140.46 5.04951 140.412 4.85093C140.349 4.58472 140.182 4.35452 139.948 4.21099C139.714 4.06745 139.432 4.02232 139.165 4.08552Z" fill="white"/>
<path d="M143.787 5.89638C143.811 5.32701 143.368 4.84545 142.797 4.82079C142.225 4.79613 141.742 5.23771 141.717 5.80707C141.692 6.37644 142.135 6.858 142.707 6.88266C143.279 6.90732 143.762 6.46575 143.787 5.89638Z" fill="white"/>
<path d="M145.365 6.70833C145.163 6.746 144.977 6.84257 144.83 6.98579C144.684 7.12901 144.583 7.3124 144.541 7.51268C144.499 7.71295 144.518 7.92109 144.596 8.11063C144.673 8.30017 144.805 8.46256 144.975 8.5772C145.145 8.69184 145.345 8.75354 145.551 8.75446C145.756 8.75539 145.957 8.6955 146.128 8.5824C146.299 8.4693 146.433 8.30809 146.512 8.11925C146.591 7.93042 146.612 7.72247 146.572 7.52182C146.519 7.25523 146.362 7.02027 146.136 6.86795C145.91 6.71564 145.633 6.65828 145.365 6.70833Z" fill="white"/>
<path d="M148.104 8.53975C147.903 8.57742 147.716 8.67399 147.57 8.81721C147.423 8.96042 147.323 9.14382 147.281 9.3441C147.239 9.54438 147.258 9.7525 147.335 9.94204C147.412 10.1316 147.545 10.294 147.715 10.4086C147.885 10.5233 148.085 10.585 148.29 10.5859C148.496 10.5868 148.697 10.5269 148.868 10.4138C149.039 10.3007 149.173 10.1395 149.252 9.95068C149.33 9.76184 149.351 9.55389 149.311 9.35324C149.258 9.08665 149.102 8.85168 148.876 8.69937C148.65 8.54705 148.373 8.4897 148.104 8.53975Z" fill="white"/>
<path d="M150.842 10.3731C150.641 10.4126 150.456 10.5106 150.311 10.6546C150.166 10.7987 150.067 10.9823 150.027 11.1824C149.987 11.3825 150.007 11.5899 150.085 11.7786C150.163 11.9673 150.295 12.1287 150.465 12.2424C150.635 12.3561 150.836 12.417 151.04 12.4174C151.245 12.4179 151.446 12.3578 151.616 12.2448C151.787 12.1318 151.92 11.971 151.999 11.7826C152.078 11.5943 152.099 11.3869 152.059 11.1866C152.033 11.0536 151.981 10.927 151.905 10.8141C151.83 10.7012 151.733 10.6042 151.62 10.5287C151.507 10.4531 151.38 10.4005 151.247 10.3738C151.113 10.3471 150.976 10.3469 150.842 10.3731Z" fill="white"/>
<path d="M153.582 12.2044C153.38 12.2421 153.194 12.3387 153.047 12.4819C152.901 12.6251 152.8 12.8085 152.758 13.0088C152.717 13.2091 152.736 13.4172 152.813 13.6067C152.89 13.7963 153.022 13.9587 153.192 14.0733C153.362 14.1879 153.563 14.2496 153.768 14.2506C153.973 14.2515 154.174 14.1916 154.345 14.0785C154.517 13.9654 154.65 13.8042 154.729 13.6153C154.808 13.4265 154.829 13.2186 154.789 13.0179C154.736 12.7513 154.579 12.5164 154.353 12.364C154.127 12.2117 153.85 12.1544 153.582 12.2044Z" fill="white"/>
<path d="M156.32 14.0378C156.119 14.0773 155.934 14.1753 155.789 14.3193C155.644 14.4633 155.545 14.647 155.504 14.8471C155.464 15.0471 155.484 15.2546 155.562 15.4433C155.64 15.632 155.773 15.7933 155.943 15.9071C156.113 16.0208 156.313 16.0817 156.518 16.0821C156.723 16.0825 156.923 16.0225 157.094 15.9095C157.264 15.7965 157.397 15.6356 157.476 15.4473C157.555 15.2589 157.576 15.0515 157.537 14.8513C157.51 14.7183 157.458 14.5917 157.383 14.4788C157.307 14.3659 157.21 14.2689 157.097 14.1934C156.984 14.1178 156.857 14.0652 156.724 14.0385C156.591 14.0118 156.453 14.0116 156.32 14.0378Z" fill="white"/>
<path d="M159.059 15.8712C158.857 15.9094 158.671 16.0067 158.525 16.1507C158.378 16.2947 158.278 16.4789 158.237 16.6798C158.196 16.8806 158.216 17.0891 158.295 17.2786C158.373 17.468 158.507 17.6299 158.678 17.7436C158.849 17.8573 159.05 17.9176 159.256 17.9169C159.462 17.9162 159.663 17.8545 159.833 17.7396C160.004 17.6247 160.136 17.4619 160.213 17.2719C160.29 17.0818 160.309 16.8733 160.266 16.6727C160.211 16.4081 160.053 16.1757 159.828 16.0258C159.602 15.8758 159.326 15.8203 159.059 15.8712Z" fill="white"/>
<path d="M161.795 17.7026C161.593 17.7403 161.407 17.8368 161.261 17.9801C161.114 18.1233 161.013 18.3067 160.972 18.5069C160.93 18.7072 160.949 18.9153 161.026 19.1049C161.103 19.2944 161.235 19.4568 161.405 19.5715C161.575 19.6861 161.776 19.7478 161.981 19.7487C162.186 19.7497 162.387 19.6898 162.559 19.5767C162.73 19.4636 162.863 19.3024 162.942 19.1135C163.021 18.9247 163.042 18.7167 163.002 18.5161C162.949 18.2495 162.792 18.0145 162.566 17.8622C162.34 17.7099 162.063 17.6525 161.795 17.7026Z" fill="white"/>
<path d="M164.537 19.536C164.335 19.5738 164.149 19.6705 164.002 19.8138C163.856 19.9572 163.755 20.1407 163.713 20.3411C163.672 20.5414 163.691 20.7496 163.768 20.9391C163.846 21.1287 163.978 21.291 164.148 21.4055C164.319 21.52 164.519 21.5814 164.725 21.5821C164.93 21.5827 165.131 21.5225 165.302 21.4091C165.473 21.2957 165.606 21.1343 165.685 20.9452C165.764 20.7562 165.784 20.5481 165.744 20.3475C165.691 20.081 165.534 19.8462 165.308 19.6942C165.082 19.5422 164.805 19.4854 164.537 19.536Z" fill="white"/>
<path d="M167.274 21.3674C167.073 21.4051 166.887 21.5016 166.74 21.6448C166.593 21.7881 166.493 21.9715 166.451 22.1717C166.409 22.372 166.428 22.5801 166.505 22.7697C166.583 22.9592 166.715 23.1216 166.885 23.2363C167.055 23.3509 167.255 23.4126 167.461 23.4135C167.666 23.4144 167.867 23.3546 168.038 23.2415C168.209 23.1284 168.343 22.9672 168.422 22.7783C168.501 22.5895 168.521 22.3815 168.481 22.1809C168.428 21.9143 168.272 21.6793 168.046 21.527C167.82 21.3747 167.543 21.3173 167.274 21.3674Z" fill="white"/>
<path d="M170.014 23.2007C169.812 23.2384 169.626 23.335 169.48 23.4782C169.333 23.6214 169.232 23.8048 169.191 24.0051C169.149 24.2054 169.168 24.4135 169.245 24.603C169.322 24.7926 169.454 24.955 169.624 25.0696C169.795 25.1842 169.995 25.2459 170.2 25.2469C170.406 25.2478 170.607 25.1879 170.778 25.0748C170.949 24.9617 171.082 24.8005 171.161 24.6117C171.24 24.4228 171.261 24.2149 171.221 24.0142C171.169 23.7474 171.012 23.5121 170.786 23.3597C170.56 23.2073 170.282 23.1501 170.014 23.2007Z" fill="white"/>
<path d="M172.752 25.0421C172.55 25.0798 172.364 25.1764 172.217 25.3196C172.071 25.4628 171.97 25.6462 171.928 25.8465C171.887 26.0467 171.906 26.2549 171.983 26.4444C172.06 26.6339 172.192 26.7963 172.362 26.911C172.532 27.0256 172.733 27.0873 172.938 27.0882C173.143 27.0892 173.344 27.0293 173.515 26.9162C173.687 26.8031 173.82 26.6419 173.899 26.453C173.978 26.2642 173.999 26.0562 173.959 25.8556C173.905 25.5893 173.749 25.3546 173.523 25.2024C173.297 25.0502 173.02 24.9926 172.752 25.0421Z" fill="white"/>
<path d="M175.492 26.8654C175.29 26.9031 175.104 26.9996 174.957 27.1429C174.811 27.2861 174.71 27.4695 174.668 27.6697C174.626 27.87 174.645 28.0782 174.723 28.2677C174.8 28.4572 174.932 28.6196 175.102 28.7343C175.272 28.8489 175.472 28.9106 175.678 28.9115C175.883 28.9125 176.084 28.8526 176.255 28.7395C176.426 28.6264 176.56 28.4652 176.639 28.2763C176.718 28.0875 176.739 27.8795 176.699 27.6789C176.646 27.412 176.49 27.1767 176.263 27.0243C176.037 26.8719 175.76 26.8148 175.492 26.8654Z" fill="white"/>
<path d="M178.63 30.7206C178.831 30.6806 179.016 30.5819 179.161 30.437C179.306 30.2922 179.404 30.1078 179.443 29.9072C179.483 29.7065 179.462 29.4987 179.382 29.3101C179.303 29.1215 179.169 28.9606 178.998 28.8479C178.827 28.7351 178.626 28.6756 178.421 28.6768C178.215 28.678 178.015 28.7399 177.845 28.8547C177.675 28.9694 177.544 29.1319 177.467 29.3214C177.39 29.5109 177.371 29.719 177.413 29.9191C177.468 30.1856 177.628 30.4193 177.856 30.5694C178.083 30.7195 178.362 30.7739 178.63 30.7206Z" fill="white"/>
<path d="M24.0984 106.003C23.899 106.05 23.7182 106.155 23.5787 106.305C23.4392 106.454 23.3474 106.642 23.3149 106.843C23.2823 107.045 23.3105 107.251 23.3958 107.437C23.4811 107.622 23.6198 107.779 23.7942 107.886C23.9687 107.993 24.1711 108.046 24.3758 108.038C24.5806 108.031 24.7785 107.963 24.9446 107.843C25.1106 107.724 25.2374 107.558 25.3087 107.367C25.3801 107.175 25.3929 106.967 25.3455 106.769C25.282 106.502 25.1149 106.272 24.8811 106.129C24.6472 105.985 24.3656 105.94 24.0984 106.003Z" fill="white"/>
<path d="M27.2324 105.262C27.033 105.309 26.8521 105.414 26.7127 105.564C26.5733 105.713 26.4816 105.901 26.4492 106.103C26.4168 106.304 26.4451 106.511 26.5307 106.696C26.6162 106.882 26.7551 107.038 26.9297 107.145C27.1044 107.252 27.3069 107.305 27.5117 107.297C27.7165 107.289 27.9144 107.221 28.0803 107.101C28.2462 106.981 28.3727 106.815 28.4438 106.623C28.5149 106.432 28.5273 106.224 28.4795 106.025C28.4156 105.759 28.2483 105.53 28.0145 105.387C27.7807 105.243 27.4994 105.199 27.2324 105.262Z" fill="white"/>
<path d="M30.3664 104.518C30.1677 104.566 29.9875 104.671 29.8486 104.82C29.7098 104.969 29.6185 105.156 29.5862 105.357C29.5539 105.558 29.5822 105.764 29.6673 105.949C29.7525 106.134 29.8908 106.29 30.0648 106.397C30.2388 106.504 30.4406 106.557 30.6448 106.549C30.849 106.542 31.0464 106.474 31.2121 106.355C31.3778 106.236 31.5044 106.071 31.5758 105.88C31.6473 105.689 31.6604 105.482 31.6135 105.284C31.55 105.018 31.3829 104.787 31.1491 104.644C30.9152 104.5 30.6337 104.455 30.3664 104.518Z" fill="white"/>
<path d="M33.5003 103.775C33.301 103.822 33.1201 103.927 32.9807 104.077C32.8412 104.226 32.7494 104.414 32.7168 104.615C32.6843 104.817 32.7124 105.023 32.7978 105.209C32.8831 105.394 33.0218 105.551 33.1962 105.658C33.3707 105.765 33.5731 105.818 33.7778 105.81C33.9826 105.803 34.1805 105.735 34.3466 105.615C34.5126 105.496 34.6393 105.33 34.7107 105.138C34.7821 104.947 34.7949 104.739 34.7475 104.54C34.6835 104.275 34.5163 104.045 34.2826 103.901C34.0489 103.758 33.7676 103.712 33.5003 103.775Z" fill="white"/>
<path d="M36.9047 105.066C37.4766 105.051 37.9281 104.577 37.9131 104.008C37.8982 103.438 37.4224 102.988 36.8504 103.003C36.2785 103.018 35.827 103.492 35.8419 104.062C35.8569 104.631 36.3327 105.081 36.9047 105.066Z" fill="white"/>
<path d="M40.892 103.826C41.1919 103.34 41.04 102.705 40.5527 102.406C40.0654 102.107 39.4274 102.259 39.1275 102.744C38.8276 103.229 38.9795 103.865 39.4667 104.164C39.954 104.462 40.5921 104.311 40.892 103.826Z" fill="white"/>
<path d="M43.1717 103.581C43.7436 103.566 44.1951 103.092 44.1802 102.522C44.1652 101.952 43.6894 101.503 43.1174 101.518C42.5455 101.532 42.094 102.006 42.109 102.576C42.1239 103.146 42.5997 103.596 43.1717 103.581Z" fill="white"/>
<path d="M46.0343 100.804C45.835 100.851 45.6541 100.956 45.5147 101.105C45.3752 101.255 45.2834 101.442 45.2508 101.644C45.2183 101.845 45.2464 102.052 45.3318 102.237C45.4171 102.423 45.5558 102.579 45.7302 102.686C45.9047 102.793 46.1071 102.846 46.3118 102.839C46.5166 102.831 46.7145 102.763 46.8806 102.644C47.0466 102.524 47.1733 102.358 47.2447 102.167C47.3161 101.976 47.3289 101.768 47.2815 101.569C47.218 101.303 47.0509 101.073 46.817 100.929C46.5832 100.785 46.3016 100.74 46.0343 100.804Z" fill="white"/>
<path d="M49.1683 100.062C48.9696 100.11 48.7894 100.215 48.6506 100.364C48.5118 100.514 48.4206 100.701 48.3885 100.902C48.3563 101.103 48.3848 101.309 48.4702 101.494C48.5556 101.679 48.6941 101.835 48.8682 101.941C49.0424 102.048 49.2443 102.101 49.4486 102.093C49.6528 102.085 49.8502 102.017 50.0158 101.898C50.1813 101.779 50.3077 101.613 50.3788 101.422C50.45 101.231 50.4627 101.024 50.4155 100.826C50.384 100.694 50.3268 100.57 50.2471 100.46C50.1674 100.35 50.0667 100.257 49.9509 100.186C49.835 100.115 49.7063 100.068 49.572 100.047C49.4377 100.025 49.3005 100.031 49.1683 100.062Z" fill="white"/>
<path d="M52.3023 99.3188C52.1036 99.3663 51.9234 99.4714 51.7846 99.6209C51.6458 99.7703 51.5546 99.9574 51.5225 100.158C51.4903 100.36 51.5188 100.566 51.6042 100.751C51.6896 100.936 51.8281 101.091 52.0022 101.198C52.1764 101.304 52.3783 101.357 52.5826 101.349C52.7868 101.342 52.9842 101.274 53.1498 101.155C53.3154 101.035 53.4417 100.87 53.5128 100.679C53.584 100.488 53.5967 100.28 53.5495 100.082C53.5181 99.9505 53.4608 99.8262 53.3811 99.7164C53.3014 99.6067 53.2007 99.5137 53.0849 99.4428C52.969 99.3719 52.8403 99.3245 52.706 99.3032C52.5717 99.2819 52.4345 99.2872 52.3023 99.3188Z" fill="white"/>
<path d="M55.4363 98.5774C55.237 98.6245 55.0561 98.7295 54.9166 98.879C54.7772 99.0286 54.6854 99.2159 54.6528 99.4174C54.6203 99.6189 54.6484 99.8255 54.7338 100.011C54.8191 100.197 54.9577 100.353 55.1322 100.46C55.3066 100.567 55.509 100.62 55.7138 100.613C55.9186 100.605 56.1165 100.537 56.2825 100.418C56.4486 100.298 56.5753 100.132 56.6467 99.9408C56.718 99.7495 56.7308 99.5414 56.6835 99.3428C56.6523 99.2108 56.5952 99.0863 56.5156 98.9764C56.436 98.8665 56.3353 98.7733 56.2195 98.7021C56.1036 98.631 55.9748 98.5834 55.8404 98.562C55.706 98.5406 55.5687 98.5458 55.4363 98.5774Z" fill="white"/>
<path d="M58.5703 97.832C58.3702 97.8778 58.1882 97.9817 58.0475 98.1306C57.9068 98.2796 57.8137 98.4668 57.7801 98.6685C57.7464 98.8703 57.7736 99.0774 57.8584 99.2637C57.9431 99.45 58.0815 99.607 58.256 99.7148C58.4305 99.8226 58.6332 99.8763 58.8384 99.8691C59.0436 99.8619 59.242 99.7941 59.4084 99.6744C59.5749 99.5547 59.7019 99.3884 59.7733 99.1966C59.8447 99.0049 59.8572 98.7963 59.8094 98.5974C59.7458 98.333 59.58 98.1042 59.3479 97.9608C59.1159 97.8175 58.8364 97.7712 58.5703 97.832Z" fill="white"/>
<path d="M61.7023 97.0907C61.5029 97.1379 61.322 97.243 61.1826 97.3927C61.0432 97.5423 60.9515 97.7298 60.9191 97.9314C60.8867 98.133 60.9151 98.3397 61.0006 98.5252C61.0861 98.7107 61.225 98.8668 61.3996 98.9737C61.5743 99.0806 61.7768 99.1335 61.9816 99.1257C62.1864 99.1179 62.3843 99.0498 62.5502 98.9299C62.7162 98.81 62.8426 98.6438 62.9137 98.4523C62.9848 98.2608 62.9972 98.0526 62.9494 97.8541C62.918 97.7223 62.8608 97.598 62.7811 97.4883C62.7013 97.3786 62.6007 97.2856 62.4848 97.2147C62.369 97.1438 62.2402 97.0963 62.106 97.075C61.9717 97.0538 61.8345 97.0591 61.7023 97.0907Z" fill="white"/>
<path d="M64.8383 96.3474C64.6395 96.3949 64.4594 96.5 64.3206 96.6494C64.1818 96.7989 64.0906 96.9859 64.0584 97.187C64.0263 97.3881 64.0548 97.5941 64.1401 97.7791C64.2255 97.9641 64.3641 98.1197 64.5382 98.2263C64.7123 98.3329 64.9143 98.3857 65.1186 98.378C65.3228 98.3703 65.5202 98.3025 65.6858 98.1831C65.8513 98.0637 65.9777 97.8982 66.0488 97.7073C66.12 97.5164 66.1327 97.3088 66.0855 97.1108C66.0215 96.8449 65.8543 96.6152 65.6204 96.4721C65.3866 96.3289 65.1053 96.2841 64.8383 96.3474Z" fill="white"/>
<path d="M67.9703 95.604C67.7709 95.6511 67.5901 95.7561 67.4506 95.9056C67.3111 96.0551 67.2193 96.2425 67.1868 96.444C67.1542 96.6455 67.1824 96.8521 67.2677 97.0377C67.353 97.2232 67.4917 97.3794 67.6661 97.4865C67.8406 97.5935 68.043 97.6467 68.2478 97.6392C68.4525 97.6316 68.6505 97.5638 68.8165 97.4442C68.9826 97.3246 69.1093 97.1587 69.1806 96.9674C69.252 96.776 69.2648 96.5679 69.2174 96.3694C69.1539 96.1031 68.9869 95.873 68.753 95.7294C68.5191 95.5859 68.2376 95.5408 67.9703 95.604Z" fill="white"/>
<path d="M71.1043 94.8607C70.9049 94.9078 70.7241 95.0128 70.5846 95.1623C70.4451 95.3118 70.3533 95.4992 70.3208 95.7007C70.2882 95.9022 70.3164 96.1088 70.4017 96.2944C70.487 96.48 70.6257 96.6361 70.8002 96.7432C70.9746 96.8503 71.177 96.9034 71.3818 96.8959C71.5865 96.8883 71.7844 96.8205 71.9505 96.7009C72.1166 96.5813 72.2433 96.4154 72.3146 96.2241C72.386 96.0327 72.3988 95.8247 72.3514 95.6261C72.2879 95.3599 72.1209 95.1297 71.887 94.9861C71.6531 94.8426 71.3716 94.7975 71.1043 94.8607Z" fill="white"/>
<path d="M74.2383 94.1193C74.0393 94.1664 73.8589 94.2713 73.7198 94.4206C73.5807 94.5699 73.4891 94.7569 73.4567 94.9581C73.4243 95.1592 73.4525 95.3654 73.5378 95.5505C73.623 95.7357 73.7615 95.8915 73.9356 95.9983C74.1098 96.1051 74.3118 96.158 74.5162 96.1504C74.7205 96.1428 74.918 96.075 75.0837 95.9556C75.2494 95.8362 75.3758 95.6705 75.447 95.4795C75.5181 95.2886 75.5308 95.0808 75.4834 94.8827C75.4199 94.617 75.2531 94.3873 75.0196 94.2441C74.7861 94.101 74.505 94.0561 74.2383 94.1193Z" fill="white"/>
<path d="M77.3702 93.3679C77.1708 93.4151 76.99 93.5202 76.8506 93.6699C76.7112 93.8195 76.6195 94.007 76.5871 94.2086C76.5547 94.4102 76.583 94.6169 76.6686 94.8024C76.7541 94.9879 76.893 95.144 77.0676 95.2509C77.2422 95.3578 77.4448 95.4107 77.6496 95.4029C77.8544 95.3951 78.0523 95.3269 78.2182 95.2071C78.3841 95.0872 78.5106 94.921 78.5817 94.7295C78.6527 94.538 78.6652 94.3298 78.6174 94.1313C78.5534 93.8654 78.3862 93.6357 78.1524 93.4926C77.9185 93.3494 77.6372 93.3046 77.3702 93.3679Z" fill="white"/>
<path d="M80.5042 92.6325C80.3049 92.6797 80.124 92.7846 79.9846 92.9342C79.8451 93.0837 79.7533 93.2711 79.7207 93.4726C79.6882 93.6741 79.7164 93.8807 79.8017 94.0662C79.887 94.2518 80.0257 94.408 80.2001 94.5151C80.3746 94.6221 80.577 94.6752 80.7817 94.6677C80.9865 94.6602 81.1844 94.5923 81.3505 94.4728C81.5165 94.3532 81.6432 94.1872 81.7146 93.9959C81.786 93.8046 81.7988 93.5965 81.7514 93.3979C81.6879 93.1317 81.5208 92.9015 81.2869 92.758C81.0531 92.6144 80.7715 92.5693 80.5042 92.6325Z" fill="white"/>
<path d="M83.6383 91.8891C83.4389 91.9363 83.258 92.0412 83.1186 92.1908C82.9791 92.3403 82.8873 92.5277 82.8547 92.7292C82.8222 92.9307 82.8504 93.1373 82.9357 93.3228C83.021 93.5084 83.1597 93.6646 83.3341 93.7716C83.5086 93.8787 83.711 93.9318 83.9157 93.9243C84.1205 93.9168 84.3184 93.8489 84.4845 93.7294C84.6505 93.6098 84.7772 93.4438 84.8486 93.2525C84.92 93.0612 84.9328 92.8531 84.8854 92.6545C84.8219 92.3883 84.6548 92.1581 84.4209 92.0146C84.1871 91.871 83.9055 91.8259 83.6383 91.8891Z" fill="white"/>
<path d="M21.1494 102.565C21.3488 102.518 21.5296 102.413 21.6691 102.263C21.8086 102.114 21.9004 101.926 21.9329 101.725C21.9655 101.523 21.9373 101.317 21.852 101.131C21.7667 100.946 21.628 100.789 21.4536 100.682C21.2791 100.575 21.0767 100.522 20.872 100.53C20.6672 100.537 20.4693 100.605 20.3032 100.725C20.1372 100.844 20.0104 101.01 19.9391 101.201C19.8677 101.393 19.8549 101.601 19.9023 101.799C19.9658 102.066 20.1329 102.296 20.3667 102.439C20.6006 102.583 20.8822 102.628 21.1494 102.565Z" fill="white"/>
<path d="M21.4632 103.877C21.2639 103.924 21.083 104.029 20.9436 104.179C20.8041 104.328 20.7123 104.516 20.6797 104.717C20.6472 104.919 20.6753 105.125 20.7607 105.311C20.846 105.496 20.9847 105.653 21.1591 105.76C21.3335 105.867 21.536 105.92 21.7407 105.912C21.9455 105.905 22.1434 105.837 22.3095 105.717C22.4755 105.598 22.6022 105.432 22.6736 105.241C22.745 105.049 22.7578 104.841 22.7104 104.643C22.6469 104.376 22.4798 104.146 22.2459 104.003C22.012 103.859 21.7305 103.814 21.4632 103.877Z" fill="white"/>
<path d="M20.4032 99.443C20.6019 99.3955 20.7821 99.2904 20.9209 99.1409C21.0597 98.9915 21.1509 98.8044 21.183 98.6033C21.2151 98.4023 21.1867 98.1962 21.1013 98.0112C21.0159 97.8263 20.8774 97.6707 20.7033 97.5641C20.5291 97.4575 20.3272 97.4047 20.1229 97.4124C19.9187 97.42 19.7213 97.4879 19.5557 97.6072C19.3901 97.7266 19.2638 97.8922 19.1926 98.083C19.1215 98.2739 19.1087 98.4815 19.156 98.6796C19.22 98.9454 19.3872 99.1752 19.621 99.3183C19.8549 99.4614 20.1362 99.5063 20.4032 99.443Z" fill="white"/>
<path d="M20.4504 95.3543C20.4751 94.7849 20.0318 94.3033 19.4602 94.2787C18.8886 94.254 18.4052 94.6956 18.3804 95.265C18.3557 95.8343 18.799 96.3159 19.3706 96.3405C19.9422 96.3652 20.4256 95.9236 20.4504 95.3543Z" fill="white"/>
<path d="M18.9126 93.2015C19.112 93.1544 19.2928 93.0494 19.4323 92.8999C19.5717 92.7504 19.6635 92.563 19.6961 92.3615C19.7287 92.16 19.7005 91.9534 19.6152 91.7678C19.5298 91.5823 19.3912 91.4261 19.2167 91.319C19.0423 91.212 18.8399 91.1588 18.6351 91.1664C18.4303 91.1739 18.2324 91.2417 18.0664 91.3613C17.9003 91.4809 17.7736 91.6468 17.7022 91.8381C17.6309 92.0295 17.6181 92.2376 17.6654 92.4361C17.7289 92.7024 17.896 92.9325 18.1299 93.0761C18.3638 93.2196 18.6453 93.2647 18.9126 93.2015Z" fill="white"/>
<path d="M18.1703 90.0799C18.3697 90.0327 18.5506 89.9277 18.69 89.7782C18.8295 89.6287 18.9213 89.4413 18.9538 89.2398C18.9864 89.0383 18.9582 88.8317 18.8729 88.6461C18.7876 88.4606 18.6489 88.3044 18.4745 88.1973C18.3 88.0903 18.0976 88.0371 17.8929 88.0446C17.6881 88.0522 17.4902 88.12 17.3241 88.2396C17.1581 88.3592 17.0313 88.5251 16.96 88.7164C16.8886 88.9078 16.8758 89.1159 16.9232 89.3144C16.9867 89.5807 17.1538 89.8109 17.3876 89.9544C17.6215 90.0979 17.9031 90.1431 18.1703 90.0799Z" fill="white"/>
<path d="M17.42 86.9561C17.6194 86.9089 17.8002 86.8039 17.9397 86.6544C18.0792 86.5049 18.171 86.3175 18.2035 86.116C18.2361 85.9145 18.2079 85.7079 18.1226 85.5223C18.0373 85.3368 17.8986 85.1806 17.7242 85.0735C17.5497 84.9665 17.3473 84.9133 17.1426 84.9209C16.9378 84.9284 16.7399 84.9962 16.5738 85.1158C16.4078 85.2354 16.281 85.4013 16.2097 85.5926C16.1383 85.784 16.1255 85.9921 16.1729 86.1906C16.2364 86.4569 16.4035 86.6871 16.6373 86.8306C16.8712 86.9741 17.1528 87.0193 17.42 86.9561Z" fill="white"/>
<path d="M16.6737 83.8363C16.8724 83.7889 17.0526 83.6839 17.1915 83.5346C17.3303 83.3853 17.4217 83.1983 17.4539 82.9973C17.4862 82.7964 17.4579 82.5904 17.3728 82.4054C17.2876 82.2204 17.1493 82.0646 16.9753 81.9579C16.8013 81.8511 16.5995 81.7981 16.3953 81.8055C16.1911 81.8129 15.9937 81.8804 15.828 81.9995C15.6623 82.1186 15.5357 82.2839 15.4643 82.4746C15.3928 82.6653 15.3797 82.8728 15.4266 83.0709C15.4578 83.2028 15.5148 83.3273 15.5945 83.4373C15.6741 83.5472 15.7747 83.6404 15.8906 83.7115C16.0065 83.7826 16.1353 83.8303 16.2697 83.8517C16.4041 83.8731 16.5414 83.8679 16.6737 83.8363Z" fill="white"/>
<path d="M15.9295 80.7146C16.1289 80.6674 16.3097 80.5623 16.4491 80.4126C16.5885 80.2629 16.6802 80.0755 16.7127 79.8739C16.7451 79.6723 16.7167 79.4656 16.6311 79.2801C16.5456 79.0945 16.4067 78.9385 16.2321 78.8316C16.0575 78.7247 15.8549 78.6718 15.6501 78.6796C15.4453 78.6874 15.2474 78.7555 15.0815 78.8754C14.9156 78.9953 14.7891 79.1615 14.718 79.353C14.647 79.5445 14.6345 79.7527 14.6823 79.9512C14.7463 80.2171 14.9135 80.4468 15.1473 80.5899C15.3812 80.733 15.6625 80.7779 15.9295 80.7146Z" fill="white"/>
<path d="M15.1832 77.5928C15.3826 77.5455 15.5634 77.4404 15.7029 77.2908C15.8423 77.1411 15.934 76.9536 15.9664 76.752C15.9988 76.5504 15.9704 76.3438 15.8849 76.1583C15.7993 75.9727 15.6605 75.8166 15.4858 75.7097C15.3112 75.6028 15.1087 75.55 14.9039 75.5578C14.699 75.5656 14.5011 75.6337 14.3352 75.7536C14.1693 75.8734 14.0428 76.0396 13.9718 76.2311C13.9007 76.4226 13.8883 76.6308 13.936 76.8294C13.9675 76.9612 14.0247 77.0855 14.1044 77.1952C14.1841 77.3049 14.2848 77.3979 14.4006 77.4688C14.5165 77.5397 14.6452 77.5871 14.7795 77.6084C14.9138 77.6297 15.051 77.6244 15.1832 77.5928Z" fill="white"/>
<path d="M14.4369 74.4731C14.6362 74.426 14.8171 74.321 14.9566 74.1715C15.096 74.022 15.1878 73.8346 15.2204 73.6331C15.2529 73.4316 15.2248 73.225 15.1394 73.0394C15.0541 72.8539 14.9155 72.6977 14.741 72.5906C14.5666 72.4836 14.3642 72.4304 14.1594 72.438C13.9546 72.4455 13.7567 72.5133 13.5907 72.6329C13.4246 72.7525 13.2979 72.9184 13.2265 73.1097C13.1552 73.3011 13.1423 73.5092 13.1897 73.7077C13.2537 73.9737 13.4209 74.2035 13.6546 74.347C13.8884 74.4904 14.1696 74.5358 14.4369 74.4731Z" fill="white"/>
<path d="M13.6906 71.3513C13.89 71.3042 14.0708 71.1992 14.2103 71.0497C14.3497 70.9002 14.4416 70.7128 14.4741 70.5113C14.5067 70.3098 14.4785 70.1032 14.3932 69.9176C14.3078 69.732 14.1692 69.5759 13.9947 69.4688C13.8203 69.3617 13.6179 69.3086 13.4131 69.3161C13.2084 69.3237 13.0104 69.3915 12.8444 69.5111C12.6783 69.6307 12.5516 69.7966 12.4802 69.9879C12.4089 70.1792 12.3961 70.3873 12.4434 70.5859C12.507 70.8521 12.674 71.0823 12.9079 71.2259C13.1418 71.3694 13.4233 71.4145 13.6906 71.3513Z" fill="white"/>
<path d="M12.705 68.2576C13.2771 68.2576 13.7409 67.7957 13.7409 67.2258C13.7409 66.6558 13.2771 66.1938 12.705 66.1938C12.1328 66.1938 11.669 66.6558 11.669 67.2258C11.669 67.7957 12.1328 68.2576 12.705 68.2576Z" fill="white"/>
<path d="M12.4662 65.0549C13.0383 65.0378 13.4882 64.562 13.471 63.9921C13.4539 63.4222 12.9762 62.974 12.404 62.9911C11.8319 63.0082 11.382 63.4841 11.3992 64.054C11.4163 64.6239 11.894 65.072 12.4662 65.0549Z" fill="white"/>
<path d="M11.2144 62.0162C11.7865 62.0162 12.2503 61.5542 12.2503 60.9843C12.2503 60.4144 11.7865 59.9524 11.2144 59.9524C10.6422 59.9524 10.1784 60.4144 10.1784 60.9843C10.1784 61.5542 10.6422 62.0162 11.2144 62.0162Z" fill="white"/>
<path d="M10.4976 58.8941C11.0695 58.8792 11.521 58.4053 11.5061 57.8355C11.4911 57.2658 11.0153 56.8161 10.4433 56.831C9.8714 56.8459 9.41989 57.3199 9.43486 57.8896C9.44984 58.4593 9.92563 58.909 10.4976 58.8941Z" fill="white"/>
<path d="M9.96322 55.7446C10.1626 55.6975 10.3434 55.5925 10.4829 55.443C10.6224 55.2935 10.7142 55.1061 10.7467 54.9046C10.7793 54.7031 10.7511 54.4965 10.6658 54.3109C10.5805 54.1254 10.4418 53.9692 10.2674 53.8621C10.0929 53.755 9.8905 53.7019 9.68574 53.7094C9.48097 53.717 9.28305 53.7848 9.117 53.9044C8.95095 54.024 8.82422 54.1899 8.75286 54.3812C8.68149 54.5726 8.66868 54.7807 8.71606 54.9792C8.77957 55.2454 8.94664 55.4756 9.18052 55.6192C9.4144 55.7627 9.69594 55.8078 9.96322 55.7446Z" fill="white"/>
<path d="M9.21691 52.6228C9.41628 52.5757 9.59712 52.4707 9.73659 52.3212C9.87605 52.1716 9.96787 51.9843 10.0004 51.7828C10.033 51.5813 10.0048 51.3747 9.91948 51.1891C9.83415 51.0035 9.69549 50.8474 9.52104 50.7403C9.3466 50.6332 9.14419 50.5801 8.93943 50.5876C8.73467 50.5951 8.53674 50.663 8.37069 50.7826C8.20464 50.9021 8.07792 51.0681 8.00655 51.2594C7.93518 51.4507 7.92238 51.6588 7.96975 51.8574C8.03327 52.1236 8.20034 52.3538 8.43422 52.4974C8.6681 52.6409 8.94964 52.686 9.21691 52.6228Z" fill="white"/>
<path d="M8.47064 49.5011C8.66935 49.4537 8.84951 49.3487 8.98837 49.1994C9.12723 49.0501 9.21856 48.8631 9.25082 48.6621C9.28309 48.4612 9.25485 48.2552 9.16967 48.0702C9.08449 47.8852 8.94618 47.7294 8.77222 47.6227C8.59825 47.5159 8.39643 47.4629 8.19224 47.4703C7.98804 47.4777 7.79062 47.5452 7.62492 47.6643C7.45921 47.7834 7.33264 47.9487 7.26119 48.1394C7.18974 48.3301 7.17662 48.5376 7.22348 48.7357C7.25468 48.8676 7.31174 48.9921 7.39137 49.1021C7.471 49.212 7.57163 49.3052 7.6875 49.3763C7.80337 49.4474 7.93219 49.4951 8.06658 49.5165C8.20097 49.5379 8.33828 49.5327 8.47064 49.5011Z" fill="white"/>
<path d="M7.72434 46.3794C7.92329 46.3322 8.10373 46.2273 8.24284 46.078C8.38196 45.9287 8.4735 45.7417 8.5059 45.5406C8.53829 45.3394 8.51008 45.1333 8.42484 44.9481C8.33959 44.763 8.20113 44.6071 8.02698 44.5004C7.85283 44.3936 7.6508 44.3407 7.44644 44.3483C7.24208 44.3559 7.04458 44.4236 6.8789 44.5431C6.71323 44.6625 6.58682 44.8281 6.51567 45.0191C6.44453 45.2101 6.43183 45.4178 6.47919 45.6159C6.54269 45.8816 6.70955 46.1113 6.94306 46.2545C7.17656 46.3977 7.45759 46.4426 7.72434 46.3794Z" fill="white"/>
<path d="M6.98009 43.2576C7.17949 43.2103 7.36034 43.1052 7.49976 42.9556C7.63917 42.8059 7.73088 42.6184 7.76328 42.4168C7.79568 42.2152 7.76731 42.0086 7.68177 41.8231C7.59623 41.6375 7.45736 41.4814 7.28274 41.3745C7.10811 41.2676 6.90557 41.2148 6.70076 41.2226C6.49594 41.2304 6.29805 41.2985 6.13213 41.4184C5.96621 41.5382 5.83972 41.7044 5.76866 41.8959C5.6976 42.0874 5.68516 42.2956 5.73293 42.4942C5.76436 42.626 5.82158 42.7503 5.9013 42.86C5.98103 42.9697 6.08169 43.0627 6.19754 43.1336C6.31338 43.2045 6.44213 43.2519 6.57642 43.2732C6.7107 43.2945 6.84787 43.2892 6.98009 43.2576Z" fill="white"/>
<path d="M6.26598 40.2701C6.46473 40.2226 6.64489 40.1175 6.7837 39.9681C6.92251 39.8186 7.01373 39.6316 7.04584 39.4305C7.07796 39.2294 7.04952 39.0234 6.96413 38.8384C6.87874 38.6534 6.74022 38.4978 6.56608 38.3912C6.39194 38.2846 6.18998 38.2318 5.98573 38.2395C5.78148 38.2472 5.5841 38.315 5.41852 38.4344C5.25295 38.5537 5.12661 38.7193 5.05547 38.9102C4.98432 39.1011 4.97157 39.3087 5.01882 39.5067C5.08278 39.7726 5.25003 40.0023 5.48386 40.1454C5.71769 40.2885 5.99898 40.3334 6.26598 40.2701Z" fill="white"/>
<path d="M87.8932 92.6823C88.193 92.1969 88.0411 91.5613 87.5539 91.2626C87.0666 90.9639 86.4285 91.1152 86.1287 91.6006C85.8288 92.0859 85.9807 92.7215 86.4679 93.0202C86.9552 93.3189 87.5933 93.1676 87.8932 92.6823Z" fill="white"/>
<path d="M90.7835 92.0686C91.3556 92.0515 91.8055 91.5756 91.7884 91.0057C91.7712 90.4358 91.2935 89.9877 90.7213 90.0048C90.1492 90.0219 89.6993 90.4978 89.7165 91.0677C89.7336 91.6376 90.2114 92.0857 90.7835 92.0686Z" fill="white"/>
<path d="M93.0402 89.661C92.8407 89.7078 92.6596 89.8125 92.5198 89.9619C92.38 90.1113 92.2879 90.2986 92.255 90.5002C92.2222 90.7017 92.2502 90.9085 92.3353 91.0942C92.4205 91.28 92.5591 91.4364 92.7336 91.5436C92.908 91.6508 93.1105 91.7041 93.3154 91.6967C93.5202 91.6892 93.7183 91.6214 93.8844 91.5018C94.0506 91.3822 94.1774 91.2161 94.2488 91.0247C94.3201 90.8333 94.3329 90.6251 94.2854 90.4264C94.2219 90.1606 94.0551 89.9308 93.8217 89.7873C93.5882 89.6438 93.3072 89.5984 93.0402 89.661Z" fill="white"/>
<path d="M96.1722 88.9177C95.9729 88.9648 95.792 89.0698 95.6526 89.2193C95.5131 89.3689 95.4213 89.5562 95.3887 89.7577C95.3562 89.9592 95.3843 90.1658 95.4697 90.3514C95.555 90.537 95.6936 90.6931 95.8681 90.8002C96.0425 90.9073 96.2449 90.9604 96.4497 90.9529C96.6545 90.9453 96.8524 90.8775 97.0184 90.7579C97.1845 90.6384 97.3112 90.4724 97.3826 90.2811C97.4539 90.0898 97.4667 89.8817 97.4194 89.6831C97.3559 89.4169 97.1888 89.1867 96.9549 89.0431C96.721 88.8996 96.4395 88.8545 96.1722 88.9177Z" fill="white"/>
<path d="M99.3062 88.1763C99.1068 88.2236 98.926 88.3287 98.7866 88.4783C98.6471 88.628 98.5554 88.8155 98.523 89.0171C98.4906 89.2187 98.519 89.4253 98.6045 89.6109C98.6901 89.7964 98.8289 89.9525 99.0036 90.0594C99.1782 90.1663 99.3807 90.2192 99.5856 90.2114C99.7904 90.2036 99.9883 90.1354 100.154 90.0155C100.32 89.8957 100.447 89.7295 100.518 89.538C100.589 89.3465 100.601 89.1383 100.553 88.9397C100.489 88.6739 100.322 88.4442 100.088 88.301C99.8545 88.1579 99.5732 88.1131 99.3062 88.1763Z" fill="white"/>
<path d="M102.44 87.4329C102.241 87.4803 102.061 87.5853 101.922 87.7346C101.784 87.8839 101.692 88.0709 101.66 88.2719C101.628 88.4729 101.656 88.6788 101.741 88.8639C101.826 89.0489 101.965 89.2046 102.139 89.3113C102.313 89.4181 102.514 89.4711 102.719 89.4637C102.923 89.4563 103.12 89.3888 103.286 89.2697C103.452 89.1506 103.578 88.9853 103.65 88.7946C103.721 88.6039 103.734 88.3965 103.687 88.1983C103.624 87.9321 103.457 87.7019 103.223 87.5584C102.989 87.4149 102.707 87.3697 102.44 87.4329Z" fill="white"/>
<path d="M105.574 86.6895C105.375 86.7367 105.194 86.8417 105.055 86.9912C104.915 87.1407 104.823 87.3281 104.791 87.5296C104.758 87.7311 104.786 87.9377 104.872 88.1232C104.957 88.3088 105.096 88.465 105.27 88.5721C105.445 88.6791 105.647 88.7322 105.852 88.7247C106.056 88.7172 106.254 88.6494 106.42 88.5298C106.586 88.4102 106.713 88.2443 106.785 88.0529C106.856 87.8616 106.869 87.6535 106.821 87.4549C106.758 87.1887 106.591 86.9585 106.357 86.815C106.123 86.6715 105.841 86.6263 105.574 86.6895Z" fill="white"/>
<path d="M108.708 85.9543C108.509 86.0018 108.329 86.1069 108.19 86.2563C108.052 86.4058 107.96 86.5928 107.928 86.7939C107.896 86.995 107.925 87.201 108.01 87.386C108.095 87.571 108.234 87.7266 108.408 87.8332C108.582 87.9398 108.784 87.9926 108.988 87.9849C109.193 87.9772 109.39 87.9094 109.556 87.79C109.721 87.6706 109.848 87.5051 109.919 87.3142C109.99 87.1233 110.003 86.9157 109.955 86.7177C109.924 86.5858 109.867 86.4613 109.787 86.3514C109.708 86.2416 109.607 86.1485 109.491 86.0776C109.375 86.0066 109.246 85.9592 109.112 85.938C108.978 85.9169 108.84 85.9224 108.708 85.9543Z" fill="white"/>
<path d="M111.862 85.1988C111.663 85.2459 111.482 85.3509 111.343 85.5005C111.203 85.65 111.111 85.8373 111.079 86.0389C111.046 86.2404 111.074 86.447 111.16 86.6325C111.245 86.8181 111.384 86.9743 111.558 87.0813C111.733 87.1884 111.935 87.2415 112.14 87.234C112.345 87.2265 112.542 87.1586 112.709 87.0391C112.875 86.9195 113.001 86.7535 113.073 86.5622C113.144 86.3709 113.157 86.1628 113.109 85.9642C113.046 85.698 112.879 85.4678 112.645 85.3243C112.411 85.1807 112.13 85.1356 111.862 85.1988Z" fill="white"/>
<path d="M115.018 84.4515C114.819 84.4987 114.638 84.6038 114.499 84.7535C114.359 84.9031 114.268 85.0906 114.235 85.2922C114.203 85.4938 114.231 85.7005 114.317 85.886C114.402 86.0715 114.541 86.2276 114.716 86.3345C114.89 86.4414 115.093 86.4943 115.298 86.4865C115.503 86.4787 115.7 86.4106 115.866 86.2907C116.032 86.1708 116.159 86.0046 116.23 85.8131C116.301 85.6216 116.313 85.4134 116.266 85.2149C116.202 84.949 116.034 84.7193 115.801 84.5762C115.567 84.4331 115.285 84.3882 115.018 84.4515Z" fill="white"/>
<path d="M118.175 83.702C117.975 83.7492 117.794 83.8541 117.655 84.0037C117.515 84.1532 117.424 84.3406 117.391 84.5421C117.358 84.7436 117.387 84.9502 117.472 85.1357C117.557 85.3213 117.696 85.4775 117.87 85.5846C118.045 85.6916 118.247 85.7447 118.452 85.7372C118.657 85.7297 118.855 85.6618 119.021 85.5423C119.187 85.4227 119.314 85.2567 119.385 85.0654C119.456 84.8741 119.469 84.666 119.422 84.4674C119.357 84.2018 119.19 83.9723 118.956 83.8289C118.723 83.6855 118.442 83.6399 118.175 83.702Z" fill="white"/>
<path d="M121.331 82.9487C121.131 82.9959 120.95 83.1008 120.811 83.2504C120.672 83.3999 120.58 83.5873 120.547 83.7888C120.515 83.9903 120.543 84.1969 120.628 84.3824C120.713 84.568 120.852 84.7242 121.027 84.8313C121.201 84.9383 121.403 84.9914 121.608 84.9839C121.813 84.9764 122.011 84.9086 122.177 84.789C122.343 84.6694 122.47 84.5035 122.541 84.3121C122.612 84.1208 122.625 83.9127 122.578 83.7141C122.547 83.5822 122.49 83.4577 122.41 83.3477C122.33 83.2378 122.23 83.1446 122.114 83.0735C121.998 83.0024 121.869 82.9547 121.735 82.9333C121.6 82.9119 121.463 82.9172 121.331 82.9487Z" fill="white"/>
<path d="M124.487 82.2074C124.288 82.2549 124.108 82.36 123.969 82.5094C123.83 82.6589 123.739 82.846 123.707 83.047C123.675 83.2481 123.703 83.4541 123.789 83.6391C123.874 83.8241 124.013 83.9797 124.187 84.0863C124.361 84.1929 124.563 84.2457 124.767 84.238C124.971 84.2303 125.169 84.1625 125.334 84.0431C125.5 83.9238 125.626 83.7582 125.697 83.5673C125.768 83.3765 125.781 83.1689 125.734 82.9708C125.703 82.839 125.645 82.7147 125.566 82.605C125.486 82.4953 125.385 82.4023 125.269 82.3314C125.154 82.2605 125.025 82.213 124.89 82.1917C124.756 82.1705 124.619 82.1758 124.487 82.2074Z" fill="white"/>
<path d="M127.641 81.458C127.442 81.5051 127.261 81.6101 127.121 81.7596C126.982 81.9091 126.89 82.0965 126.857 82.298C126.825 82.4995 126.853 82.7061 126.938 82.8917C127.024 83.0772 127.162 83.2334 127.337 83.3405C127.511 83.4476 127.714 83.5007 127.918 83.4932C128.123 83.4856 128.321 83.4178 128.487 83.2982C128.653 83.1786 128.78 83.0127 128.851 82.8214C128.923 82.6301 128.935 82.4219 128.888 82.2234C128.825 81.9572 128.657 81.727 128.424 81.5834C128.19 81.4399 127.908 81.3948 127.641 81.458Z" fill="white"/>
<path d="M131.066 82.7419C131.638 82.727 132.089 82.253 132.074 81.6833C132.06 81.1136 131.584 80.6639 131.012 80.6788C130.44 80.6937 129.988 81.1677 130.003 81.7374C130.018 82.3071 130.494 82.7568 131.066 82.7419Z" fill="white"/>
<path d="M133.953 79.9632C133.754 80.0107 133.574 80.1158 133.435 80.2653C133.297 80.4147 133.205 80.6018 133.173 80.8029C133.141 81.0039 133.17 81.21 133.255 81.3949C133.34 81.5799 133.479 81.7355 133.653 81.8421C133.827 81.9487 134.029 82.0015 134.233 81.9938C134.438 81.9862 134.635 81.9183 134.801 81.799C134.966 81.6796 135.093 81.514 135.164 81.3231C135.235 81.1323 135.248 80.9247 135.2 80.7266C135.136 80.4607 134.969 80.2311 134.735 80.0879C134.501 79.9448 134.22 79.8999 133.953 79.9632Z" fill="white"/>
<path d="M137.349 81.2496C137.921 81.2496 138.385 80.7876 138.385 80.2177C138.385 79.6478 137.921 79.1858 137.349 79.1858C136.776 79.1858 136.313 79.6478 136.313 80.2177C136.313 80.7876 136.776 81.2496 137.349 81.2496Z" fill="white"/>
<path d="M140.271 78.4664C140.073 78.5138 139.893 78.6188 139.754 78.7681C139.615 78.9174 139.524 79.1044 139.491 79.3054C139.459 79.5064 139.487 79.7123 139.572 79.8973C139.658 80.0824 139.796 80.2381 139.97 80.3448C140.144 80.4516 140.346 80.5046 140.55 80.4972C140.754 80.4898 140.951 80.4223 141.117 80.3032C141.283 80.1841 141.409 80.0188 141.481 79.8281C141.552 79.6374 141.565 79.4299 141.519 79.2318C141.487 79.0999 141.43 78.9754 141.351 78.8654C141.271 78.7555 141.17 78.6623 141.055 78.5912C140.939 78.5201 140.81 78.4724 140.675 78.451C140.541 78.4296 140.404 78.4349 140.271 78.4664Z" fill="white"/>
<path d="M143.42 77.7191C143.22 77.7664 143.039 77.8714 142.9 78.0211C142.76 78.1708 142.669 78.3583 142.636 78.5599C142.604 78.7615 142.632 78.9681 142.718 79.1536C142.803 79.3392 142.942 79.4953 143.117 79.6021C143.291 79.709 143.494 79.7619 143.699 79.7541C143.904 79.7463 144.102 79.6782 144.267 79.5583C144.433 79.4384 144.56 79.2722 144.631 79.0807C144.702 78.8892 144.714 78.6811 144.667 78.4825C144.635 78.3507 144.578 78.2264 144.498 78.1167C144.419 78.007 144.318 77.914 144.202 77.8431C144.086 77.7722 143.957 77.7247 143.823 77.7035C143.689 77.6822 143.552 77.6875 143.42 77.7191Z" fill="white"/>
<path d="M146.576 76.9697C146.376 77.0168 146.195 77.1218 146.056 77.2713C145.916 77.4209 145.825 77.6082 145.792 77.8097C145.76 78.0112 145.788 78.2178 145.873 78.4034C145.958 78.589 146.097 78.7451 146.271 78.8522C146.446 78.9593 146.648 79.0124 146.853 79.0049C147.058 78.9974 147.256 78.9295 147.422 78.8099C147.588 78.6904 147.715 78.5244 147.786 78.3331C147.857 78.1418 147.87 77.9337 147.823 77.7351C147.759 77.4689 147.592 77.2387 147.358 77.0951C147.124 76.9516 146.843 76.9065 146.576 76.9697Z" fill="white"/>
<path d="M149.726 76.2224C149.527 76.2699 149.347 76.375 149.208 76.5244C149.069 76.6739 148.978 76.8609 148.946 77.062C148.914 77.2631 148.942 77.4691 149.028 77.6541C149.113 77.8391 149.251 77.9947 149.426 78.1013C149.6 78.2079 149.802 78.2607 150.006 78.253C150.21 78.2453 150.408 78.1775 150.573 78.0581C150.739 77.9387 150.865 77.7732 150.936 77.5823C151.007 77.3914 151.02 77.1838 150.973 76.9858C150.909 76.7199 150.742 76.4902 150.508 76.3471C150.274 76.2039 149.993 76.1591 149.726 76.2224Z" fill="white"/>
<path d="M153.156 77.5031C153.728 77.4882 154.18 77.0143 154.165 76.4446C154.15 75.8749 153.674 75.4251 153.102 75.44C152.53 75.4549 152.079 75.9289 152.094 76.4986C152.109 77.0683 152.585 77.518 153.156 77.5031Z" fill="white"/>
<path d="M156.044 74.7335C155.844 74.7803 155.663 74.885 155.524 75.0344C155.384 75.1838 155.292 75.3711 155.259 75.5727C155.226 75.7742 155.254 75.981 155.339 76.1667C155.424 76.3525 155.563 76.5089 155.737 76.6161C155.912 76.7233 156.114 76.7766 156.319 76.7692C156.524 76.7617 156.722 76.6939 156.888 76.5743C157.054 76.4547 157.181 76.2886 157.253 76.0972C157.324 75.9058 157.337 75.6976 157.289 75.4989C157.226 75.2331 157.059 75.0033 156.825 74.8598C156.592 74.7163 156.311 74.6709 156.044 74.7335Z" fill="white"/>
<path d="M159.527 73.9294C160.099 73.9123 160.549 73.4365 160.532 72.8666C160.515 72.2967 160.037 71.8486 159.465 71.8656C158.893 71.8827 158.443 72.3586 158.46 72.9285C158.477 73.4984 158.955 73.9465 159.527 73.9294Z" fill="white"/>
<path d="M160.313 69.6241C160.115 69.6792 159.939 69.7914 159.806 69.9464C159.672 70.1013 159.588 70.2922 159.564 70.4948C159.539 70.6974 159.576 70.9027 159.668 71.0847C159.761 71.2667 159.906 71.4172 160.085 71.5172C160.263 71.6172 160.468 71.6622 160.672 71.6465C160.876 71.6309 161.071 71.5552 161.232 71.4292C161.393 71.3031 161.513 71.1323 161.577 70.9383C161.641 70.7444 161.645 70.536 161.59 70.3395C161.553 70.2088 161.491 70.0866 161.407 69.9798C161.323 69.8731 161.219 69.7839 161.1 69.7175C160.982 69.651 160.851 69.6086 160.716 69.5925C160.581 69.5765 160.444 69.5873 160.313 69.6241Z" fill="white"/>
<path d="M161.93 66.7589C161.732 66.8137 161.556 66.9255 161.422 67.0804C161.288 67.2352 161.204 67.4261 161.179 67.6288C161.155 67.8315 161.191 68.0369 161.283 68.2191C161.376 68.4012 161.521 68.5519 161.699 68.6521C161.878 68.7523 162.082 68.7974 162.287 68.7819C162.491 68.7663 162.686 68.6906 162.848 68.5645C163.009 68.4384 163.129 68.2675 163.192 68.0734C163.256 67.8793 163.261 67.6708 163.205 67.4742C163.131 67.211 162.955 66.9879 162.716 66.8538C162.477 66.7197 162.194 66.6856 161.93 66.7589Z" fill="white"/>
<path d="M163.545 63.8956C163.348 63.9509 163.171 64.0632 163.038 64.2183C162.905 64.3734 162.821 64.5644 162.797 64.7671C162.772 64.9698 162.809 65.1751 162.902 65.357C162.995 65.5389 163.14 65.6893 163.319 65.7892C163.498 65.889 163.702 65.9338 163.906 65.9178C164.111 65.9019 164.306 65.8259 164.467 65.6996C164.628 65.5732 164.747 65.4022 164.811 65.208C164.874 65.0139 164.878 64.8054 164.822 64.609C164.786 64.4785 164.724 64.3565 164.64 64.25C164.555 64.1434 164.451 64.0545 164.332 63.9882C164.214 63.922 164.083 63.8797 163.948 63.8638C163.813 63.8479 163.676 63.8587 163.545 63.8956Z" fill="white"/>
<path d="M165.162 61.0304C164.965 61.0853 164.788 61.1973 164.655 61.3523C164.521 61.5073 164.437 61.6982 164.412 61.901C164.388 62.1038 164.424 62.3092 164.517 62.4914C164.61 62.6735 164.755 62.8241 164.934 62.9241C165.112 63.0241 165.317 63.069 165.521 63.0531C165.726 63.0372 165.921 62.9613 166.082 62.8349C166.243 62.7085 166.363 62.5373 166.426 62.3431C166.489 62.1488 166.493 61.9402 166.438 61.7437C166.401 61.6134 166.339 61.4916 166.255 61.3853C166.171 61.2789 166.067 61.1901 165.948 61.1238C165.83 61.0576 165.7 61.0152 165.565 60.9992C165.43 60.9832 165.293 60.9938 165.162 61.0304Z" fill="white"/>
<path d="M166.778 58.1651C166.58 58.2202 166.404 58.3323 166.271 58.4873C166.137 58.6423 166.053 58.8331 166.029 59.0357C166.004 59.2384 166.041 59.4436 166.134 59.6256C166.226 59.8076 166.371 59.9581 166.55 60.0581C166.728 60.1581 166.933 60.2031 167.137 60.1875C167.341 60.1718 167.536 60.0962 167.697 59.9701C167.858 59.8441 167.978 59.6732 168.042 59.4793C168.106 59.2853 168.11 59.0769 168.055 58.8804C168.018 58.7498 167.956 58.6278 167.872 58.5212C167.788 58.4146 167.684 58.3255 167.565 58.2591C167.446 58.1927 167.316 58.1502 167.181 58.134C167.046 58.1179 166.909 58.1284 166.778 58.1651Z" fill="white"/>
<path d="M168.395 55.2978C168.198 55.3529 168.021 55.465 167.888 55.62C167.755 55.775 167.671 55.9658 167.646 56.1684C167.622 56.3711 167.658 56.5763 167.751 56.7583C167.844 56.9403 167.988 57.0908 168.167 57.1908C168.346 57.2908 168.55 57.3358 168.754 57.3202C168.958 57.3045 169.153 57.2289 169.315 57.1028C169.476 56.9768 169.596 56.8059 169.659 56.612C169.723 56.418 169.727 56.2096 169.672 56.0131C169.598 55.7498 169.421 55.5266 169.182 55.3926C168.943 55.2585 168.66 55.2244 168.395 55.2978Z" fill="white"/>
<path d="M170.012 52.4346C169.815 52.4893 169.638 52.6012 169.504 52.7561C169.371 52.9109 169.286 53.1018 169.262 53.3045C169.237 53.5071 169.273 53.7126 169.366 53.8947C169.458 54.0769 169.603 54.2276 169.782 54.3278C169.96 54.428 170.165 54.4731 170.369 54.4575C170.574 54.4419 170.769 54.3663 170.93 54.2402C171.091 54.1141 171.211 53.9432 171.275 53.7491C171.338 53.555 171.343 53.3465 171.288 53.1499C171.213 52.8867 171.037 52.6636 170.798 52.5295C170.559 52.3954 170.277 52.3612 170.012 52.4346Z" fill="white"/>
<path d="M171.627 49.5713C171.43 49.6265 171.254 49.7388 171.121 49.8939C170.987 50.049 170.903 50.24 170.879 50.4427C170.855 50.6454 170.892 50.8507 170.984 51.0326C171.077 51.2146 171.222 51.365 171.401 51.4648C171.58 51.5646 171.784 51.6094 171.989 51.5935C172.193 51.5775 172.388 51.5016 172.549 51.3752C172.71 51.2489 172.83 51.0778 172.893 50.8837C172.956 50.6896 172.96 50.4811 172.905 50.2846C172.868 50.154 172.806 50.0318 172.722 49.9252C172.638 49.8185 172.534 49.7295 172.415 49.6632C172.296 49.5969 172.166 49.5546 172.031 49.5388C171.895 49.5231 171.758 49.5341 171.627 49.5713Z" fill="white"/>
<path d="M173.245 46.7059C173.047 46.7608 172.871 46.8728 172.737 47.0278C172.604 47.1828 172.519 47.3738 172.495 47.5766C172.47 47.7793 172.507 47.9848 172.599 48.1669C172.692 48.349 172.837 48.4996 173.016 48.5996C173.195 48.6996 173.399 48.7445 173.604 48.7286C173.808 48.7128 174.003 48.6368 174.164 48.5104C174.325 48.384 174.445 48.2129 174.508 48.0186C174.572 47.8244 174.576 47.6158 174.52 47.4192C174.483 47.289 174.421 47.1672 174.337 47.0608C174.253 46.9544 174.149 46.8656 174.031 46.7994C173.912 46.7331 173.782 46.6908 173.647 46.6747C173.512 46.6587 173.376 46.6693 173.245 46.7059Z" fill="white"/>
<path d="M174.87 43.8407C174.673 43.8958 174.496 44.0079 174.363 44.1629C174.23 44.3179 174.146 44.5088 174.121 44.7114C174.097 44.914 174.133 45.1193 174.226 45.3013C174.319 45.4832 174.464 45.6338 174.642 45.7338C174.821 45.8338 175.025 45.8788 175.229 45.8631C175.434 45.8475 175.629 45.7718 175.79 45.6458C175.951 45.5197 176.071 45.3489 176.135 45.1549C176.198 44.961 176.203 44.7525 176.147 44.556C176.111 44.4255 176.049 44.3034 175.965 44.1968C175.88 44.0903 175.776 44.0012 175.658 43.9348C175.539 43.8683 175.408 43.8259 175.273 43.8097C175.138 43.7936 175.001 43.8041 174.87 43.8407Z" fill="white"/>
<path d="M176.479 40.9755C176.282 41.0302 176.105 41.1421 175.972 41.297C175.838 41.4518 175.753 41.6427 175.729 41.8454C175.704 42.0481 175.74 42.2535 175.833 42.4357C175.926 42.6178 176.07 42.7685 176.249 42.8687C176.428 42.9689 176.632 43.014 176.836 42.9984C177.041 42.9828 177.236 42.9072 177.397 42.7811C177.558 42.655 177.678 42.4841 177.742 42.29C177.806 42.0959 177.81 41.8874 177.755 41.6908C177.68 41.4279 177.504 41.2051 177.265 41.0711C177.026 40.9371 176.744 40.9027 176.479 40.9755Z" fill="white"/>
<path d="M178.089 38.1101C177.891 38.1652 177.715 38.2774 177.582 38.4323C177.448 38.5873 177.364 38.7782 177.34 38.9808C177.315 39.1834 177.352 39.3887 177.445 39.5707C177.537 39.7526 177.682 39.9032 177.861 40.0032C178.039 40.1032 178.244 40.1482 178.448 40.1325C178.652 40.1169 178.847 40.0412 179.008 39.9152C179.169 39.7891 179.289 39.6183 179.353 39.4243C179.417 39.2304 179.421 39.0219 179.366 38.8254C179.329 38.6949 179.267 38.5729 179.183 38.4663C179.099 38.3597 178.995 38.2706 178.876 38.2042C178.757 38.1378 178.627 38.0953 178.492 38.0791C178.357 38.063 178.22 38.0735 178.089 38.1101Z" fill="white"/>
<path d="M179.71 35.2468C179.513 35.3021 179.336 35.4143 179.203 35.5695C179.07 35.7246 178.986 35.9156 178.961 36.1183C178.937 36.321 178.974 36.5263 179.067 36.7082C179.16 36.8901 179.305 37.0405 179.484 37.1403C179.662 37.2402 179.867 37.2849 180.071 37.269C180.275 37.2531 180.47 37.1771 180.631 37.0508C180.792 36.9244 180.912 36.7534 180.975 36.5592C181.039 36.3651 181.043 36.1566 180.987 35.9601C180.951 35.8297 180.888 35.7077 180.804 35.6012C180.72 35.4946 180.616 35.4057 180.497 35.3394C180.379 35.2732 180.248 35.2309 180.113 35.215C179.978 35.1991 179.841 35.2099 179.71 35.2468Z" fill="white"/>
<path d="M179.971 31.8887C179.774 31.9438 179.598 32.0559 179.464 32.2109C179.331 32.3659 179.247 32.5567 179.223 32.7594C179.198 32.962 179.235 33.1673 179.327 33.3492C179.42 33.5312 179.565 33.6817 179.743 33.7817C179.922 33.8817 180.126 33.9268 180.331 33.9111C180.535 33.8954 180.73 33.8198 180.891 33.6937C181.052 33.5677 181.172 33.3969 181.236 33.2029C181.299 33.0089 181.304 32.8005 181.249 32.604C181.212 32.4735 181.15 32.3514 181.066 32.2448C180.982 32.1382 180.877 32.0492 180.759 31.9827C180.64 31.9163 180.51 31.8738 180.375 31.8577C180.239 31.8415 180.102 31.8521 179.971 31.8887Z" fill="white"/>
<path d="M168.992 41.0765C171.403 38.675 171.403 34.7815 168.992 32.38C166.581 29.9786 162.672 29.9786 160.261 32.38C157.85 34.7815 157.85 38.675 160.261 41.0765C162.672 43.478 166.581 43.478 168.992 41.0765Z" fill="white"/>
<path d="M30.7523 74.1631L25.9781 74.0746L22.9708 51.5032L45.6849 46.1177L46.9177 51.3173L28.9776 55.5709L30.4947 67.9293C31.195 67.2708 32.1153 66.5923 33.2557 65.8937C34.4164 65.1902 35.8076 64.6463 37.4293 64.2618C39.4768 63.7763 41.3954 63.6961 43.1853 64.0211C44.9705 64.3258 46.5844 64.9922 48.0272 66.0204C49.4903 67.0438 50.7422 68.3957 51.7829 70.0759C52.8236 71.7561 53.6107 73.7213 54.1442 75.9714C54.6489 78.0999 54.8188 80.1258 54.6539 82.049C54.5093 83.9675 54.0178 85.7327 53.1796 87.3445C52.3365 88.9361 51.1197 90.3059 49.5291 91.4538C47.9588 92.5969 45.9878 93.4497 43.6161 94.012C41.8322 94.435 40.0819 94.593 38.3651 94.4862C36.6637 94.3543 35.0645 93.9306 33.5674 93.215C32.0857 92.4744 30.7693 91.4376 29.6183 90.1047C28.4827 88.7467 27.5684 87.058 26.8754 85.0383L32.2271 83.7695C32.8644 85.374 33.6826 86.6574 34.6815 87.6196C35.6804 88.5817 36.8375 89.2174 38.1526 89.5265C39.4832 89.8105 40.939 89.765 42.5202 89.3901C43.8581 89.0729 44.9887 88.5586 45.912 87.8473C46.8353 87.1359 47.5484 86.2603 48.0512 85.2204C48.554 84.1805 48.8413 82.999 48.9129 81.6759C49.0049 80.3481 48.8683 78.9138 48.503 77.3732C48.1713 75.9745 47.6711 74.7228 47.0024 73.6181C46.3337 72.5134 45.5084 71.6064 44.5266 70.8971C43.5651 70.183 42.4793 69.7125 41.2693 69.4855C40.0545 69.2383 38.7376 69.2829 37.3186 69.6193C35.4334 70.0663 34.0644 70.6586 33.2115 71.396C32.3789 72.1287 31.5592 73.0511 30.7523 74.1631ZM74.7395 39.1645L75.226 39.0492L76.3579 43.8231L75.8714 43.9384C72.8915 44.645 70.5135 45.7227 68.7374 47.1715C66.9564 48.6001 65.6703 50.2646 64.8791 52.1651C64.083 54.0453 63.6594 56.0513 63.6082 58.1832C63.5772 60.3102 63.8069 62.4075 64.2971 64.4752L65.84 70.9823C66.3062 72.9486 66.9527 74.6367 67.7794 76.0465C68.6013 77.436 69.5403 78.5516 70.5962 79.3931C71.6522 80.2347 72.7495 80.7989 73.888 81.0856C75.0468 81.3675 76.1837 81.3763 77.2986 81.112C78.596 80.8044 79.6937 80.2872 80.592 79.5603C81.4854 78.8132 82.1709 77.912 82.6487 76.8566C83.1419 75.7762 83.4243 74.5745 83.496 73.2514C83.5677 71.9283 83.4281 70.5269 83.0773 69.0471C82.7649 67.7294 82.3023 66.5009 81.6896 65.3616C81.072 64.2019 80.3158 63.225 79.421 62.4309C78.5213 61.6165 77.4998 61.0558 76.3565 60.7487C75.2286 60.4167 73.9755 60.414 72.597 60.7409C71.0361 61.111 69.6679 61.8422 68.4924 62.9345C67.3323 64.0018 66.463 65.257 65.8845 66.7002C65.3215 68.1184 65.1498 69.5615 65.3695 71.0296L62.3824 71.7057C62.1279 69.3681 62.1959 67.3072 62.5865 65.5231C62.9926 63.714 63.6532 62.1656 64.5683 60.8781C65.4989 59.5655 66.6286 58.5054 67.9573 57.6979C69.3015 56.8654 70.7844 56.2568 72.4062 55.8723C74.6157 55.3484 76.6198 55.3122 78.4183 55.7636C80.2168 56.215 81.7987 57.0175 83.1642 58.1711C84.5249 59.3044 85.6552 60.6851 86.555 62.3131C87.4703 63.916 88.1443 65.6296 88.5769 67.4541C89.0719 69.542 89.2418 71.5679 89.0865 73.5317C88.9312 75.4955 88.4291 77.306 87.5802 78.9632C86.7516 80.6156 85.5772 82.0289 84.057 83.2029C82.5369 84.377 80.6518 85.2307 78.4017 85.7642C76.0096 86.3314 73.8063 86.3399 71.7918 85.7899C69.7724 85.2196 67.9801 84.2528 66.4151 82.8896C64.85 81.5264 63.5357 79.911 62.472 78.0436C61.4083 76.1761 60.6313 74.2085 60.141 72.1408L59.5138 69.4954C58.7736 66.3736 58.3621 63.2382 58.2791 60.089C58.1962 56.9399 58.6367 53.9664 59.6005 51.1685C60.5846 48.3659 62.2845 45.9181 64.7002 43.8251C67.1158 41.7322 70.4623 40.1787 74.7395 39.1645ZM120.398 48.0582L121.999 54.8086C122.859 58.4371 123.26 61.575 123.203 64.2222C123.145 66.8694 122.689 69.0973 121.833 70.9061C120.977 72.7148 119.769 74.168 118.21 75.2658C116.666 76.3385 114.819 77.1296 112.67 77.6391C110.968 78.0428 109.346 78.2024 107.806 78.118C106.266 78.0336 104.807 77.6621 103.431 77.0036C102.07 76.32 100.803 75.3141 99.6321 73.986C98.4607 72.6579 97.4051 70.9598 96.4651 68.8917C95.5251 66.8236 94.7115 64.3402 94.0242 61.4414L92.4236 54.691C91.5633 51.0625 91.1667 47.9449 91.2338 45.3382C91.3212 42.7268 91.7976 40.537 92.663 38.7688C93.5236 36.9803 94.7284 35.5599 96.2774 34.5075C97.8466 33.4503 99.6955 32.6693 101.824 32.1646C103.547 31.7561 105.179 31.594 106.719 31.6785C108.275 31.7379 109.728 32.0891 111.08 32.7321C112.426 33.3549 113.673 34.3226 114.819 35.6352C115.981 36.9228 117.029 38.5905 117.964 40.6383C118.899 42.6861 119.711 45.1594 120.398 48.0582ZM116.559 57.0618L114.519 48.4566C114.048 46.47 113.513 44.7555 112.914 43.3131C112.33 41.8456 111.688 40.6276 110.988 39.6589C110.287 38.6903 109.513 37.9532 108.665 37.4477C107.837 36.9373 106.941 36.6359 105.977 36.5433C105.029 36.4256 104.007 36.4965 102.913 36.7561C101.575 37.0733 100.449 37.6079 99.5353 38.3598C98.6168 39.0914 97.9301 40.0785 97.4754 41.3211C97.0409 42.5589 96.8479 44.0928 96.8964 45.9226C96.9448 47.7525 97.2646 49.9141 97.8558 52.4074L99.8961 61.0126C100.367 62.9992 100.894 64.7262 101.478 66.1937C102.082 67.6564 102.749 68.8899 103.479 69.8943C104.205 70.8784 104.987 71.6459 105.824 72.1968C106.661 72.7477 107.556 73.0921 108.51 73.23C109.478 73.3429 110.5 73.2719 111.574 73.0172C112.953 72.6904 114.097 72.1409 115.005 71.3687C115.914 70.5965 116.581 69.5712 117.006 68.2929C117.446 66.9895 117.63 65.4151 117.556 63.5698C117.478 61.7042 117.146 59.5349 116.559 57.0618Z" fill="white"/>
<path d="M135.695 63.2212L135.921 64.1188L131.933 65.1258L133.795 72.4998L132.704 72.7753L130.616 64.5036L135.695 63.2212ZM141.361 67.1386L139.151 67.6967L138.926 66.8047L141.136 66.2467C141.564 66.1386 141.893 65.983 142.124 65.7797C142.355 65.5764 142.5 65.3382 142.56 65.0653C142.624 64.7913 142.616 64.499 142.538 64.1885C142.466 63.9044 142.336 63.6532 142.148 63.4348C141.964 63.2154 141.72 63.0635 141.417 62.9789C141.112 62.8906 140.746 62.9004 140.318 63.0085L138.364 63.502L140.226 70.876L139.13 71.1528L137.041 62.8812L140.092 62.1109C140.717 61.9531 141.272 61.9276 141.758 62.0345C142.245 62.1413 142.648 62.3578 142.968 62.6839C143.287 63.0062 143.508 63.4117 143.632 63.9003C143.765 64.4305 143.768 64.9113 143.639 65.3427C143.51 65.774 143.255 66.1427 142.873 66.4487C142.49 66.7509 141.986 66.9808 141.361 67.1386ZM150.682 63.22L150.907 64.1119L146.43 65.2423L146.205 64.3504L150.682 63.22ZM145.477 60.751L147.566 69.0226L146.469 69.2995L144.381 61.0278L145.477 60.751ZM150.738 59.4226L152.827 67.6943L151.736 67.9697L149.647 59.6981L150.738 59.4226ZM154.493 66.6814C154.448 66.5033 154.465 66.3399 154.544 66.191C154.626 66.0373 154.773 65.9337 154.985 65.8801C155.197 65.8266 155.374 65.8484 155.515 65.9457C155.66 66.0382 155.754 66.1734 155.799 66.3514C155.843 66.5256 155.824 66.6877 155.741 66.8376C155.661 66.9865 155.516 67.0878 155.304 67.1413C155.092 67.1949 154.913 67.1754 154.769 67.0829C154.629 66.9894 154.537 66.8556 154.493 66.6814Z" fill="white"/>
</svg>
