<svg xmlns="http://www.w3.org/2000/svg" width="56" height="49" viewBox="0 0 56 49"><defs><mask id="rzswb" width="2" height="2" x="-1" y="-1"><path fill="#fff" d="M5 4h46v39H5z"/><path d="M28 4l22.517 39H5.483z"/></mask><filter id="rzswa" width="74" height="69" x="-9" y="-10" filterUnits="userSpaceOnUse"><feOffset dy="2" in="SourceGraphic" result="FeOffset1965Out"/><feGaussianBlur in="FeOffset1965Out" result="FeGaussianBlur1966Out" stdDeviation="1.6 1.6"/></filter><filter id="rzswc" width="200%" height="200%" x="-50%" y="-50%"><feGaussianBlur in="SourceGraphic" result="FeGaussianBlur1971Out" stdDeviation="2.5 2.5"/></filter><mask id="rzswd"><path fill="#fff" d="M28 4l22.517 39H5.483z"/></mask><clipPath id="rzswe"><path fill="#fff" d="M28 4l22.517 39H5.483z"/></clipPath></defs><g><g><g filter="url(#rzswa)"><path fill="none" d="M28 4l22.517 39H5.483z" mask="url(&quot;#rzswb&quot;)"/><path fill-opacity=".25" d="M28 4l22.517 39H5.483z"/></g><path fill="#886b32" d="M28 4l22.517 39H5.483z"/><path fill-opacity=".2" d="M0 49V-2h56v51zm5.483-5h45.034L28 5z" filter="url(#rzswc)" mask="url(&quot;#rzswd&quot;)"/><path fill="none" stroke="#695224" stroke-miterlimit="20" stroke-width="2" d="M28 4v0l22.517 39v0H5.483v0z" clip-path="url(&quot;#rzswe&quot;)"/></g></g></svg>