<svg xmlns="http://www.w3.org/2000/svg" width="32" height="32"><path fill="#283644" d="M11.377 19.553c-.563 0-1.033-.19-1.412-.568-.379-.379-.568-.85-.568-1.412 0-.562.19-1.032.568-1.411.379-.38.85-.569 1.412-.569.562 0 1.032.19 1.411.569.38.379.569.85.569 1.411 0 .563-.19 1.033-.569 1.412-.379.379-.85.568-1.411.568zm9.276 0c-.562 0-1.032-.19-1.411-.568-.38-.379-.569-.85-.569-1.412 0-.562.19-1.032.569-1.411.379-.38.85-.569 1.411-.569.563 0 1.033.19 1.412.569.379.379.568.85.568 1.411 0 .563-.19 1.033-.568 1.412-.379.379-.85.568-1.412.568zm-4.656 8.91c3.47 0 6.416-1.21 8.836-3.63s3.63-5.365 3.63-8.836c0-.636-.049-1.26-.146-1.87a14.479 14.479 0 00-.367-1.687 10.15 10.15 0 01-1.595.257c-.574.049-1.167.073-1.778.073a15.84 15.84 0 01-6.729-1.467 15.188 15.188 0 01-5.408-4.18 15.235 15.235 0 01-3.575 5.189A16.702 16.702 0 013.53 15.74v.257c0 3.47 1.21 6.416 3.63 8.836s5.366 3.63 8.837 3.63zm0 2.2c-2.03 0-3.936-.385-5.72-1.155-1.785-.77-3.337-1.815-4.657-3.135-1.32-1.32-2.365-2.872-3.135-4.656-.77-1.785-1.155-3.691-1.155-5.72 0-2.03.385-3.936 1.155-5.72C3.255 8.492 4.3 6.94 5.62 5.62c1.32-1.32 2.872-2.365 4.657-3.135 1.784-.77 3.69-1.155 5.72-1.155 2.029 0 3.935.385 5.72 1.155 1.784.77 3.336 1.815 4.656 3.135 1.32 1.32 2.365 2.872 3.135 4.657.77 1.784 1.155 3.69 1.155 5.72 0 2.029-.385 3.935-1.155 5.72-.77 1.784-1.815 3.336-3.135 4.656-1.32 1.32-2.872 2.365-4.656 3.135-1.785.77-3.691 1.155-5.72 1.155zm2.585-21.486c1.82.929 3.82 1.393 5.995 1.393.586 0 1.05-.012 1.393-.037a5.442 5.442 0 001.137-.22 13.963 13.963 0 00-4.492-4.876c-1.894-1.271-4.1-1.907-6.618-1.907-.66 0-1.284.049-1.87.147a12.67 12.67 0 00-1.504.33c2.151 2.517 4.138 4.24 5.959 5.17zM3.86 13.137c1.173-.44 2.512-1.436 4.015-2.989 1.503-1.552 2.573-3.428 3.208-5.628-2.126.953-3.734 2.17-4.821 3.648a15.242 15.242 0 00-2.402 4.969z"/></svg>