<svg xmlns="http://www.w3.org/2000/svg" width="32" height="32"><path fill="#283644" d="M11.548 19.433c-.542 0-.996-.183-1.361-.548-.366-.366-.548-.82-.548-1.362 0-.542.182-.996.548-1.361.365-.365.819-.548 1.36-.548.543 0 .997.183 1.362.548.365.365.548.82.548 1.361 0 .542-.183.996-.548 1.362-.365.365-.819.548-1.361.548zm8.945 0c-.542 0-.996-.183-1.361-.548-.365-.366-.548-.82-.548-1.362 0-.542.183-.996.548-1.361.365-.365.82-.548 1.361-.548.542 0 .996.183 1.362.548.365.365.548.82.548 1.361 0 .542-.183.996-.548 1.362-.366.365-.82.548-1.362.548zm-4.49 8.591c3.347 0 6.187-1.167 8.52-3.5 2.335-2.334 3.501-5.174 3.501-8.521 0-.613-.047-1.214-.141-1.803a13.976 13.976 0 00-.354-1.627 9.75 9.75 0 01-1.538.248c-.554.047-1.125.07-1.715.07-2.286 0-4.449-.471-6.488-1.414a14.646 14.646 0 01-5.215-4.03 14.69 14.69 0 01-3.447 5.003 16.107 16.107 0 01-5.145 3.305v.248c0 3.347 1.167 6.187 3.5 8.52 2.334 2.335 5.175 3.501 8.522 3.501zm0 2.122c-1.957 0-3.795-.371-5.516-1.114a14.282 14.282 0 01-4.49-3.023 14.281 14.281 0 01-3.023-4.49c-.743-1.721-1.114-3.56-1.114-5.516 0-1.957.371-3.795 1.114-5.516a14.282 14.282 0 013.023-4.49 14.282 14.282 0 014.49-3.023c1.72-.743 3.56-1.114 5.516-1.114s3.795.371 5.516 1.114a14.28 14.28 0 014.49 3.023 14.282 14.282 0 013.023 4.49c.743 1.72 1.114 3.56 1.114 5.516s-.371 3.795-1.114 5.516a14.281 14.281 0 01-3.023 4.49 14.281 14.281 0 01-4.49 3.023c-1.721.743-3.56 1.114-5.516 1.114zM12.75 4.44c2.074 2.428 3.99 4.09 5.745 4.985 1.757.896 3.684 1.344 5.781 1.344.566 0 1.014-.012 1.344-.035.33-.024.695-.095 1.096-.213a13.464 13.464 0 00-4.331-4.702c-1.827-1.226-3.954-1.839-6.382-1.839-.637 0-1.238.048-1.803.142-.566.094-1.05.2-1.45.318zM4.3 13.245c1.131-.424 2.422-1.385 3.871-2.882 1.45-1.496 2.481-3.306 3.094-5.427-2.05.92-3.6 2.092-4.65 3.518A14.698 14.698 0 004.3 13.245z"/></svg>