<svg xmlns="http://www.w3.org/2000/svg" width="74" height="74"><defs><filter id="a" width="82" height="86" x="-5" y="-5" filterUnits="userSpaceOnUse"><feOffset dy="4" in="SourceGraphic" result="FeOffset1179Out"/><feGaussianBlur in="FeOffset1179Out" result="FeGaussianBlur1180Out" stdDeviation="1.6 1.6"/></filter><filter id="c" width="200%" height="200%" x="-50%" y="-50%"><feGaussianBlur in="SourceGraphic" result="FeGaussianBlur1185Out" stdDeviation="5 5"/></filter><mask id="b" width="2" height="2" x="-1" y="-1"><path fill="#fff" d="M9 9h54v54H9z"/><path d="M63 36c0 4.745-1.224 9.204-3.373 13.078-1.108 1.997 2.364 8.664.805 10.31-1.786 1.887-8.668-1.31-10.932 0A26.876 26.876 0 0136 63C21.088 63 9 50.912 9 36S21.088 9 36 9s27 12.088 27 27z"/></mask><mask id="d"><path fill="#fff" d="M63 36c0 4.745-1.224 9.204-3.373 13.078-1.108 1.997 2.364 8.664.805 10.31-1.786 1.887-8.668-1.31-10.932 0A26.876 26.876 0 0136 63C21.088 63 9 50.912 9 36S21.088 9 36 9s27 12.088 27 27z"/></mask></defs><g filter="url(#a)"><path fill="none" d="M63 36c0 4.745-1.224 9.204-3.373 13.078-1.108 1.997 2.364 8.664.805 10.31-1.786 1.887-8.668-1.31-10.932 0A26.876 26.876 0 0136 63C21.088 63 9 50.912 9 36S21.088 9 36 9s27 12.088 27 27z" mask="url(&quot;#b&quot;)"/><path fill-opacity=".25" d="M63 36c0 4.745-1.224 9.204-3.373 13.078-1.108 1.997 2.364 8.664.805 10.31-1.786 1.887-8.668-1.31-10.932 0A26.876 26.876 0 0136 63C21.088 63 9 50.912 9 36S21.088 9 36 9s27 12.088 27 27z"/></g><path fill="#fff" d="M63 36c0 4.745-1.224 9.204-3.373 13.078-1.108 1.997 2.364 8.664.805 10.31-1.786 1.887-8.668-1.31-10.932 0A26.876 26.876 0 0136 63C21.088 63 9 50.912 9 36S21.088 9 36 9s27 12.088 27 27z"/><path fill-opacity=".1" d="M-2 74V-2h76v76zm39-64c-14.912 0-27 12.088-27 27s12.088 27 27 27c4.918 0 9.529-1.315 13.5-3.612 2.264-1.31 9.146 1.887 10.932 0 1.559-1.646-1.913-8.313-.805-10.31A26.879 26.879 0 0064 37c0-14.912-12.088-27-27-27z" filter="url(#c)" mask="url(&quot;#d&quot;)"/><path fill="#283644" d="M25.11 36.465a3.835 3.835 0 11-7.67 0 3.835 3.835 0 017.67 0zm14.42 0a3.835 3.835 0 11-7.67 0 3.835 3.835 0 017.67 0zm14.42 0a3.835 3.835 0 11-7.67 0 3.835 3.835 0 017.67 0z"/></svg>